0
SECTION
2
HEADER
9
$INSUNITS
70
4
9
$ACADVER
1
AC1014
9
$HANDSEED
5
FFFF
0
ENDSEC
0
SECTION
2
TABLES
0
TABLE
2
VPORT
5
8
100
AcDbSymbolTable
0
ENDTAB
0
TABLE
2
LTYPE
5
5
100
AcDbSymbolTable
0
LTYPE
5
14
100
AcDbSymbolTableRecord
100
AcDbLinetypeTableRecord
2
BYBLOCK
70
0
0
LTYPE
5
15
100
AcDbSymbolTableRecord
100
AcDbLinetypeTableRecord
2
BYLAYER
70
0
0
ENDTAB
0
TABLE
2
LAYER
5
2
100
AcDbSymbolTable
70
2
0
LAYER
5
50
100
AcDbSymbolTableRecord
100
AcDbLayerTableRecord
2
0
70
0
6
CONTINUOUS
0
ENDTAB
0
TABLE
2
STYLE
5
3
100
AcDbSymbolTable
70
1
0
STYLE
5
11
100
AcDbSymbolTableRecord
100
AcDbTextStyleTableRecord
2
STANDARD
70
0
0
ENDTAB
0
TABLE
2
VIEW
5
6
100
AcDbSymbolTable
70
0
0
ENDTAB
0
TABLE
2
UCS
5
7
100
AcDbSymbolTable
70
0
0
ENDTAB
0
TABLE
2
APPID
5
9
100
AcDbSymbolTable
70
2
0
APPID
5
12
100
AcDbSymbolTableRecord
100
AcDbRegAppTableRecord
2
ACAD
70
0
0
ENDTAB
0
TABLE
2
DIMSTYLE
5
A
100
AcDbSymbolTable
70
1
0
ENDTAB
0
TABLE
2
BLOCK_RECORD
5
1
100
AcDbSymbolTable
70
1
0
BLOCK_RECORD
5
1F
100
AcDbSymbolTableRecord
100
AcDbBlockTableRecord
2
*MODEL_SPACE
0
BLOCK_RECORD
5
1B
100
AcDbSymbolTableRecord
100
AcDbBlockTableRecord
2
*PAPER_SPACE
0
ENDTAB
0
ENDSEC
0
SECTION
2
BLOCKS
0
BLOCK
5
20
100
AcDbEntity
100
AcDbBlockBegin
2
*MODEL_SPACE
0
ENDBLK
5
21
100
AcDbEntity
100
AcDbBlockEnd
0
BLOCK
5
1C
100
AcDbEntity
100
AcDbBlockBegin
2
*PAPER_SPACE
0
ENDBLK
5
1D
100
AcDbEntity
100
AcDbBlockEnd
0
ENDSEC
0
SECTION
2
ENTITIES
0
LINE
5
100
100
AcDbEntity
8
0
100
AcDbLine
10
157.62662668910818
20
990.18357596036356
30
0
11
155.36537668910825
21
990.10162591329777
31
0
0
LINE
5
101
100
AcDbEntity
8
0
100
AcDbLine
10
155.36537668910827
20
995.7371932850175
30
0
11
155.36537668910827
21
1000.3727606567375
31
0
0
LINE
5
102
100
AcDbEntity
8
0
100
AcDbLine
10
155.36537668910827
20
1000.3727606567375
30
0
11
157.62662668910821
21
1000.4287672901722
31
0
0
LINE
5
103
100
AcDbEntity
8
0
100
AcDbLine
10
157.62662668910821
20
1000.4287672901722
30
0
11
157.62662668910818
21
990.18357596036356
31
0
0
LINE
5
104
100
AcDbEntity
8
0
100
AcDbLine
10
155.36537668910825
20
990.10162591329777
30
0
11
155.36537668910825
21
994.73719328501761
31
0
0
LINE
5
105
100
AcDbEntity
8
0
100
AcDbLine
10
155.36537668910827
20
1029.6141604373772
30
0
11
155.36537668910827
21
1034.2497278090971
31
0
0
LINE
5
106
100
AcDbEntity
8
0
100
AcDbLine
10
155.36537668910827
20
1034.2497278090971
30
0
11
157.62662668910821
21
1034.1677777620314
31
0
0
LINE
5
107
100
AcDbEntity
8
0
100
AcDbLine
10
157.62662668910821
20
1034.1677777620314
30
0
11
157.62662668910818
21
1023.9225864322227
31
0
0
LINE
5
108
100
AcDbEntity
8
0
100
AcDbLine
10
157.62662668910818
20
1023.9225864322227
30
0
11
155.36537668910825
21
1023.9785930656575
31
0
0
LINE
5
109
100
AcDbEntity
8
0
100
AcDbLine
10
155.36537668910825
20
1023.9785930656575
30
0
11
155.36537668910825
21
1028.6141604373774
31
0
0
LINE
5
110
100
AcDbEntity
8
0
100
AcDbLine
10
157.69737352286063
20
988.05992604892504
30
0
11
160.74662593310336
21
990.2032690614077
31
0
0
LINE
5
111
100
AcDbEntity
8
0
100
AcDbLine
10
160.74662593310339
20
1024.1480846609873
30
0
11
160.74662593310336
21
990.2032690614077
31
0
0
LINE
5
112
100
AcDbEntity
8
0
100
AcDbLine
10
157.6973735228606
20
1036.2914276734698
30
0
11
160.74662593310339
21
1034.1480846609873
31
0
0
LINE
5
113
100
AcDbEntity
8
0
100
AcDbLine
10
151.6266259331033
20
1034.4878553373399
30
0
11
157.6973735228606
21
1036.2914276734698
31
0
0
LINE
5
114
100
AcDbEntity
8
0
100
AcDbLine
10
151.6266259331033
20
1024.4878553373399
30
0
11
151.6266259331033
21
989.86349838505487
31
0
0
LINE
5
115
100
AcDbEntity
8
0
100
AcDbLine
10
151.6266259331033
20
989.86349838505487
30
0
11
157.69737352286063
21
988.05992604892504
31
0
0
LINE
5
116
100
AcDbEntity
8
0
100
AcDbLine
10
160.74662593310339
20
1034.1480846609873
30
0
11
160.74662593310339
21
1025.148084660987
31
0
0
LINE
5
117
100
AcDbEntity
8
0
100
AcDbLine
10
151.6266259331033
20
1034.4878553373399
30
0
11
151.6266259331033
21
1025.4878553373399
31
0
0
LINE
5
118
100
AcDbEntity
8
0
100
AcDbLine
10
119.10333802972339
20
183.78020640407257
30
0
11
121.48458802972337
21
183.78020640407266
31
0
0
LINE
5
119
100
AcDbEntity
8
0
100
AcDbLine
10
121.48458802972343
20
173.26832548793732
30
0
11
121.48458802972337
21
183.78020640407266
31
0
0
LINE
5
120
100
AcDbEntity
8
0
100
AcDbLine
10
121.48458802972343
20
173.26832548793732
30
0
11
119.10333802972345
21
173.26832548793729
31
0
0
LINE
5
121
100
AcDbEntity
8
0
100
AcDbLine
10
119.10333802972349
20
159.89955772094351
30
0
11
119.10333802972345
21
173.26832548793729
31
0
0
LINE
5
122
100
AcDbEntity
8
0
100
AcDbLine
10
121.48458802972354
20
149.89955772094351
30
0
11
119.10333802972355
21
149.89955772094351
31
0
0
LINE
5
123
100
AcDbEntity
8
0
100
AcDbLine
10
121.48458802972354
20
149.89955772094351
30
0
11
121.48458802972358
21
139.38767680480819
31
0
0
LINE
5
124
100
AcDbEntity
8
0
100
AcDbLine
10
119.1033380297236
20
139.38767680480819
30
0
11
121.48458802972358
21
139.38767680480819
31
0
0
LINE
5
125
100
AcDbEntity
8
0
100
AcDbLine
10
119.10333802972363
20
131.01626018750736
30
0
11
119.1033380297236
21
139.38767680480819
31
0
0
LINE
5
126
100
AcDbEntity
8
0
100
AcDbLine
10
119.10333802972363
20
131.01626018750736
30
0
11
111.36458802972363
21
141.47923899718955
31
0
0
LINE
5
127
100
AcDbEntity
8
0
100
AcDbLine
10
111.36458802972358
20
151.47923899718955
30
0
11
111.36458802972342
21
181.68864421169116
31
0
0
LINE
5
128
100
AcDbEntity
8
0
100
AcDbLine
10
119.10333802972335
20
192.15162302137344
30
0
11
111.36458802972342
21
181.68864421169116
31
0
0
LINE
5
129
100
AcDbEntity
8
0
100
AcDbLine
10
119.10333802972335
20
192.15162302137344
30
0
11
119.10333802972339
21
183.78020640407257
31
0
0
LINE
5
130
100
AcDbEntity
8
0
100
AcDbLine
10
119.10333802972355
20
149.89955772094351
30
0
11
119.10333802972352
21
158.89955772094351
31
0
0
LINE
5
131
100
AcDbEntity
8
0
100
AcDbLine
10
111.36458802972363
20
141.47923899718955
30
0
11
111.36458802972358
21
150.47923899718955
31
0
0
LINE
5
132
100
AcDbEntity
8
0
100
AcDbLine
10
163.57314976318901
20
858.1507790353827
30
0
11
156.54508805218148
21
868.43447697912427
31
0
0
LINE
5
133
100
AcDbEntity
8
0
100
AcDbLine
10
156.54508805218151
20
885.84158642335797
30
0
11
156.54508805218148
21
868.43447697912427
31
0
0
LINE
5
134
100
AcDbEntity
8
0
100
AcDbLine
10
163.57314976318946
20
906.12528436709965
30
0
11
156.54508805218154
21
895.84158642335797
31
0
0
SPLINE
5
135
100
AcDbEntity
8
0
100
AcDbSpline
70
0
71
3
72
14
73
10
74
0
42
0.000000001
43
0.0000000001
44
0.0000000001
40
-0.0060515190675310034
40
-0.0060515190675310034
40
-0.0060515190675310034
40
-0.0060515190675310034
40
0
40
0
40
0
40
0.061895021778702874
40
0.061895021778702874
40
0.061895021778702874
40
0.065015654053768163
40
0.065015654053768163
40
0.065015654053768163
40
0.065015654053768163
10
164.28383805218078
20
906.13272018817793
30
0
10
164.26366705921066
20
906.13254772697474
30
0
10
164.24349606624034
20
906.13237526577109
30
0
10
164.22332507327002
20
906.13220280456744
30
0
10
164.01693499298119
20
906.1304381774271
30
0
10
163.81060585924683
20
906.12825669626307
30
0
10
163.60433706796925
20
906.1256747505729
30
0
10
163.59394129970929
20
906.12554462274841
30
0
10
163.58354553144935
20
906.12541449492392
30
0
10
163.57314976318969
20
906.12528436709931
30
0
0
LINE
5
136
100
AcDbEntity
8
0
100
AcDbLine
10
164.28383805218078
20
906.13272018817793
30
0
11
164.28383805218152
21
898.8218285257966
31
0
0
LINE
5
137
100
AcDbEntity
8
0
100
AcDbLine
10
164.28383805218152
20
898.8218285257966
30
0
11
166.66508805218155
21
898.8218285257966
31
0
0
LINE
5
138
100
AcDbEntity
8
0
100
AcDbLine
10
166.66508805218155
20
890.05506237074383
30
0
11
166.66508805218155
21
898.8218285257966
31
0
0
LINE
5
139
100
AcDbEntity
8
0
100
AcDbLine
10
166.66508805218155
20
890.05506237074383
30
0
11
164.28383805218152
21
890.05506237074383
31
0
0
LINE
5
140
100
AcDbEntity
8
0
100
AcDbLine
10
164.28383805218152
20
890.05506237074383
30
0
11
164.28383805218149
21
874.2210010317383
31
0
0
LINE
5
141
100
AcDbEntity
8
0
100
AcDbLine
10
166.66508805218155
20
874.2210010317383
30
0
11
164.28383805218149
21
874.2210010317383
31
0
0
LINE
5
142
100
AcDbEntity
8
0
100
AcDbLine
10
166.66508805218155
20
874.2210010317383
30
0
11
166.66508805218149
21
865.45423487668563
31
0
0
LINE
5
143
100
AcDbEntity
8
0
100
AcDbLine
10
164.28383805218149
20
865.45423487668563
30
0
11
166.66508805218149
21
865.45423487668563
31
0
0
LINE
5
144
100
AcDbEntity
8
0
100
AcDbLine
10
164.28383805218141
20
858.14334321430397
30
0
11
164.28383805218149
21
865.45423487668563
31
0
0
SPLINE
5
145
100
AcDbEntity
8
0
100
AcDbSpline
70
0
71
3
72
14
73
10
74
0
42
0.000000001
43
0.0000000001
44
0.0000000001
40
-0.0060515190675483575
40
-0.0060515190675483575
40
-0.0060515190675483575
40
-0.0060515190675483575
40
0
40
0
40
0
40
0.061895021778702874
40
0.061895021778702874
40
0.061895021778702874
40
0.065015654053809588
40
0.065015654053809588
40
0.065015654053809588
40
0.065015654053809588
10
164.28383805218121
20
858.14334321430374
30
0
10
164.26366705921069
20
858.14351567550762
30
0
10
164.24349606624034
20
858.14368813671126
30
0
10
164.22332507326996
20
858.14386059791468
30
0
10
164.01693499298113
20
858.14562522505514
30
0
10
163.81060585924675
20
858.14780670621917
30
0
10
163.6043370679692
20
858.15038865190922
30
0
10
163.59394129970912
20
858.15051877973372
30
0
10
163.58354553144906
20
858.15064890755809
30
0
10
163.57314976318889
20
858.15077903538258
30
0
0
LINE
5
146
100
AcDbEntity
8
0
100
AcDbLine
10
156.54508805218154
20
895.84158642335797
30
0
11
156.54508805218151
21
886.84158642335785
31
0
0
LINE
5
147
100
AcDbEntity
8
0
100
AcDbLine
10
130.62537320355688
20
680.20287335834109
30
0
11
130.62537320355688
21
686.64448713707498
31
0
0
LINE
5
148
100
AcDbEntity
8
0
100
AcDbLine
10
130.62537320355688
20
686.64448713707498
30
0
11
128.36412320355706
21
686.56253709000919
31
0
0
LINE
5
149
100
AcDbEntity
8
0
100
AcDbLine
10
128.36412320355706
20
686.56253709000919
30
0
11
128.36412320355706
21
672.70525294617278
31
0
0
LINE
5
150
100
AcDbEntity
8
0
100
AcDbLine
10
128.36412320355706
20
672.70525294617278
30
0
11
130.62537320355688
21
672.76125957960744
31
0
0
LINE
5
151
100
AcDbEntity
8
0
100
AcDbLine
10
130.62537320355688
20
672.76125957960744
30
0
11
130.62537320355688
21
679.20287335834121
31
0
0
LINE
5
152
100
AcDbEntity
8
0
100
AcDbLine
10
133.65352892736695
20
686.7542306435821
30
0
11
133.65352892736695
21
672.83626093178282
31
0
0
LINE
5
153
100
AcDbEntity
8
0
100
AcDbLine
10
133.65352892736695
20
672.83626093178282
30
0
11
135.91477892736719
21
672.89226756521759
31
0
0
LINE
5
154
100
AcDbEntity
8
0
100
AcDbLine
10
135.91477892736719
20
680.36422412793274
30
0
11
135.91477892736719
21
686.83618069064801
31
0
0
LINE
5
155
100
AcDbEntity
8
0
100
AcDbLine
10
135.91477892736719
20
686.83618069064801
30
0
11
133.65352892736695
21
686.7542306435821
31
0
0
LINE
5
156
100
AcDbEntity
8
0
100
AcDbLine
10
135.91477892736719
20
672.89226756521759
30
0
11
135.91477892736719
21
679.36422412793274
31
0
0
LINE
5
157
100
AcDbEntity
8
0
100
AcDbLine
10
133.65352892736695
20
619.56688637612331
30
0
11
133.65352892736695
21
633.48485608792248
31
0
0
LINE
5
158
100
AcDbEntity
8
0
100
AcDbLine
10
133.65352892736695
20
633.48485608792248
30
0
11
135.91477892736719
21
633.42884945448782
31
0
0
LINE
5
159
100
AcDbEntity
8
0
100
AcDbLine
10
135.91477892736719
20
625.95689289177267
30
0
11
135.91477892736719
21
619.4849363290574
31
0
0
LINE
5
160
100
AcDbEntity
8
0
100
AcDbLine
10
135.91477892736719
20
619.4849363290574
30
0
11
133.65352892736695
21
619.56688637612331
31
0
0
LINE
5
161
100
AcDbEntity
8
0
100
AcDbLine
10
135.91477892736719
20
633.42884945448782
30
0
11
135.91477892736719
21
626.95689289177255
31
0
0
LINE
5
162
100
AcDbEntity
8
0
100
AcDbLine
10
130.62537320355693
20
626.1182436613642
30
0
11
130.62537320355688
21
619.67662988263044
31
0
0
LINE
5
163
100
AcDbEntity
8
0
100
AcDbLine
10
130.62537320355688
20
619.67662988263044
30
0
11
128.36412320355706
21
619.75857992969634
31
0
0
LINE
5
164
100
AcDbEntity
8
0
100
AcDbLine
10
128.36412320355706
20
619.75857992969634
30
0
11
128.36412320355706
21
633.61586407353275
31
0
0
LINE
5
165
100
AcDbEntity
8
0
100
AcDbLine
10
128.36412320355706
20
633.61586407353275
30
0
11
130.62537320355702
21
633.55985744009797
31
0
0
LINE
5
166
100
AcDbEntity
8
0
100
AcDbLine
10
130.62537320355702
20
633.55985744009797
30
0
11
130.62537320355693
21
627.1182436613642
31
0
0
LINE
5
167
100
AcDbEntity
8
0
100
AcDbLine
10
138.65352892736692
20
687.03532155468952
30
0
11
133.60304628347424
21
688.87247987908017
31
0
0
LINE
5
168
100
AcDbEntity
8
0
100
AcDbLine
10
133.60304628347424
20
688.87247987908017
30
0
11
128.28417300697811
21
688.67971839081179
31
0
0
LINE
5
169
100
AcDbEntity
8
0
100
AcDbLine
10
128.28417300697811
20
688.67971839081179
30
0
11
125.24412320355705
21
686.54284396156663
31
0
0
LINE
5
170
100
AcDbEntity
8
0
100
AcDbLine
10
125.24412320355708
20
629.77827305813867
30
0
11
125.24412320355705
21
686.54284396156663
31
0
0
LINE
5
171
100
AcDbEntity
8
0
100
AcDbLine
10
128.28417300697825
20
617.64139862889363
30
0
11
125.24412320355708
21
619.77827305813867
31
0
0
LINE
5
172
100
AcDbEntity
8
0
100
AcDbLine
10
133.60304628347438
20
617.44863714062535
30
0
11
128.28417300697825
21
617.64139862889363
31
0
0
LINE
5
173
100
AcDbEntity
8
0
100
AcDbLine
10
138.65352892736695
20
619.28579546501601
30
0
11
133.60304628347438
21
617.44863714062535
31
0
0
LINE
5
174
100
AcDbEntity
8
0
100
AcDbLine
10
138.65352892736695
20
629.28579546501601
30
0
11
138.65352892736692
21
687.03532155468952
31
0
0
LINE
5
175
100
AcDbEntity
8
0
100
AcDbLine
10
125.24412320355708
20
619.77827305813867
30
0
11
125.24412320355708
21
628.77827305813867
31
0
0
LINE
5
176
100
AcDbEntity
8
0
100
AcDbLine
10
138.65352892736695
20
619.28579546501601
30
0
11
138.65352892736695
21
628.28579546501601
31
0
0
LINE
5
177
100
AcDbEntity
8
0
100
AcDbLine
10
138.49882791190848
20
1043.574763775262
30
0
11
138.6862865809496
21
1043.574763775262
31
0
0
LINE
5
178
100
AcDbEntity
8
0
100
AcDbLine
10
148.72143376720717
20
1033.5396165890045
30
0
11
138.6862865809496
21
1043.574763775262
31
0
0
LINE
5
179
100
AcDbEntity
8
0
100
AcDbLine
10
148.72143376720692
20
948.25241096151956
30
0
11
148.72143376720712
21
1017.2524109615197
31
0
0
LINE
5
180
100
AcDbEntity
8
0
100
AcDbLine
10
138.68628658094923
20
928.21726377526204
30
0
11
148.72143376720689
21
938.25241096151956
31
0
0
LINE
5
181
100
AcDbEntity
8
0
100
AcDbLine
10
138.68628658094923
20
928.21726377526204
30
0
11
138.49882791190825
21
928.21726377526204
31
0
0
LINE
5
182
100
AcDbEntity
8
0
100
AcDbLine
10
138.49882791190845
20
1033.574763775262
30
0
11
138.49882791190831
21
964.57476377526189
31
0
0
LINE
5
183
100
AcDbEntity
8
0
100
AcDbLine
10
148.72143376720689
20
938.25241096151956
30
0
11
148.72143376720692
21
947.25241096151967
31
0
0
LINE
5
184
100
AcDbEntity
8
0
100
AcDbLine
10
148.72143376720712
20
1018.2524109615196
30
0
11
148.72143376720717
21
1033.5396165890045
31
0
0
LINE
5
185
100
AcDbEntity
8
0
100
AcDbLine
10
138.49882791190848
20
1043.574763775262
30
0
11
138.49882791190845
21
1034.574763775262
31
0
0
LINE
5
186
100
AcDbEntity
8
0
100
AcDbLine
10
138.49882791190831
20
963.574763775262
30
0
11
138.49882791190825
21
928.21726377526204
31
0
0
LINE
5
187
100
AcDbEntity
8
0
100
AcDbLine
10
145.07467372625428
20
35.1247382586158
30
0
11
145.07467372625428
21
47.608577863660202
31
0
0
LINE
5
188
100
AcDbEntity
8
0
100
AcDbLine
10
145.07467372625428
20
47.608577863660202
30
0
11
142.81342372625431
21
47.552571230225489
31
0
0
LINE
5
189
100
AcDbEntity
8
0
100
AcDbLine
10
142.81342372625429
20
40.797679720887686
30
0
11
142.81342372625429
21
35.04278821154989
31
0
0
LINE
5
190
100
AcDbEntity
8
0
100
AcDbLine
10
142.81342372625429
20
35.04278821154989
30
0
11
145.07467372625428
21
35.1247382586158
31
0
0
LINE
5
191
100
AcDbEntity
8
0
100
AcDbLine
10
142.81342372625431
20
47.552571230225489
30
0
11
142.81342372625429
21
41.797679720887686
31
0
0
LINE
5
192
100
AcDbEntity
8
0
100
AcDbLine
10
145.07467372625425
20
80.767983433367647
30
0
11
142.81342372625431
21
80.823990066802352
31
0
0
LINE
5
193
100
AcDbEntity
8
0
100
AcDbLine
10
142.81342372625434
20
87.578881576140162
30
0
11
142.81342372625434
21
93.333773085477958
31
0
0
LINE
5
194
100
AcDbEntity
8
0
100
AcDbLine
10
142.81342372625434
20
93.333773085477958
30
0
11
145.07467372625428
21
93.251823038412041
31
0
0
LINE
5
195
100
AcDbEntity
8
0
100
AcDbLine
10
145.07467372625428
20
93.251823038412041
30
0
11
145.07467372625425
21
80.767983433367647
31
0
0
LINE
5
196
100
AcDbEntity
8
0
100
AcDbLine
10
142.81342372625431
20
80.823990066802352
30
0
11
142.81342372625434
21
86.578881576140134
31
0
0
LINE
5
197
100
AcDbEntity
8
0
100
AcDbLine
10
145.14542131601158
20
95.37547292245219
30
0
11
148.19467372625411
21
93.232129909969657
31
0
0
LINE
5
198
100
AcDbEntity
8
0
100
AcDbLine
10
148.19467372625408
20
83.232129909969657
30
0
11
148.19467372625397
21
35.144431387058212
31
0
0
LINE
5
199
100
AcDbEntity
8
0
100
AcDbLine
10
145.14542131601158
20
33.001088374575673
30
0
11
148.19467372625397
21
35.144431387058212
31
0
0
LINE
5
200
100
AcDbEntity
8
0
100
AcDbLine
10
139.07467372625419
20
34.804660710705555
30
0
11
145.14542131601158
21
33.001088374575673
31
0
0
LINE
5
201
100
AcDbEntity
8
0
100
AcDbLine
10
139.0746737262543
20
83.571900586322286
30
0
11
139.07467372625419
21
34.804660710705555
31
0
0
LINE
5
202
100
AcDbEntity
8
0
100
AcDbLine
10
139.07467372625433
20
93.571900586322286
30
0
11
145.14542131601158
21
95.37547292245219
31
0
0
LINE
5
203
100
AcDbEntity
8
0
100
AcDbLine
10
139.07467372625433
20
93.571900586322286
30
0
11
139.0746737262543
21
84.571900586322286
31
0
0
LINE
5
204
100
AcDbEntity
8
0
100
AcDbLine
10
148.19467372625411
20
93.232129909969657
30
0
11
148.19467372625408
21
84.232129909969657
31
0
0
LINE
5
205
100
AcDbEntity
8
0
100
AcDbLine
10
167.28953960312882
20
1131.5689219308556
30
0
11
167.28953960312896
21
1140.1087500680392
31
0
0
LINE
5
206
100
AcDbEntity
8
0
100
AcDbLine
10
104.59699798557166
20
1128.5589219308556
30
0
11
104.59699799658473
21
1144.6694490538648
31
0
0
LINE
5
207
100
AcDbEntity
8
0
100
AcDbLine
10
102.12175511344661
20
1128.5589219308556
30
0
11
104.59699798557166
21
1128.5589219308556
31
0
0
LINE
5
208
100
AcDbEntity
8
0
100
AcDbLine
10
102.1217551134466
20
1118.5589219308556
30
0
11
102.12175511344654
21
1073.8249219308555
31
0
0
LINE
5
209
100
AcDbEntity
8
0
100
AcDbLine
10
102.12175511344654
20
1073.8249219308555
30
0
11
104.59699798557156
21
1073.8249219308555
31
0
0
LINE
5
210
100
AcDbEntity
8
0
100
AcDbLine
10
104.59699798557156
20
1073.8249219308555
30
0
11
104.59699799658492
21
1057.7143948078465
31
0
0
LINE
5
211
100
AcDbEntity
8
0
100
AcDbLine
10
167.28953960312876
20
1070.8149219308557
30
0
11
167.28953960312904
21
1062.2750937936723
31
0
0
LINE
5
212
100
AcDbEntity
8
0
100
AcDbLine
10
167.28953960312876
20
1070.8149219308557
30
0
11
164.89121890293688
21
1070.8149219308557
31
0
0
LINE
5
213
100
AcDbEntity
8
0
100
AcDbLine
10
164.89121890293694
20
1121.5689219308556
30
0
11
164.89121890293688
21
1070.8149219308557
31
0
0
LINE
5
214
100
AcDbEntity
8
0
100
AcDbLine
10
167.28953960312882
20
1131.5689219308556
30
0
11
164.89121890293694
21
1131.5689219308556
31
0
0
LINE
5
215
100
AcDbEntity
8
0
100
AcDbLine
10
102.12175511344661
20
1128.5589219308556
30
0
11
102.1217551134466
21
1119.5589219308554
31
0
0
SPLINE
5
216
100
AcDbEntity
8
0
100
AcDbSpline
70
0
71
3
72
11
73
7
74
0
42
0.000000001
43
0.0000000001
44
0.0000000001
40
0.0485479299723659
40
0.0485479299723659
40
0.0485479299723659
40
0.0485479299723659
40
0.052837253028720575
40
0.052837253028720575
40
0.052837253028720575
40
0.93781836190882228
40
0.93781836190882228
40
0.93781836190882228
40
0.93781836190882228
10
167.2895396031293
20
1140.1087500680389
30
0
10
167.27598276288029
20
1140.113363471788
30
0
10
167.26242592263108
20
1140.1179768755369
30
0
10
167.24886908238193
20
1140.1225902792858
30
0
10
164.44958339279901
20
1141.075189473293
30
0
10
161.5586868941912
20
1141.8764328348088
30
0
10
158.63063019577112
20
1142.5484052101672
30
0
0
SPLINE
5
217
100
AcDbEntity
8
0
100
AcDbSpline
70
0
71
3
72
17
73
13
74
0
42
0.000000001
43
0.0000000001
44
0.0000000001
40
1.0359913669374541
40
1.0359913669374541
40
1.0359913669374541
40
1.0359913669374541
40
2.1964329913196781
40
2.1964329913196781
40
2.1964329913196781
40
4.3308507359050612
40
4.3308507359050612
40
4.3308507359050612
40
6.3225477852255674
40
6.3225477852255674
40
6.3225477852255674
40
6.3279368887915552
40
6.3279368887915552
40
6.3279368887915552
40
6.3279368887915552
10
157.65488430728513
20
1142.7672932987005
30
0
10
153.80550428894804
20
1143.6111733039736
30
0
10
149.90261656409839
20
1144.2369963331421
30
0
10
146.06898502163412
20
1144.6945546963541
30
0
10
139.01773235239875
20
1145.5361482595831
30
0
10
131.73925298426812
20
1145.8641318863827
30
0
10
124.6311384274799
20
1145.8081359127318
30
0
10
117.99831924729278
20
1145.7558841988523
30
0
10
111.27559955110769
20
1145.3676962891986
30
0
10
104.65075900145864
20
1144.6750697624389
30
0
10
104.63283866650073
20
1144.6731961929142
30
0
10
104.61491833154282
20
1144.6713226233896
30
0
10
104.59699799658473
20
1144.6694490538648
30
0
0
LINE
5
218
100
AcDbEntity
8
0
100
AcDbLine
10
164.89121890293694
20
1131.5689219308556
30
0
11
164.89121890293694
21
1122.5689219308556
31
0
0
SPLINE
5
219
100
AcDbEntity
8
0
100
AcDbSpline
70
0
71
3
72
11
73
7
74
0
42
0.000000001
43
0.0000000001
44
0.0000000001
40
0.048547929972376017
40
0.048547929972376017
40
0.048547929972376017
40
0.048547929972376017
40
0.052837253028720575
40
0.052837253028720575
40
0.052837253028720575
40
0.93781836190884382
40
0.93781836190884382
40
0.93781836190884382
40
0.93781836190884382
10
167.28953960312904
20
1062.2750937936723
30
0
10
167.27598276288006
20
1062.2704803899233
30
0
10
167.26242592263094
20
1062.2658669861746
30
0
10
167.24886908238182
20
1062.2612535824255
30
0
10
164.44958339279884
20
1061.3086543884183
30
0
10
161.55868689419097
20
1060.5074110269024
30
0
10
158.63063019577083
20
1059.8354386515441
30
0
0
SPLINE
5
220
100
AcDbEntity
8
0
100
AcDbSpline
70
0
71
3
72
17
73
13
74
0
42
0.000000001
43
0.0000000001
44
0.0000000001
40
1.0359913669374583
40
1.0359913669374583
40
1.0359913669374583
40
1.0359913669374583
40
2.1964329913196781
40
2.1964329913196781
40
2.1964329913196781
40
4.3308507359050612
40
4.3308507359050612
40
4.3308507359050612
40
6.3225477852255674
40
6.3225477852255674
40
6.3225477852255674
40
6.3279368887915464
40
6.3279368887915464
40
6.3279368887915464
40
6.3279368887915464
10
157.65488430728502
20
1059.6165505630106
30
0
10
153.80550428894793
20
1058.7726705577375
30
0
10
149.90261656409831
20
1058.146847528569
30
0
10
146.06898502163403
20
1057.689289165357
30
0
10
139.01773235239864
20
1056.8476956021279
30
0
10
131.73925298426798
20
1056.5197119753284
30
0
10
124.6311384274798
20
1056.5757079489792
30
0
10
117.99831924729264
20
1056.6279596628588
30
0
10
111.27559955110758
20
1057.0161475725124
30
0
10
104.65075900145854
20
1057.708774099272
30
0
10
104.63283866650065
20
1057.7106476687968
30
0
10
104.61491833154275
20
1057.7125212383216
30
0
10
104.59699799658486
20
1057.7143948078465
30
0
0
SPLINE
5
221
100
AcDbEntity
8
0
100
AcDbSpline
70
0
71
3
72
17
73
13
74
0
42
0.000000001
43
0.0000000001
44
0.0000000001
40
0
40
0
40
0
40
0
40
0.27345113137084942
40
0.27345113137084942
40
0.27345113137084942
40
0.54690226274169906
40
0.54690226274169906
40
0.54690226274169906
40
0.82035339411254804
40
0.82035339411254804
40
0.82035339411254804
40
1.0752924255854537
40
1.0752924255854537
40
1.0752924255854537
40
1.0752924255854537
10
113.56612524932224
20
1124.8331696097675
30
0
10
113.56612524932224
20
1125.7368604915362
30
0
10
113.74263617362877
20
1126.6319115959252
30
0
10
114.08572275159329
20
1127.4679431801442
30
0
10
114.42880932955782
20
1128.3039747643634
30
0
10
114.93191137181641
20
1129.0650009931776
30
0
10
115.56671077299822
20
1129.7081859821587
30
0
10
116.20151017418002
20
1130.3513709711397
30
0
10
116.95586887774952
20
1130.8644163221729
30
0
10
117.78732629428193
20
1131.2184442508517
30
0
10
118.5624956907993
20
1131.5485051900744
30
0
10
119.39132939726207
20
1131.7346664057625
30
0
10
120.23319039766531
20
1131.7678005708751
30
0
0
SPLINE
5
222
100
AcDbEntity
8
0
100
AcDbSpline
70
0
71
3
72
17
73
13
74
0
42
0.000000001
43
0.0000000001
44
0.0000000001
40
0
40
0
40
0
40
0
40
0.27345113137084992
40
0.27345113137084992
40
0.27345113137084992
40
0.54690226274169951
40
0.54690226274169951
40
0.54690226274169951
40
0.76726195908957684
40
0.76726195908957684
40
0.76726195908957684
40
0.98762165543745351
40
0.98762165543745351
40
0.98762165543745351
40
0.98762165543745351
10
148.67624357325727
20
1130.2581604678583
30
0
10
149.56786048376765
20
1130.1109310730919
30
0
10
150.42219587595201
20
1129.7909566623507
30
0
10
151.19116177237058
20
1129.31624763575
30
0
10
151.9601276687892
20
1128.8415386091488
30
0
10
152.62902060326493
20
1128.2211719207489
30
0
10
153.16019059823992
20
1127.4900661512263
30
0
10
153.58823219461226
20
1126.9009069674166
30
0
10
153.92088499573907
20
1126.2480288563022
30
0
10
154.1459194713043
20
1125.555433998612
30
0
10
154.37095394686952
20
1124.8628391409216
30
0
10
154.48557818723521
20
1124.1391202745167
30
0
10
154.48557818723521
20
1123.4108839446812
30
0
0
LINE
5
223
100
AcDbEntity
8
0
100
AcDbLine
10
154.48557818723521
20
1113.4108839446812
30
0
11
154.48557818723521
21
1078.97295991703
31
0
0
SPLINE
5
224
100
AcDbEntity
8
0
100
AcDbSpline
70
0
71
3
72
17
73
13
74
0
42
0.000000001
43
0.0000000001
44
0.0000000001
40
0
40
0
40
0
40
0
40
0.27345113137084992
40
0.27345113137084992
40
0.27345113137084992
40
0.54690226274169951
40
0.54690226274169951
40
0.54690226274169951
40
0.76726195908957684
40
0.76726195908957684
40
0.76726195908957684
40
0.98762165543745351
40
0.98762165543745351
40
0.98762165543745351
40
0.98762165543745351
10
148.67624357325718
20
1072.1256833938528
30
0
10
149.56786048376759
20
1072.2729127886194
30
0
10
150.42219587595196
20
1072.5928871993603
30
0
10
151.19116177237052
20
1073.0675962259613
30
0
10
151.96012766878911
20
1073.5423052525625
30
0
10
152.62902060326485
20
1074.1626719409621
30
0
10
153.16019059823989
20
1074.8937777104852
30
0
10
153.5882321946122
20
1075.4829368942947
30
0
10
153.92088499573899
20
1076.1358150054091
30
0
10
154.14591947130421
20
1076.8284098630993
30
0
10
154.37095394686943
20
1077.5210047207897
30
0
10
154.48557818723515
20
1078.2447235871946
30
0
10
154.48557818723515
20
1078.9729599170298
30
0
0
SPLINE
5
225
100
AcDbEntity
8
0
100
AcDbSpline
70
0
71
3
72
11
73
7
74
0
42
0.000000001
43
0.0000000001
44
0.0000000001
40
6.6464872057314501
40
6.6464872057314501
40
6.6464872057314501
40
6.6464872057314501
40
9.1457969700875346
40
9.1457969700875346
40
9.1457969700875346
40
9.704920006114726
40
9.704920006114726
40
9.704920006114726
40
9.704920006114726
10
148.6762435732636
20
1072.1256833938539
30
0
10
141.30451335819464
20
1070.9084169140992
30
0
10
133.26065733700227
20
1070.4228250361957
30
0
10
125.48701852449932
20
1070.4894274741023
30
0
10
123.74796130261343
20
1070.5043272467094
30
0
10
121.99478520194388
20
1070.5467100243245
30
0
10
120.23319039766534
20
1070.6160432908359
30
0
0
SPLINE
5
226
100
AcDbEntity
8
0
100
AcDbSpline
70
0
71
3
72
17
73
13
74
0
42
0.000000001
43
0.0000000001
44
0.0000000001
40
0
40
0
40
0
40
0
40
0.27345113137084942
40
0.27345113137084942
40
0.27345113137084942
40
0.54690226274169906
40
0.54690226274169906
40
0.54690226274169906
40
0.82035339411254804
40
0.82035339411254804
40
0.82035339411254804
40
1.0752924255854537
40
1.0752924255854537
40
1.0752924255854537
40
1.0752924255854537
10
113.56612524932217
20
1077.5506742519435
30
0
10
113.56612524932217
20
1076.6469833701749
30
0
10
113.7426361736287
20
1075.7519322657859
30
0
10
114.08572275159322
20
1074.9159006815669
30
0
10
114.42880932955775
20
1074.0798690973477
30
0
10
114.93191137181634
20
1073.3188428685337
30
0
10
115.56671077299814
20
1072.6756578795525
30
0
10
116.20151017417994
20
1072.0324728905714
30
0
10
116.95586887774945
20
1071.5194275395381
30
0
10
117.78732629428185
20
1071.1653996108594
30
0
10
118.56249569079922
20
1070.8353386716367
30
0
10
119.391329397262
20
1070.6491774559486
30
0
10
120.23319039766523
20
1070.6160432908359
30
0
0
LINE
5
227
100
AcDbEntity
8
0
100
AcDbLine
10
113.56612524932223
20
1114.8331696097675
30
0
11
113.56612524932217
21
1077.5506742519435
31
0
0
LINE
5
228
100
AcDbEntity
8
0
100
AcDbLine
10
154.48557818723521
20
1123.4108839446812
30
0
11
154.48557818723521
21
1114.410883944681
31
0
0
SPLINE
5
229
100
AcDbEntity
8
0
100
AcDbSpline
70
0
71
3
72
8
73
4
74
0
42
0.000000001
43
0.0000000001
44
0.0000000001
40
6.6464872057314501
40
6.6464872057314501
40
6.6464872057314501
40
6.6464872057314501
40
7.6270053757743668
40
7.6270053757743668
40
7.6270053757743668
40
7.6270053757743668
10
148.67624357326366
20
1130.2581604678574
30
0
10
145.78419892813275
20
1130.7357130778641
30
0
10
142.78870638021334
20
1131.1006525395651
30
0
10
139.74666637884434
20
1131.3638162112925
30
0
0
SPLINE
5
230
100
AcDbEntity
8
0
100
AcDbSpline
70
0
71
3
72
11
73
7
74
0
42
0.000000001
43
0.0000000001
44
0.0000000001
40
7.7339096454661522
40
7.7339096454661522
40
7.7339096454661522
40
7.7339096454661522
40
9.1457969700875346
40
9.1457969700875346
40
9.1457969700875346
40
9.704920006114726
40
9.704920006114726
40
9.704920006114726
40
9.704920006114726
10
138.75007444377889
20
1131.446277671628
30
0
10
134.35607798078047
20
1131.7934466363554
30
0
10
129.87843181071341
20
1131.9320408306494
30
0
10
125.48701852449939
20
1131.8944163876088
30
0
10
123.7479613026135
20
1131.8795166150016
30
0
10
121.99478520194396
20
1131.8371338373865
30
0
10
120.23319039766541
20
1131.7678005708751
30
0
0
LINE
5
231
100
AcDbEntity
8
0
100
AcDbLine
10
113.56612524932224
20
1124.8331696097675
30
0
11
113.56612524932223
21
1115.8331696097675
31
0
0
LINE
5
232
100
AcDbEntity
8
0
100
AcDbLine
10
111.21405826942059
20
338.23840018225997
30
0
11
111.21405826941947
21
341.49878342427365
31
0
0
LINE
5
233
100
AcDbEntity
8
0
100
AcDbLine
10
111.21405826941947
20
341.49878342427365
30
0
11
113.47530826941947
21
341.55479005770906
31
0
0
LINE
5
234
100
AcDbEntity
8
0
100
AcDbLine
10
113.47530826941947
20
341.55479005770906
30
0
11
113.47530826942207
21
334.05996698731303
31
0
0
LINE
5
235
100
AcDbEntity
8
0
100
AcDbLine
10
113.47530826942207
20
334.05996698731303
30
0
11
111.21405826942207
21
333.97801694024633
31
0
0
LINE
5
236
100
AcDbEntity
8
0
100
AcDbLine
10
111.21405826942207
20
333.97801694024633
30
0
11
111.21405826942095
21
337.23840018225997
31
0
0
LINE
5
237
100
AcDbEntity
8
0
100
AcDbLine
10
113.47530826941298
20
360.66844395094984
30
0
11
113.47530826941554
21
353.1736208805537
31
0
0
LINE
5
238
100
AcDbEntity
8
0
100
AcDbLine
10
113.47530826941554
20
353.1736208805537
30
0
11
111.21405826941553
21
353.22962751398762
31
0
0
LINE
5
239
100
AcDbEntity
8
0
100
AcDbLine
10
111.21405826941405
20
357.49001075600125
30
0
11
111.21405826941293
21
360.75039399801494
31
0
0
LINE
5
240
100
AcDbEntity
8
0
100
AcDbLine
10
111.21405826941293
20
360.75039399801494
30
0
11
113.47530826941298
21
360.66844395094984
31
0
0
LINE
5
241
100
AcDbEntity
8
0
100
AcDbLine
10
111.21405826941553
20
353.22962751398762
30
0
11
111.21405826941441
21
356.49001075600131
31
0
0
LINE
5
242
100
AcDbEntity
8
0
100
AcDbLine
10
113.54605544754097
20
331.9363170883546
30
0
11
116.595307857783
21
334.07966010083817
31
0
0
LINE
5
243
100
AcDbEntity
8
0
100
AcDbLine
10
116.59530785777721
20
350.64875083742669
30
0
11
116.595307857783
21
334.07966010083817
31
0
0
LINE
5
244
100
AcDbEntity
8
0
100
AcDbLine
10
113.54605544753034
20
362.79209384990816
30
0
11
116.59530785777375
21
360.64875083742669
31
0
0
LINE
5
245
100
AcDbEntity
8
0
100
AcDbLine
10
107.475307857774
20
360.98852151377628
30
0
11
113.54605544753034
21
362.79209384990816
31
0
0
LINE
5
246
100
AcDbEntity
8
0
100
AcDbLine
10
107.475307857774
20
360.98852151377628
30
0
11
107.47530785778312
21
333.73988942448244
31
0
0
LINE
5
247
100
AcDbEntity
8
0
100
AcDbLine
10
107.47530785778312
20
333.73988942448244
30
0
11
113.54605544754097
21
331.9363170883546
31
0
0
LINE
5
248
100
AcDbEntity
8
0
100
AcDbLine
10
116.59530785777375
20
360.64875083742669
30
0
11
116.59530785777687
21
351.64875083742675
31
0
0
LINE
5
249
100
AcDbEntity
8
0
100
AcDbLine
10
144.55607568376928
20
921.45746326869198
30
0
11
144.55607568376917
21
852.45746326869198
31
0
0
LINE
5
250
100
AcDbEntity
8
0
100
AcDbLine
10
144.55607568376911
20
836.17025764120717
30
0
11
154.59122287002663
21
826.13511045494965
31
0
0
LINE
5
251
100
AcDbEntity
8
0
100
AcDbLine
10
154.76705528345838
20
826.13511045494965
30
0
11
154.59122287002663
21
826.13511045494965
31
0
0
LINE
5
252
100
AcDbEntity
8
0
100
AcDbLine
10
154.7670552834584
20
836.13511045494965
30
0
11
154.76705528345849
21
905.13511045494965
31
0
0
LINE
5
253
100
AcDbEntity
8
0
100
AcDbLine
10
154.59122287002694
20
941.4926104549495
30
0
11
154.76705528345855
21
941.4926104549495
31
0
0
LINE
5
254
100
AcDbEntity
8
0
100
AcDbLine
10
154.59122287002694
20
941.4926104549495
30
0
11
144.55607568376928
21
931.45746326869198
31
0
0
LINE
5
255
100
AcDbEntity
8
0
100
AcDbLine
10
154.76705528345838
20
826.13511045494965
30
0
11
154.7670552834584
21
835.13511045494965
31
0
0
LINE
5
256
100
AcDbEntity
8
0
100
AcDbLine
10
154.76705528345849
20
906.13511045494965
30
0
11
154.76705528345855
21
941.4926104549495
31
0
0
LINE
5
257
100
AcDbEntity
8
0
100
AcDbLine
10
144.55607568376928
20
931.45746326869198
30
0
11
144.55607568376928
21
922.45746326869198
31
0
0
LINE
5
258
100
AcDbEntity
8
0
100
AcDbLine
10
144.55607568376914
20
851.45746326869198
30
0
11
144.55607568376911
21
836.17025764120717
31
0
0
LINE
5
259
100
AcDbEntity
8
0
100
AcDbLine
10
163.19458906989701
20
160.14991644737387
30
0
11
153.15944188363889
21
170.1850636336311
31
0
0
LINE
5
260
100
AcDbEntity
8
0
100
AcDbLine
10
153.15944188363852
20
180.1850636336311
30
0
11
153.15944188363576
21
249.18506363363107
31
0
0
LINE
5
261
100
AcDbEntity
8
0
100
AcDbLine
10
153.15944188363511
20
265.47226926111614
30
0
11
163.19458906989234
21
275.50741644737417
31
0
0
LINE
5
262
100
AcDbEntity
8
0
100
AcDbLine
10
163.38204773893347
20
275.50741644737417
30
0
11
163.19458906989234
21
275.50741644737417
31
0
0
LINE
5
263
100
AcDbEntity
8
0
100
AcDbLine
10
163.38204773893384
20
265.50741644737417
30
0
11
163.38204773893654
21
196.50741644737417
31
0
0
LINE
5
264
100
AcDbEntity
8
0
100
AcDbLine
10
163.19458906989701
20
160.14991644737387
30
0
11
163.38204773893796
21
160.14991644737393
31
0
0
LINE
5
265
100
AcDbEntity
8
0
100
AcDbLine
10
153.15944188363889
20
170.1850636336311
30
0
11
153.15944188363855
21
179.18506363363107
31
0
0
LINE
5
266
100
AcDbEntity
8
0
100
AcDbLine
10
153.15944188363571
20
250.1850636336311
30
0
11
153.15944188363511
21
265.47226926111614
31
0
0
LINE
5
267
100
AcDbEntity
8
0
100
AcDbLine
10
163.38204773893347
20
275.50741644737417
30
0
11
163.38204773893381
21
266.50741644737417
31
0
0
LINE
5
268
100
AcDbEntity
8
0
100
AcDbLine
10
163.38204773893659
20
195.50741644737417
30
0
11
163.38204773893796
21
160.14991644737393
31
0
0
LINE
5
269
100
AcDbEntity
8
0
100
AcDbLine
10
109.816491568846
20
21.183454999543081
30
0
11
119.85163875510372
21
31.218602185800712
31
0
0
LINE
5
270
100
AcDbEntity
8
0
100
AcDbLine
10
119.85163875510372
20
41.218602185800712
30
0
11
119.85163875510374
21
110.21860218580072
31
0
0
LINE
5
271
100
AcDbEntity
8
0
100
AcDbLine
10
119.85163875510374
20
126.5058078132855
30
0
11
109.81649156884612
21
136.54095499954312
31
0
0
LINE
5
272
100
AcDbEntity
8
0
100
AcDbLine
10
109.62903289980503
20
136.54095499954315
30
0
11
109.81649156884612
21
136.54095499954312
31
0
0
LINE
5
273
100
AcDbEntity
8
0
100
AcDbLine
10
109.62903289980503
20
126.54095499954316
30
0
11
109.62903289980505
21
57.54095499954316
31
0
0
LINE
5
274
100
AcDbEntity
8
0
100
AcDbLine
10
109.816491568846
20
21.183454999543081
30
0
11
109.62903289980508
21
21.183454999543141
31
0
0
LINE
5
275
100
AcDbEntity
8
0
100
AcDbLine
10
109.62903289980503
20
136.54095499954315
30
0
11
109.62903289980503
21
127.54095499954316
31
0
0
LINE
5
276
100
AcDbEntity
8
0
100
AcDbLine
10
109.62903289980505
20
56.54095499954316
30
0
11
109.62903289980508
21
21.183454999543141
31
0
0
LINE
5
277
100
AcDbEntity
8
0
100
AcDbLine
10
119.85163875510372
20
31.218602185800712
30
0
11
119.85163875510372
21
40.218602185800719
31
0
0
LINE
5
278
100
AcDbEntity
8
0
100
AcDbLine
10
119.85163875510374
20
111.21860218580071
30
0
11
119.85163875510374
21
126.5058078132855
31
0
0
LINE
5
279
100
AcDbEntity
8
0
100
AcDbLine
10
145.91477892736989
20
635.08638985647326
30
0
11
143.65352892736979
21
635.14239648990792
31
0
0
LINE
5
280
100
AcDbEntity
8
0
100
AcDbLine
10
143.65352892736979
20
635.14239648990792
30
0
11
143.65352892736979
21
619.79029667135399
31
0
0
LINE
5
281
100
AcDbEntity
8
0
100
AcDbLine
10
143.65352892736979
20
619.79029667135399
30
0
11
145.91477892736989
21
619.70834662428808
31
0
0
LINE
5
282
100
AcDbEntity
8
0
100
AcDbLine
10
145.91477892736989
20
627.89736824038062
30
0
11
145.91477892736989
21
635.08638985647326
31
0
0
LINE
5
283
100
AcDbEntity
8
0
100
AcDbLine
10
145.91477892736989
20
619.70834662428808
30
0
11
145.91477892736989
21
626.89736824038073
31
0
0
LINE
5
284
100
AcDbEntity
8
0
100
AcDbLine
10
143.65352892736979
20
680.68580060792124
30
0
11
143.65352892736979
21
696.03790042647552
31
0
0
LINE
5
285
100
AcDbEntity
8
0
100
AcDbLine
10
143.65352892736979
20
696.03790042647552
30
0
11
145.91477892736989
21
696.11985047354119
31
0
0
LINE
5
286
100
AcDbEntity
8
0
100
AcDbLine
10
145.91477892736989
20
687.93082885744866
30
0
11
145.91477892736989
21
680.74180724135601
31
0
0
LINE
5
287
100
AcDbEntity
8
0
100
AcDbLine
10
145.91477892736989
20
680.74180724135601
30
0
11
143.65352892736979
21
680.68580060792124
31
0
0
LINE
5
288
100
AcDbEntity
8
0
100
AcDbLine
10
145.91477892736989
20
696.11985047354119
30
0
11
145.91477892736989
21
688.93082885744866
31
0
0
LINE
5
289
100
AcDbEntity
8
0
100
AcDbLine
10
140.5335289273697
20
696.01820729803308
30
0
11
143.58462906304825
21
698.16284909096044
31
0
0
LINE
5
290
100
AcDbEntity
8
0
100
AcDbLine
10
143.58462906304825
20
698.16284909096044
30
0
11
148.65352892736979
21
696.3189913375827
31
0
0
LINE
5
291
100
AcDbEntity
8
0
100
AcDbLine
10
148.65352892736979
20
686.3189913375827
30
0
11
148.65352892736976
21
619.50920576024657
31
0
0
LINE
5
292
100
AcDbEntity
8
0
100
AcDbLine
10
143.58462906304834
20
617.66534800686895
30
0
11
148.65352892736976
21
619.50920576024657
31
0
0
LINE
5
293
100
AcDbEntity
8
0
100
AcDbLine
10
140.53352892736967
20
619.80998979979631
30
0
11
143.58462906304834
21
617.66534800686895
31
0
0
LINE
5
294
100
AcDbEntity
8
0
100
AcDbLine
10
140.53352892736967
20
629.80998979979631
30
0
11
140.5335289273697
21
696.01820729803308
31
0
0
LINE
5
295
100
AcDbEntity
8
0
100
AcDbLine
10
140.53352892736967
20
619.80998979979631
30
0
11
140.53352892736967
21
628.80998979979631
31
0
0
LINE
5
296
100
AcDbEntity
8
0
100
AcDbLine
10
148.65352892736979
20
696.3189913375827
30
0
11
148.65352892736979
21
687.31899133758259
31
0
0
LINE
5
297
100
AcDbEntity
8
0
100
AcDbLine
10
106.01630535414608
20
910.42843422096837
30
0
11
106.01630535414635
21
910.33920912591896
31
0
0
LINE
5
298
100
AcDbEntity
8
0
100
AcDbLine
10
106.01630535414635
20
910.33920912591896
30
0
11
113.01630535414776
21
900.03039989802846
31
0
0
LINE
5
299
100
AcDbEntity
8
0
100
AcDbLine
10
113.01630535414775
20
890.03039989802846
30
0
11
113.01630535414762
21
821.03039989802835
31
0
0
LINE
5
300
100
AcDbEntity
8
0
100
AcDbLine
10
106.01630535414616
20
791.03835395157671
30
0
11
113.01630535414759
21
801.34716317946743
31
0
0
LINE
5
301
100
AcDbEntity
8
0
100
AcDbLine
10
106.01630535414616
20
790.9491288565273
30
0
11
106.01630535414616
21
791.03835395157671
31
0
0
SPLINE
5
302
100
AcDbEntity
8
0
100
AcDbSpline
70
0
71
3
72
14
73
10
74
0
42
0.000000001
43
0.0000000001
44
0.0000000001
40
-0.0061166537131079994
40
-0.0061166537131079994
40
-0.0061166537131079994
40
-0.0061166537131079994
40
0
40
0
40
0
40
0.11284145036804587
40
0.11284145036804587
40
0.11284145036804587
40
0.11869467290904183
40
0.11869467290904183
40
0.11869467290904183
40
0.11869467290904183
10
104.76897663035808
20
790.92081139568916
30
0
10
104.78936169674435
20
790.92120394864605
30
0
10
104.80974676313073
20
790.92159650160306
30
0
10
104.8301318295171
20
790.92198905456019
30
0
10
105.20633850163476
20
790.92923362461852
30
0
10
105.58225012050441
20
790.93777327537452
30
0
10
105.95787451349074
20
790.94760021201057
30
0
10
105.97735146037586
20
790.94810976018266
30
0
10
105.99682840726101
20
790.94861930835486
30
0
10
106.01630535414631
20
790.94912885652718
30
0
0
LINE
5
303
100
AcDbEntity
8
0
100
AcDbLine
10
104.76897663035808
20
790.92081139568916
30
0
11
104.76897663035793
21
802.05003655936241
31
0
0
LINE
5
304
100
AcDbEntity
8
0
100
AcDbLine
10
104.76897663035793
20
802.05003655936241
30
0
11
102.89630535414756
21
802.03403739556461
31
0
0
LINE
5
305
100
AcDbEntity
8
0
100
AcDbLine
10
102.89630535414759
20
820.92203894482577
30
0
11
102.89630535414756
21
802.03403739556461
31
0
0
LINE
5
306
100
AcDbEntity
8
0
100
AcDbLine
10
102.89630535414759
20
820.92203894482577
30
0
11
104.768976630358
21
820.93297315821758
31
0
0
LINE
5
307
100
AcDbEntity
8
0
100
AcDbLine
10
104.76897663035808
20
870.44458991927843
30
0
11
104.768976630358
21
820.93297315821758
31
0
0
LINE
5
308
100
AcDbEntity
8
0
100
AcDbLine
10
102.89630535414773
20
880.45552413267001
30
0
11
104.76897663035811
21
880.44458991927843
31
0
0
LINE
5
309
100
AcDbEntity
8
0
100
AcDbLine
10
102.89630535414773
20
880.45552413267001
30
0
11
102.89630535414776
21
899.34352568193106
31
0
0
LINE
5
310
100
AcDbEntity
8
0
100
AcDbLine
10
104.76897663035811
20
899.32752651813348
30
0
11
102.89630535414776
21
899.34352568193106
31
0
0
LINE
5
311
100
AcDbEntity
8
0
100
AcDbLine
10
104.76897663035825
20
910.45675168180662
30
0
11
104.76897663035811
21
899.32752651813348
31
0
0
SPLINE
5
312
100
AcDbEntity
8
0
100
AcDbSpline
70
0
71
3
72
14
73
10
74
0
42
0.000000001
43
0.0000000001
44
0.0000000001
40
-0.0061166537131031977
40
-0.0061166537131031977
40
-0.0061166537131031977
40
-0.0061166537131031977
40
0
40
0
40
0
40
0.11284145036804587
40
0.11284145036804587
40
0.11284145036804587
40
0.11869467290901385
40
0.11869467290901385
40
0.11869467290901385
40
0.11869467290901385
10
104.76897663035822
20
910.45675168180674
30
0
10
104.78936169674461
20
910.45635912884961
30
0
10
104.80974676313096
20
910.45596657589272
30
0
10
104.83013182951731
20
910.45557402293571
30
0
10
105.20633850163497
20
910.44832945287737
30
0
10
105.58225012050463
20
910.43978980212137
30
0
10
105.95787451349095
20
910.42996286548532
30
0
10
105.977351460376
20
910.429453317313
30
0
10
105.99682840726105
20
910.4289437691408
30
0
10
106.01630535414627
20
910.42843422096871
30
0
0
LINE
5
313
100
AcDbEntity
8
0
100
AcDbLine
10
104.76897663035811
20
880.44458991927843
30
0
11
104.76897663035808
21
871.44458991927831
31
0
0
LINE
5
314
100
AcDbEntity
8
0
100
AcDbLine
10
113.01630535414776
20
900.03039989802846
30
0
11
113.01630535414775
21
891.03039989802835
31
0
0
LINE
5
315
100
AcDbEntity
8
0
100
AcDbLine
10
113.01630535414762
20
820.03039989802846
30
0
11
113.01630535414759
21
801.34716317946743
31
0
0
LINE
5
316
100
AcDbEntity
8
0
100
AcDbLine
10
133.61982205653024
20
464.26209303885179
30
0
11
137.74774770742656
21
460.19597800632664
31
0
0
LINE
5
317
100
AcDbEntity
8
0
100
AcDbLine
10
137.91898878949456
20
450.19744428923531
30
0
11
138.79461928512168
21
399.07057141205905
31
0
0
LINE
5
318
100
AcDbEntity
8
0
100
AcDbLine
10
138.79461928512168
20
399.07057141205905
30
0
11
134.79321013910808
21
395.2923583236747
31
0
0
LINE
5
319
100
AcDbEntity
8
0
100
AcDbLine
10
134.79321013910808
20
395.2923583236747
30
0
11
130.6574570626089
21
400.00312124939768
31
0
0
LINE
5
320
100
AcDbEntity
8
0
100
AcDbLine
10
130.48621598054117
20
410.00165496648901
30
0
11
129.62157498911839
21
460.48686565034041
31
0
0
LINE
5
321
100
AcDbEntity
8
0
100
AcDbLine
10
129.62157498911839
20
460.48686565034041
30
0
11
133.61982205653024
21
464.26209303885179
31
0
0
LINE
5
322
100
AcDbEntity
8
0
100
AcDbLine
10
130.6574570626089
20
400.00312124939768
30
0
11
130.50334008874793
21
409.00180159477992
31
0
0
LINE
5
323
100
AcDbEntity
8
0
100
AcDbLine
10
137.74774770742656
20
460.19597800632664
30
0
11
137.90186468128775
21
451.19729766094446
31
0
0
LINE
5
324
100
AcDbEntity
8
0
100
AcDbLine
10
154.66722184108806
20
485.01016668233916
30
0
11
153.31612888707915
21
416.0233958648148
31
0
0
LINE
5
325
100
AcDbEntity
8
0
100
AcDbLine
10
152.40623526033286
20
369.56425113282648
30
0
11
157.26929370515117
21
360.56137251180735
31
0
0
LINE
5
326
100
AcDbEntity
8
0
100
AcDbLine
10
157.26929370515117
20
360.56137251180735
30
0
11
162.41105980396227
21
363.58430570038638
31
0
0
LINE
5
327
100
AcDbEntity
8
0
100
AcDbLine
10
162.60687037700689
20
373.58238842756379
30
0
11
163.95796333101461
21
442.56915924508814
31
0
0
LINE
5
328
100
AcDbEntity
8
0
100
AcDbLine
10
164.89387769059479
20
490.35692191357543
30
0
11
160.00104950516217
21
498.02897849160166
31
0
0
LINE
5
329
100
AcDbEntity
8
0
100
AcDbLine
10
160.00104950516217
20
498.02897849160166
30
0
11
154.86303241413285
21
495.00824940951657
31
0
0
LINE
5
330
100
AcDbEntity
8
0
100
AcDbLine
10
162.41105980396227
20
363.58430570038638
30
0
11
162.58728931970242
21
372.58258015484608
31
0
0
LINE
5
331
100
AcDbEntity
8
0
100
AcDbLine
10
163.97754438831907
20
443.5689675178059
30
0
11
164.89387769059479
21
490.35692191357543
31
0
0
LINE
5
332
100
AcDbEntity
8
0
100
AcDbLine
10
154.86303241413285
20
495.00824940951657
30
0
11
154.68680289839253
21
486.00997495505686
31
0
0
LINE
5
333
100
AcDbEntity
8
0
100
AcDbLine
10
153.29654782977465
20
415.02358759209704
30
0
11
152.40623526033286
21
369.56425113282648
31
0
0
LINE
5
334
100
AcDbEntity
8
0
100
AcDbLine
10
166.51443729454593
20
971.55429626244381
30
0
11
168.89568729454592
21
971.55429626244381
31
0
0
LINE
5
335
100
AcDbEntity
8
0
100
AcDbLine
10
168.89568729454589
20
960.35594795006068
30
0
11
168.89568729454592
21
971.55429626244381
31
0
0
LINE
5
336
100
AcDbEntity
8
0
100
AcDbLine
10
168.89568729454589
20
960.35594795006068
30
0
11
166.51443729454587
21
960.35594795006068
31
0
0
LINE
5
337
100
AcDbEntity
8
0
100
AcDbLine
10
166.51443729454584
20
950.35594795006068
30
0
11
166.51443729454581
21
934.02328897174937
31
0
0
LINE
5
338
100
AcDbEntity
8
0
100
AcDbLine
10
168.89568729454581
20
934.02328897174937
30
0
11
166.51443729454581
21
934.02328897174937
31
0
0
LINE
5
339
100
AcDbEntity
8
0
100
AcDbLine
10
168.89568729454581
20
934.02328897174937
30
0
11
168.89568729454578
21
922.82494065936612
31
0
0
LINE
5
340
100
AcDbEntity
8
0
100
AcDbLine
10
166.51443729454576
20
922.82494065936601
30
0
11
168.89568729454578
21
922.82494065936612
31
0
0
LINE
5
341
100
AcDbEntity
8
0
100
AcDbLine
10
166.51443729454576
20
914.08095309022326
30
0
11
166.51443729454576
21
922.82494065936601
31
0
0
LINE
5
342
100
AcDbEntity
8
0
100
AcDbLine
10
166.51443729454576
20
914.08095309022326
30
0
11
156.39443729454575
21
924.20095309022349
31
0
0
LINE
5
343
100
AcDbEntity
8
0
100
AcDbLine
10
156.39443729454581
20
934.20095309022349
30
0
11
156.39443729454592
21
970.17828383158667
31
0
0
LINE
5
344
100
AcDbEntity
8
0
100
AcDbLine
10
166.51443729454598
20
980.29828383158679
30
0
11
156.39443729454592
21
970.17828383158667
31
0
0
LINE
5
345
100
AcDbEntity
8
0
100
AcDbLine
10
166.51443729454598
20
980.29828383158679
30
0
11
166.51443729454593
21
971.55429626244381
31
0
0
LINE
5
346
100
AcDbEntity
8
0
100
AcDbLine
10
166.51443729454587
20
960.35594795006068
30
0
11
166.51443729454584
21
951.35594795006057
31
0
0
LINE
5
347
100
AcDbEntity
8
0
100
AcDbLine
10
156.39443729454575
20
924.20095309022349
30
0
11
156.39443729454581
21
933.20095309022349
31
0
0
LINE
5
348
100
AcDbEntity
8
0
100
AcDbLine
10
135.86583879266283
20
179.59552929854459
30
0
11
133.48458879266283
21
179.59552929854456
31
0
0
LINE
5
349
100
AcDbEntity
8
0
100
AcDbLine
10
133.48458879266289
20
169.59552929854456
30
0
11
133.484588792663
21
140.63119180096137
31
0
0
LINE
5
350
100
AcDbEntity
8
0
100
AcDbLine
10
135.865838792663
20
140.63119180096137
30
0
11
133.484588792663
21
140.63119180096137
31
0
0
LINE
5
351
100
AcDbEntity
8
0
100
AcDbLine
10
135.865838792663
20
140.63119180096137
30
0
11
135.86583879266306
21
126.50721807079826
31
0
0
LINE
5
352
100
AcDbEntity
8
0
100
AcDbLine
10
133.48458879266306
20
126.50721807079825
30
0
11
135.86583879266306
21
126.50721807079826
31
0
0
LINE
5
353
100
AcDbEntity
8
0
100
AcDbLine
10
133.48458879266315
20
116.01698154079213
30
0
11
133.48458879266306
21
126.50721807079825
31
0
0
LINE
5
354
100
AcDbEntity
8
0
100
AcDbLine
10
133.48458879266315
20
116.01698154079213
30
0
11
123.36458879266314
21
126.13698154079214
31
0
0
LINE
5
355
100
AcDbEntity
8
0
100
AcDbLine
10
123.36458879266308
20
136.13698154079214
30
0
11
123.36458879266281
21
194.08973955871375
31
0
0
LINE
5
356
100
AcDbEntity
8
0
100
AcDbLine
10
133.48458879266275
20
204.20973955871386
30
0
11
123.36458879266281
21
194.08973955871375
31
0
0
LINE
5
357
100
AcDbEntity
8
0
100
AcDbLine
10
133.48458879266275
20
204.20973955871386
30
0
11
133.48458879266278
21
193.71950302870772
31
0
0
LINE
5
358
100
AcDbEntity
8
0
100
AcDbLine
10
133.48458879266278
20
193.71950302870772
30
0
11
135.86583879266274
21
193.71950302870772
31
0
0
LINE
5
359
100
AcDbEntity
8
0
100
AcDbLine
10
135.86583879266283
20
179.59552929854459
30
0
11
135.86583879266274
21
193.71950302870772
31
0
0
LINE
5
360
100
AcDbEntity
8
0
100
AcDbLine
10
133.48458879266283
20
179.59552929854456
30
0
11
133.48458879266286
21
170.59552929854459
31
0
0
LINE
5
361
100
AcDbEntity
8
0
100
AcDbLine
10
123.36458879266314
20
126.13698154079214
30
0
11
123.3645887926631
21
135.13698154079214
31
0
0
LINE
5
362
100
AcDbEntity
8
0
100
AcDbLine
10
128.48222090086907
20
281.0332778617443
30
0
11
135.48222090087123
21
270.71481350860768
31
0
0
LINE
5
363
100
AcDbEntity
8
0
100
AcDbLine
10
135.48222090087123
20
260.71481350860768
30
0
11
135.48222090087123
21
213.75226726680637
31
0
0
LINE
5
364
100
AcDbEntity
8
0
100
AcDbLine
10
128.48222090086907
20
203.43380291366969
30
0
11
135.48222090087123
21
213.75226726680637
31
0
0
LINE
5
365
100
AcDbEntity
8
0
100
AcDbLine
10
128.48222090086909
20
203.29091825493148
30
0
11
128.48222090086907
21
203.43380291366969
31
0
0
SPLINE
5
366
100
AcDbEntity
8
0
100
AcDbSpline
70
0
71
3
72
14
73
10
74
0
42
0.000000001
43
0.0000000001
44
0.0000000001
40
-0.0061045749028810423
40
-0.0061045749028810423
40
-0.0061045749028810423
40
-0.0061045749028810423
40
0
40
0
40
0
40
0.061915324905967815
40
0.061915324905967815
40
0.061915324905967815
40
0.0677928310704424
40
0.0677928310704424
40
0.0677928310704424
40
0.0677928310704424
10
127.7434709008713
20
203.27658113472953
30
0
10
127.76381644658144
20
203.27693270300787
30
0
10
127.78416199229159
20
203.27728427128622
30
0
10
127.80450753800176
20
203.27763583956457
30
0
10
128.01094654188904
20
203.28120307763305
30
0
10
128.21728127309561
20
203.28520942337752
30
0
10
128.42351346100861
20
203.28965324641638
30
0
10
128.44308260762881
20
203.29007491592142
30
0
10
128.46265175424895
20
203.29049658542647
30
0
10
128.48222090086915
20
203.29091825493151
30
0
0
LINE
5
367
100
AcDbEntity
8
0
100
AcDbLine
10
127.7434709008713
20
203.27658113472953
30
0
11
127.74347090087119
21
212.96583409901032
31
0
0
LINE
5
368
100
AcDbEntity
8
0
100
AcDbLine
10
127.74347090087119
20
212.96583409901032
30
0
11
125.36222090087119
21
212.96583409901032
31
0
0
LINE
5
369
100
AcDbEntity
8
0
100
AcDbLine
10
125.36222090087119
20
225.71636329038157
30
0
11
125.36222090087119
21
212.96583409901032
31
0
0
LINE
5
370
100
AcDbEntity
8
0
100
AcDbLine
10
125.36222090087119
20
225.71636329038157
30
0
11
127.74347090087117
21
225.71636329038157
31
0
0
LINE
5
371
100
AcDbEntity
8
0
100
AcDbLine
10
127.74347090087117
20
248.7507174850324
30
0
11
127.74347090087117
21
225.71636329038157
31
0
0
LINE
5
372
100
AcDbEntity
8
0
100
AcDbLine
10
125.36222090087116
20
258.7507174850324
30
0
11
127.74347090087117
21
258.7507174850324
31
0
0
LINE
5
373
100
AcDbEntity
8
0
100
AcDbLine
10
125.36222090087116
20
258.7507174850324
30
0
11
125.36222090087116
21
271.50124667640364
31
0
0
LINE
5
374
100
AcDbEntity
8
0
100
AcDbLine
10
127.74347090087117
20
271.50124667640364
30
0
11
125.36222090087116
21
271.50124667640364
31
0
0
LINE
5
375
100
AcDbEntity
8
0
100
AcDbLine
10
127.7434709008713
20
281.19049964068444
30
0
11
127.74347090087117
21
271.50124667640364
31
0
0
SPLINE
5
376
100
AcDbEntity
8
0
100
AcDbSpline
70
0
71
3
72
14
73
10
74
0
42
0.000000001
43
0.0000000001
44
0.0000000001
40
-0.0061045749028769553
40
-0.0061045749028769553
40
-0.0061045749028769553
40
-0.0061045749028769553
40
0
40
0
40
0
40
0.061915324905967815
40
0.061915324905967815
40
0.061915324905967815
40
0.067792831070442802
40
0.067792831070442802
40
0.067792831070442802
40
0.067792831070442802
10
127.74347090087133
20
281.19049964068438
30
0
10
127.76381644658144
20
281.19014807240609
30
0
10
127.78416199229159
20
281.18979650412774
30
0
10
127.80450753800174
20
281.18944493584939
30
0
10
128.01094654188904
20
281.18587769778088
30
0
10
128.21728127309558
20
281.18187135203641
30
0
10
128.42351346100858
20
281.17742752899761
30
0
10
128.44308260762875
20
281.17700585949257
30
0
10
128.46265175424892
20
281.17658418998752
30
0
10
128.48222090086909
20
281.17616252048254
30
0
0
LINE
5
377
100
AcDbEntity
8
0
100
AcDbLine
10
128.48222090086909
20
281.17616252048254
30
0
11
128.48222090086907
21
281.0332778617443
31
0
0
LINE
5
378
100
AcDbEntity
8
0
100
AcDbLine
10
127.74347090087117
20
258.7507174850324
30
0
11
127.74347090087117
21
249.7507174850324
31
0
0
LINE
5
379
100
AcDbEntity
8
0
100
AcDbLine
10
135.48222090087123
20
270.71481350860768
30
0
11
135.48222090087123
21
261.71481350860768
31
0
0
LINE
5
380
100
AcDbEntity
8
0
100
AcDbLine
10
162.57088097018686
20
9.03185479225459
30
0
11
157.45200470491042
21
2.8151546528292504
31
0
0
LINE
5
381
100
AcDbEntity
8
0
100
AcDbLine
10
157.45200470491042
20
2.8151546528292504
30
0
11
152.42390633948588
21
6.6584167359010387
31
0
0
LINE
5
382
100
AcDbEntity
8
0
100
AcDbLine
10
152.53492381534267
20
16.657800472914754
30
0
11
153.30094439875432
21
85.653548258309385
31
0
0
LINE
5
383
100
AcDbEntity
8
0
100
AcDbLine
10
153.97541326795374
20
146.40320041664128
30
0
11
159.10212292664934
21
153.63930774495643
31
0
0
LINE
5
384
100
AcDbEntity
8
0
100
AcDbLine
10
159.10212292664934
20
153.63930774495643
30
0
11
164.13367647597767
21
149.79340466794955
31
0
0
LINE
5
385
100
AcDbEntity
8
0
100
AcDbLine
10
164.02265900012094
20
139.79402093093583
30
0
11
163.25663841670942
21
70.798273145541202
31
0
0
LINE
5
386
100
AcDbEntity
8
0
100
AcDbLine
10
164.13367647597767
20
149.79340466794955
30
0
11
164.03376074770659
21
140.79395930463721
31
0
0
LINE
5
387
100
AcDbEntity
8
0
100
AcDbLine
10
163.24553666912374
20
69.798334771839819
30
0
11
162.57088097018686
21
9.03185479225459
31
0
0
LINE
5
388
100
AcDbEntity
8
0
100
AcDbLine
10
152.42390633948588
20
6.6584167359010387
30
0
11
152.52382206775698
21
15.657862099213382
31
0
0
LINE
5
389
100
AcDbEntity
8
0
100
AcDbLine
10
153.31204614634001
20
86.653486632010782
30
0
11
153.97541326795374
21
146.40320041664128
31
0
0
LINE
5
390
100
AcDbEntity
8
0
100
AcDbLine
10
133.49880574187182
20
1033.1888598294872
30
0
11
133.49880574187196
21
1049.9144041868335
31
0
0
LINE
5
391
100
AcDbEntity
8
0
100
AcDbLine
10
133.49880574187196
20
1049.9144041868335
30
0
11
131.237555741872
21
1049.9963542338992
31
0
0
LINE
5
392
100
AcDbEntity
8
0
100
AcDbLine
10
131.23755574187197
20
1041.1206103484105
30
0
11
131.23755574187197
21
1033.2448664629219
31
0
0
LINE
5
393
100
AcDbEntity
8
0
100
AcDbLine
10
131.23755574187197
20
1033.2448664629219
30
0
11
133.49880574187182
21
1033.1888598294872
31
0
0
LINE
5
394
100
AcDbEntity
8
0
100
AcDbLine
10
131.237555741872
20
1049.9963542338992
30
0
11
131.23755574187197
21
1042.1206103484105
31
0
0
LINE
5
395
100
AcDbEntity
8
0
100
AcDbLine
10
125.94815071958003
20
1041.2819610966026
30
0
11
125.94815071957996
21
1033.3758744311569
31
0
0
LINE
5
396
100
AcDbEntity
8
0
100
AcDbLine
10
125.94815071957996
20
1033.3758744311569
30
0
11
128.20940071958006
21
1033.3198677977221
31
0
0
LINE
5
397
100
AcDbEntity
8
0
100
AcDbLine
10
128.20940071958006
20
1033.3198677977221
30
0
11
128.2094007195802
21
1050.1060977149828
31
0
0
LINE
5
398
100
AcDbEntity
8
0
100
AcDbLine
10
128.2094007195802
20
1050.1060977149828
30
0
11
125.9481507195801
21
1050.1880477620484
31
0
0
LINE
5
399
100
AcDbEntity
8
0
100
AcDbLine
10
125.9481507195801
20
1050.1880477620484
30
0
11
125.94815071958003
21
1042.2819610966026
31
0
0
LINE
5
400
100
AcDbEntity
8
0
100
AcDbLine
10
128.25784507384759
20
962.49916438069033
30
0
11
123.20940001806164
21
964.51854240300474
31
0
0
LINE
5
401
100
AcDbEntity
8
0
100
AcDbLine
10
123.20940001806167
20
974.51854240300474
30
0
11
123.20940001806193
21
1050.3857898350238
31
0
0
LINE
5
402
100
AcDbEntity
8
0
100
AcDbLine
10
128.25784507384788
20
1052.4051678573383
30
0
11
123.20940001806193
21
1050.3857898350238
31
0
0
LINE
5
403
100
AcDbEntity
8
0
100
AcDbLine
10
133.58040577010831
20
1052.405167857338
30
0
11
128.25784507384788
21
1052.4051678573383
31
0
0
LINE
5
404
100
AcDbEntity
8
0
100
AcDbLine
10
136.61880574187194
20
1049.8917812637453
30
0
11
133.58040577010831
21
1052.405167857338
31
0
0
LINE
5
405
100
AcDbEntity
8
0
100
AcDbLine
10
136.61880574187191
20
1039.8917812637453
30
0
11
136.61880574187177
21
965.01255097428316
31
0
0
LINE
5
406
100
AcDbEntity
8
0
100
AcDbLine
10
136.61880574187177
20
965.01255097428316
30
0
11
133.580405770108
21
962.49916438069033
31
0
0
LINE
5
407
100
AcDbEntity
8
0
100
AcDbLine
10
133.580405770108
20
962.49916438069033
30
0
11
128.25784507384759
21
962.49916438069033
31
0
0
LINE
5
408
100
AcDbEntity
8
0
100
AcDbLine
10
136.61880574187194
20
1049.8917812637453
30
0
11
136.61880574187191
21
1040.8917812637451
31
0
0
LINE
5
409
100
AcDbEntity
8
0
100
AcDbLine
10
123.20940001806164
20
964.51854240300474
30
0
11
123.20940001806167
21
973.51854240300486
31
0
0
LINE
5
410
100
AcDbEntity
8
0
100
AcDbLine
10
125.94815071957989
20
973.6223711414259
30
0
11
125.94815071957996
21
981.52845780687153
31
0
0
LINE
5
411
100
AcDbEntity
8
0
100
AcDbLine
10
125.94815071957996
20
981.52845780687153
30
0
11
128.20940071958006
21
981.58446444030631
31
0
0
LINE
5
412
100
AcDbEntity
8
0
100
AcDbLine
10
128.20940071958006
20
981.58446444030631
30
0
11
128.20940071958003
21
964.79823452304583
31
0
0
LINE
5
413
100
AcDbEntity
8
0
100
AcDbLine
10
128.20940071958003
20
964.79823452304583
30
0
11
125.94815071957981
21
964.71628447598005
31
0
0
LINE
5
414
100
AcDbEntity
8
0
100
AcDbLine
10
125.94815071957981
20
964.71628447598005
30
0
11
125.94815071957989
21
972.6223711414259
31
0
0
LINE
5
415
100
AcDbEntity
8
0
100
AcDbLine
10
133.49880574187179
20
964.98992805119497
30
0
11
131.23755574187172
21
964.90797800412918
31
0
0
LINE
5
416
100
AcDbEntity
8
0
100
AcDbLine
10
131.23755574187174
20
973.78372188961794
30
0
11
131.23755574187174
21
981.65946577510658
31
0
0
LINE
5
417
100
AcDbEntity
8
0
100
AcDbLine
10
131.23755574187174
20
981.65946577510658
30
0
11
133.49880574187182
21
981.71547240854125
31
0
0
LINE
5
418
100
AcDbEntity
8
0
100
AcDbLine
10
133.49880574187182
20
981.71547240854125
30
0
11
133.49880574187179
21
964.98992805119497
31
0
0
LINE
5
419
100
AcDbEntity
8
0
100
AcDbLine
10
131.23755574187172
20
964.90797800412918
30
0
11
131.23755574187174
21
972.78372188961794
31
0
0
LINE
5
420
100
AcDbEntity
8
0
100
AcDbLine
10
118.49938852494502
20
964.58575010338689
30
0
11
118.31192985590405
21
964.58575010338689
31
0
0
LINE
5
421
100
AcDbEntity
8
0
100
AcDbLine
10
118.3119298559039
20
859.22825010338693
30
0
11
118.311929855904
21
928.22825010338704
31
0
0
LINE
5
422
100
AcDbEntity
8
0
100
AcDbLine
10
118.31192985590388
20
849.22825010338693
30
0
11
118.49938852494502
21
849.22825010338693
31
0
0
LINE
5
423
100
AcDbEntity
8
0
100
AcDbLine
10
128.53453571120258
20
859.26339728964444
30
0
11
118.49938852494502
21
849.22825010338693
31
0
0
LINE
5
424
100
AcDbEntity
8
0
100
AcDbLine
10
128.53453571120266
20
944.55060291712937
30
0
11
128.53453571120261
21
875.55060291712937
31
0
0
LINE
5
425
100
AcDbEntity
8
0
100
AcDbLine
10
118.49938852494502
20
964.58575010338689
30
0
11
128.53453571120266
21
954.55060291712937
31
0
0
LINE
5
426
100
AcDbEntity
8
0
100
AcDbLine
10
128.53453571120266
20
954.55060291712937
30
0
11
128.53453571120266
21
945.55060291712937
31
0
0
LINE
5
427
100
AcDbEntity
8
0
100
AcDbLine
10
128.53453571120261
20
874.55060291712937
30
0
11
128.53453571120258
21
859.26339728964444
31
0
0
LINE
5
428
100
AcDbEntity
8
0
100
AcDbLine
10
118.31192985590388
20
849.22825010338693
30
0
11
118.3119298559039
21
858.22825010338704
31
0
0
LINE
5
429
100
AcDbEntity
8
0
100
AcDbLine
10
118.311929855904
20
929.22825010338693
30
0
11
118.31192985590405
21
964.58575010338689
31
0
0
LINE
5
430
100
AcDbEntity
8
0
100
AcDbLine
10
141.67329602984017
20
292.32775652839064
30
0
11
139.29204602984018
21
292.32775652839064
31
0
0
LINE
5
431
100
AcDbEntity
8
0
100
AcDbLine
10
139.29204602984012
20
276.70896712350964
30
0
11
139.29204602984018
21
292.32775652839064
31
0
0
LINE
5
432
100
AcDbEntity
8
0
100
AcDbLine
10
139.29204602984012
20
276.70896712350964
30
0
11
141.67329602984015
21
276.70896712350964
31
0
0
LINE
5
433
100
AcDbEntity
8
0
100
AcDbLine
10
141.67329602984012
20
266.70896712350964
30
0
11
141.67329602984003
21
231.29061438055294
31
0
0
LINE
5
434
100
AcDbEntity
8
0
100
AcDbLine
10
139.29204602984004
20
231.29061438055294
30
0
11
141.67329602984003
21
231.29061438055294
31
0
0
LINE
5
435
100
AcDbEntity
8
0
100
AcDbLine
10
139.29204602984004
20
231.29061438055294
30
0
11
139.29204602983998
21
215.67182497567194
31
0
0
LINE
5
436
100
AcDbEntity
8
0
100
AcDbLine
10
141.67329602984
20
215.671824975672
30
0
11
139.29204602983998
21
215.67182497567194
31
0
0
LINE
5
437
100
AcDbEntity
8
0
100
AcDbLine
10
141.67329602984006
20
204.2706832770628
30
0
11
141.67329602984
21
215.671824975672
31
0
0
SPLINE
5
438
100
AcDbEntity
8
0
100
AcDbSpline
70
0
71
3
72
14
73
10
74
0
42
0.000000001
43
0.0000000001
44
0.0000000001
40
-0.0060925698197033286
40
-0.0060925698197033286
40
-0.0060925698197033286
40
-0.0060925698197033286
40
0
40
0
40
0
40
0.061915130150935138
40
0.061915130150935138
40
0.061915130150935138
40
0.06780466826983915
40
0.06780466826983915
40
0.06780466826983915
40
0.06780466826983915
10
141.67329602983995
20
204.2706832770628
30
0
10
141.69360221585919
20
204.27099418701275
30
0
10
141.71390840187837
20
204.27130509696269
30
0
10
141.73421458789758
20
204.27161600691267
30
0
10
141.94065932796107
20
204.27477690200848
30
0
10
142.14699375940748
20
204.27837578294699
30
0
10
142.35321989987261
20
204.28241126680211
30
0
10
142.37282860986045
20
204.28279497486355
30
0
10
142.39243731984826
20
204.28317868292498
30
0
10
142.41204602983606
20
204.28356239098639
30
0
0
LINE
5
439
100
AcDbEntity
8
0
100
AcDbLine
10
142.41204602983606
20
204.28356239098645
30
0
11
142.41204602983606
21
204.42658935153094
31
0
0
LINE
5
440
100
AcDbEntity
8
0
100
AcDbLine
10
142.41204602983606
20
204.42658935153094
30
0
11
149.41204602983788
21
214.73184537506762
31
0
0
LINE
5
441
100
AcDbEntity
8
0
100
AcDbLine
10
149.41204602983805
20
283.26773612899495
30
0
11
149.41204602983788
21
214.73184537506762
31
0
0
LINE
5
442
100
AcDbEntity
8
0
100
AcDbLine
10
142.41204602983632
20
303.5729921525317
30
0
11
149.41204602983805
21
293.26773612899495
31
0
0
LINE
5
443
100
AcDbEntity
8
0
100
AcDbLine
10
142.41204602983635
20
303.71601911307619
30
0
11
142.41204602983632
21
303.5729921525317
31
0
0
SPLINE
5
444
100
AcDbEntity
8
0
100
AcDbSpline
70
0
71
3
72
14
73
10
74
0
42
0.000000001
43
0.0000000001
44
0.0000000001
40
-0.0060925698197155931
40
-0.0060925698197155931
40
-0.0060925698197155931
40
-0.0060925698197155931
40
0
40
0
40
0
40
0.061915130150935138
40
0.061915130150935138
40
0.061915130150935138
40
0.067804668269844326
40
0.067804668269844326
40
0.067804668269844326
40
0.067804668269844326
10
141.67329602984009
20
303.72889822699989
30
0
10
141.69360221585936
20
303.72858731704991
30
0
10
141.7139084018786
20
303.72827640709994
30
0
10
141.73421458789787
20
303.72796549714997
30
0
10
141.94065932796133
20
303.72480460205412
30
0
10
142.14699375940774
20
303.72120572111561
30
0
10
142.35321989987287
20
303.71717023726052
30
0
10
142.37282860986068
20
303.71678652919906
30
0
10
142.39243731984851
20
303.71640282113759
30
0
10
142.41204602983632
20
303.71601911307619
30
0
0
LINE
5
445
100
AcDbEntity
8
0
100
AcDbLine
10
141.67329602984009
20
303.72889822699989
30
0
11
141.67329602984017
21
292.32775652839064
31
0
0
LINE
5
446
100
AcDbEntity
8
0
100
AcDbLine
10
149.41204602983805
20
293.26773612899495
30
0
11
149.41204602983805
21
284.26773612899501
31
0
0
LINE
5
447
100
AcDbEntity
8
0
100
AcDbLine
10
141.67329602984015
20
276.70896712350964
30
0
11
141.67329602984012
21
267.70896712350969
31
0
0
LINE
5
448
100
AcDbEntity
8
0
100
AcDbLine
10
157.79894799838121
20
507.70482275906659
30
0
11
153.717137298523
21
509.80470204337269
31
0
0
LINE
5
449
100
AcDbEntity
8
0
100
AcDbLine
10
153.74727683024452
20
519.80465662370091
30
0
11
153.92977810038002
21
580.35650690028149
31
0
0
LINE
5
450
100
AcDbEntity
8
0
100
AcDbLine
10
153.92977810038002
20
580.35650690028149
30
0
11
157.98734184824031
21
587.58729206198996
31
0
0
LINE
5
451
100
AcDbEntity
8
0
100
AcDbLine
10
157.98734184824031
20
587.58729206198996
30
0
11
162.06528535779381
21
585.48940224593809
31
0
0
LINE
5
452
100
AcDbEntity
8
0
100
AcDbLine
10
162.03514582607286
20
575.48944766560987
30
0
11
161.85689785393106
21
516.3487933927853
31
0
0
LINE
5
453
100
AcDbEntity
8
0
100
AcDbLine
10
161.85689785393106
20
516.3487933927853
30
0
11
157.79894799838121
21
507.70482275906659
31
0
0
LINE
5
454
100
AcDbEntity
8
0
100
AcDbLine
10
162.06528535779381
20
585.48940224593809
30
0
11
162.03815977924495
21
576.48944312364267
31
0
0
LINE
5
455
100
AcDbEntity
8
0
100
AcDbLine
10
153.717137298523
20
509.80470204337269
30
0
11
153.74426287707234
21
518.80466116566811
31
0
0
LINE
5
456
100
AcDbEntity
8
0
100
AcDbLine
10
116.03329670866698
20
834.17020160688151
30
0
11
116.03329670866692
21
798.19287086551822
31
0
0
LINE
5
457
100
AcDbEntity
8
0
100
AcDbLine
10
116.03329670866692
20
798.19287086551822
30
0
11
126.15329670866687
21
788.07287086551821
31
0
0
LINE
5
458
100
AcDbEntity
8
0
100
AcDbLine
10
126.15329670866689
20
796.81685843466096
30
0
11
126.15329670866687
21
788.07287086551821
31
0
0
LINE
5
459
100
AcDbEntity
8
0
100
AcDbLine
10
128.53454670866688
20
796.81685843466096
30
0
11
126.15329670866689
21
796.81685843466096
31
0
0
LINE
5
460
100
AcDbEntity
8
0
100
AcDbLine
10
128.53454670866688
20
796.81685843466096
30
0
11
128.53454670866691
21
808.0152067470442
31
0
0
LINE
5
461
100
AcDbEntity
8
0
100
AcDbLine
10
126.15329670866691
20
808.0152067470442
30
0
11
128.53454670866691
21
808.0152067470442
31
0
0
LINE
5
462
100
AcDbEntity
8
0
100
AcDbLine
10
126.15329670866693
20
818.0152067470442
30
0
11
126.15329670866697
21
834.34786572535563
31
0
0
LINE
5
463
100
AcDbEntity
8
0
100
AcDbLine
10
126.15329670866697
20
834.34786572535563
30
0
11
128.53454670866697
21
834.34786572535563
31
0
0
LINE
5
464
100
AcDbEntity
8
0
100
AcDbLine
10
128.53454670866699
20
845.54621403773899
30
0
11
128.53454670866697
21
834.34786572535563
31
0
0
LINE
5
465
100
AcDbEntity
8
0
100
AcDbLine
10
128.53454670866699
20
845.54621403773899
30
0
11
126.153296708667
21
845.54621403773899
31
0
0
LINE
5
466
100
AcDbEntity
8
0
100
AcDbLine
10
126.153296708667
20
845.54621403773899
30
0
11
126.15329670866703
21
854.29020160688151
31
0
0
LINE
5
467
100
AcDbEntity
8
0
100
AcDbLine
10
116.033296708667
20
844.17020160688151
30
0
11
126.15329670866703
21
854.29020160688151
31
0
0
LINE
5
468
100
AcDbEntity
8
0
100
AcDbLine
10
126.15329670866691
20
808.0152067470442
30
0
11
126.15329670866693
21
817.0152067470442
31
0
0
LINE
5
469
100
AcDbEntity
8
0
100
AcDbLine
10
116.033296708667
20
844.17020160688151
30
0
11
116.03329670866698
21
835.17020160688151
31
0
0
LINE
5
470
100
AcDbEntity
8
0
100
AcDbLine
10
150.96937244031631
20
468.00875243285338
30
0
11
150.3922264540812
21
399.01116622499705
31
0
0
LINE
5
471
100
AcDbEntity
8
0
100
AcDbLine
10
150.09262398460774
20
363.19380335909284
30
0
11
144.97627471394134
21
353.54066439948008
31
0
0
LINE
5
472
100
AcDbEntity
8
0
100
AcDbLine
10
144.97627471394134
20
353.54066439948008
30
0
11
140.91119088344612
21
355.8876416432949
31
0
0
LINE
5
473
100
AcDbEntity
8
0
100
AcDbLine
10
140.99483522927738
20
365.88729181834651
30
0
11
141.57198121551303
21
434.8848780262029
31
0
0
LINE
5
474
100
AcDbEntity
8
0
100
AcDbLine
10
141.90247445569253
20
474.39522094503502
30
0
11
145.99647058592342
21
480.92780091777394
31
0
0
LINE
5
475
100
AcDbEntity
8
0
100
AcDbLine
10
145.99647058592342
20
480.92780091777394
30
0
11
151.05301678614748
21
478.00840260790505
31
0
0
LINE
5
476
100
AcDbEntity
8
0
100
AcDbLine
10
151.05301678614748
20
478.00840260790505
30
0
11
150.97773687489945
21
469.00871745035857
31
0
0
LINE
5
477
100
AcDbEntity
8
0
100
AcDbLine
10
150.38386201949808
20
398.01120120749192
30
0
11
150.09262398460774
21
363.19380335909284
31
0
0
LINE
5
478
100
AcDbEntity
8
0
100
AcDbLine
10
140.91119088344612
20
355.8876416432949
30
0
11
140.98647079469424
21
364.88732680084138
31
0
0
LINE
5
479
100
AcDbEntity
8
0
100
AcDbLine
10
141.58034565009615
20
435.88484304370809
30
0
11
141.90247445569253
21
474.39522094503502
31
0
0
LINE
5
480
100
AcDbEntity
8
0
100
AcDbLine
10
192.07468408482723
20
14.518850409116375
30
0
11
189.81343408482729
21
14.436900362050471
31
0
0
LINE
5
481
100
AcDbEntity
8
0
100
AcDbLine
10
189.81343408482732
20
19.672492076657434
30
0
11
189.81343408482732
21
23.908083791264396
31
0
0
LINE
5
482
100
AcDbEntity
8
0
100
AcDbLine
10
189.81343408482732
20
23.908083791264396
30
0
11
192.07468408482725
21
23.964090424699101
31
0
0
LINE
5
483
100
AcDbEntity
8
0
100
AcDbLine
10
192.07468408482725
20
23.964090424699101
30
0
11
192.07468408482723
21
14.518850409116375
31
0
0
LINE
5
484
100
AcDbEntity
8
0
100
AcDbLine
10
189.81343408482729
20
14.436900362050471
30
0
11
189.81343408482729
21
18.672492076657431
31
0
0
LINE
5
485
100
AcDbEntity
8
0
100
AcDbLine
10
189.81343408482732
20
49.295638608433528
30
0
11
189.81343408482732
21
53.531230323040482
31
0
0
LINE
5
486
100
AcDbEntity
8
0
100
AcDbLine
10
189.81343408482732
20
53.531230323040482
30
0
11
192.07468408482725
21
53.44928027597458
31
0
0
LINE
5
487
100
AcDbEntity
8
0
100
AcDbLine
10
192.07468408482725
20
53.44928027597458
30
0
11
192.07468408482723
21
44.004040260391868
31
0
0
LINE
5
488
100
AcDbEntity
8
0
100
AcDbLine
10
192.07468408482723
20
44.004040260391868
30
0
11
189.81343408482729
21
44.060046893826566
31
0
0
LINE
5
489
100
AcDbEntity
8
0
100
AcDbLine
10
189.81343408482729
20
44.060046893826566
30
0
11
189.81343408482729
21
48.295638608433535
31
0
0
LINE
5
490
100
AcDbEntity
8
0
100
AcDbLine
10
192.14543126294555
20
55.572930174932907
30
0
11
195.19468367318808
21
53.429587162450375
31
0
0
LINE
5
491
100
AcDbEntity
8
0
100
AcDbLine
10
195.19468367318808
20
43.429587162450375
30
0
11
195.19468367318808
21
14.538543522640577
31
0
0
LINE
5
492
100
AcDbEntity
8
0
100
AcDbLine
10
192.14543126294527
20
12.395200510158052
30
0
11
195.19468367318808
21
14.538543522640577
31
0
0
LINE
5
493
100
AcDbEntity
8
0
100
AcDbLine
10
186.07468367318802
20
14.198772846287939
30
0
11
192.14543126294527
21
12.395200510158052
31
0
0
LINE
5
494
100
AcDbEntity
8
0
100
AcDbLine
10
186.07468367318802
20
43.769357838803025
30
0
11
186.07468367318802
21
14.198772846287939
31
0
0
LINE
5
495
100
AcDbEntity
8
0
100
AcDbLine
10
186.07468367318802
20
53.769357838803025
30
0
11
192.14543126294555
21
55.572930174932907
31
0
0
LINE
5
496
100
AcDbEntity
8
0
100
AcDbLine
10
186.07468367318802
20
53.769357838803025
30
0
11
186.07468367318802
21
44.769357838803018
31
0
0
LINE
5
497
100
AcDbEntity
8
0
100
AcDbLine
10
195.19468367318808
20
53.429587162450375
30
0
11
195.19468367318808
21
44.429587162450375
31
0
0
LINE
5
498
100
AcDbEntity
8
0
100
AcDbLine
10
121.90747938954871
20
123.29425089798072
30
0
11
121.73164697611718
21
123.29425089798067
31
0
0
LINE
5
499
100
AcDbEntity
8
0
100
AcDbLine
10
121.73164697611712
20
17.936750897980687
30
0
11
121.73164697611716
21
86.936750897980687
31
0
0
LINE
5
500
100
AcDbEntity
8
0
100
AcDbLine
10
121.73164697611712
20
7.9367508979806871
30
0
11
121.90747938954884
21
7.9367508979806933
31
0
0
LINE
5
501
100
AcDbEntity
8
0
100
AcDbLine
10
131.94262657580646
20
17.971898084238287
30
0
11
121.90747938954884
21
7.9367508979806933
31
0
0
LINE
5
502
100
AcDbEntity
8
0
100
AcDbLine
10
131.94262657580643
20
103.25910371172306
30
0
11
131.94262657580646
21
34.259103711723057
31
0
0
LINE
5
503
100
AcDbEntity
8
0
100
AcDbLine
10
121.90747938954871
20
123.29425089798072
30
0
11
131.94262657580643
21
113.25910371172306
31
0
0
LINE
5
504
100
AcDbEntity
8
0
100
AcDbLine
10
131.94262657580643
20
113.25910371172306
30
0
11
131.94262657580643
21
104.25910371172306
31
0
0
LINE
5
505
100
AcDbEntity
8
0
100
AcDbLine
10
131.94262657580646
20
33.259103711723057
30
0
11
131.94262657580646
21
17.971898084238287
31
0
0
LINE
5
506
100
AcDbEntity
8
0
100
AcDbLine
10
121.73164697611712
20
7.9367508979806871
30
0
11
121.73164697611712
21
16.936750897980687
31
0
0
LINE
5
507
100
AcDbEntity
8
0
100
AcDbLine
10
121.73164697611716
20
87.936750897980687
30
0
11
121.73164697611718
21
123.29425089798067
31
0
0
LINE
5
508
100
AcDbEntity
8
0
100
AcDbLine
10
148.8742184576347
20
165.45241449177141
30
0
11
148.87421845763458
21
124.10407844588201
31
0
0
LINE
5
509
100
AcDbEntity
8
0
100
AcDbLine
10
151.25546845763461
20
124.104078445882
30
0
11
148.87421845763458
21
124.10407844588201
31
0
0
LINE
5
510
100
AcDbEntity
8
0
100
AcDbLine
10
151.25546845763461
20
124.104078445882
30
0
11
151.25546845763455
21
107.11184450220901
31
0
0
LINE
5
511
100
AcDbEntity
8
0
100
AcDbLine
10
148.87421845763453
20
107.11184450220901
30
0
11
151.25546845763455
21
107.11184450220901
31
0
0
LINE
5
512
100
AcDbEntity
8
0
100
AcDbLine
10
148.87421845763453
20
95.022763727833848
30
0
11
148.87421845763453
21
107.11184450220901
31
0
0
LINE
5
513
100
AcDbEntity
8
0
100
AcDbLine
10
148.87421845763453
20
95.022763727833848
30
0
11
138.75421845763452
21
105.14276372783397
31
0
0
LINE
5
514
100
AcDbEntity
8
0
100
AcDbLine
10
138.75421845763455
20
115.14276372783397
30
0
11
138.75421845763475
21
194.41372920981939
31
0
0
LINE
5
515
100
AcDbEntity
8
0
100
AcDbLine
10
148.87421845763484
20
204.53372920981957
30
0
11
138.75421845763475
21
194.41372920981939
31
0
0
LINE
5
516
100
AcDbEntity
8
0
100
AcDbLine
10
148.87421845763484
20
204.53372920981957
30
0
11
148.87421845763475
21
192.44464843544438
31
0
0
LINE
5
517
100
AcDbEntity
8
0
100
AcDbLine
10
148.87421845763475
20
192.44464843544438
30
0
11
151.25546845763478
21
192.44464843544438
31
0
0
LINE
5
518
100
AcDbEntity
8
0
100
AcDbLine
10
151.25546845763472
20
175.45241449177141
30
0
11
151.25546845763478
21
192.44464843544438
31
0
0
LINE
5
519
100
AcDbEntity
8
0
100
AcDbLine
10
151.25546845763472
20
175.45241449177141
30
0
11
148.87421845763473
21
175.45241449177141
31
0
0
LINE
5
520
100
AcDbEntity
8
0
100
AcDbLine
10
138.75421845763452
20
105.14276372783397
30
0
11
138.75421845763452
21
114.14276372783397
31
0
0
LINE
5
521
100
AcDbEntity
8
0
100
AcDbLine
10
148.87421845763473
20
175.45241449177141
30
0
11
148.87421845763473
21
166.45241449177144
31
0
0
SPLINE
5
522
100
AcDbEntity
8
0
100
AcDbSpline
70
0
71
3
72
14
73
10
74
0
42
0.000000001
43
0.0000000001
44
0.0000000001
40
-0.0060928856697336498
40
-0.0060928856697336498
40
-0.0060928856697336498
40
-0.0060928856697336498
40
0
40
0
40
0
40
0.061910025955862341
40
0.061910025955862341
40
0.061910025955862341
40
0.067798219651608913
40
0.067798219651608913
40
0.067798219651608913
40
0.067798219651608913
10
128.59069416960824
20
724.98149839762573
30
0
10
128.61100139219357
20
724.98181037630707
30
0
10
128.63130861477887
20
724.98212235498829
30
0
10
128.6516158373642
20
724.98243433366952
30
0
10
128.85804367317297
20
724.98560567252275
30
0
10
129.06437841030782
20
724.98921662398152
30
0
10
129.27062174869269
20
724.99326520116495
30
0
10
129.29022922233045
20
724.99365009781684
30
0
10
129.30983669596822
20
724.99403499446862
30
0
10
129.32944416960606
20
724.99441989112029
30
0
0
LINE
5
523
100
AcDbEntity
8
0
100
AcDbLine
10
129.32944416960606
20
724.99441989112017
30
0
11
129.32944416960589
21
725.13737444642288
31
0
0
LINE
5
524
100
AcDbEntity
8
0
100
AcDbLine
10
129.32944416960589
20
725.13737444642288
30
0
11
136.32944416960825
21
735.44133023907125
31
0
0
LINE
5
525
100
AcDbEntity
8
0
100
AcDbLine
10
136.32944416960828
20
771.14415434270359
30
0
11
136.32944416960825
21
735.44133023907125
31
0
0
LINE
5
526
100
AcDbEntity
8
0
100
AcDbLine
10
129.32944416960601
20
791.44811013535195
30
0
11
136.32944416960831
21
781.14415434270359
31
0
0
LINE
5
527
100
AcDbEntity
8
0
100
AcDbLine
10
129.32944416960598
20
791.59106469065432
30
0
11
129.32944416960601
21
791.44811013535195
31
0
0
SPLINE
5
528
100
AcDbEntity
8
0
100
AcDbSpline
70
0
71
3
72
14
73
10
74
0
42
0.000000001
43
0.0000000001
44
0.0000000001
40
-0.0060928856697516041
40
-0.0060928856697516041
40
-0.0060928856697516041
40
-0.0060928856697516041
40
0
40
0
40
0
40
0.061910025955862341
40
0.061910025955862341
40
0.061910025955862341
40
0.067798219651602334
40
0.067798219651602334
40
0.067798219651602334
40
0.067798219651602334
10
128.59069416960818
20
791.60398618414888
30
0
10
128.6110013921936
20
791.60367420546766
30
0
10
128.63130861477896
20
791.60336222678643
30
0
10
128.65161583736435
20
791.60305024810509
30
0
10
128.85804367317311
20
791.59987890925197
30
0
10
129.06437841030794
20
791.5962679577932
30
0
10
129.2706217486928
20
791.59221938060966
30
0
10
129.29022922233054
20
791.59183448395788
30
0
10
129.30983669596824
20
791.59144958730622
30
0
10
129.32944416960595
20
791.59106469065432
30
0
0
LINE
5
529
100
AcDbEntity
8
0
100
AcDbLine
10
128.59069416960818
20
791.60398618414888
30
0
11
128.59069416960833
21
782.81209050102598
31
0
0
LINE
5
530
100
AcDbEntity
8
0
100
AcDbLine
10
128.59069416960833
20
782.81209050102598
30
0
11
126.20944416960832
21
782.81209050102586
31
0
0
LINE
5
531
100
AcDbEntity
8
0
100
AcDbLine
10
126.20944416960828
20
771.56477725780405
30
0
11
126.20944416960832
21
782.81209050102586
31
0
0
LINE
5
532
100
AcDbEntity
8
0
100
AcDbLine
10
126.20944416960828
20
771.56477725780405
30
0
11
128.5906941696083
21
771.56477725780405
31
0
0
LINE
5
533
100
AcDbEntity
8
0
100
AcDbLine
10
128.59069416960827
20
761.56477725780405
30
0
11
128.59069416960824
21
745.02070732397078
31
0
0
LINE
5
534
100
AcDbEntity
8
0
100
AcDbLine
10
126.20944416960825
20
745.02070732397056
30
0
11
128.59069416960824
21
745.02070732397078
31
0
0
LINE
5
535
100
AcDbEntity
8
0
100
AcDbLine
10
126.20944416960825
20
745.02070732397056
30
0
11
126.20944416960823
21
733.77339408074863
31
0
0
LINE
5
536
100
AcDbEntity
8
0
100
AcDbLine
10
128.59069416960821
20
733.77339408074874
30
0
11
126.20944416960823
21
733.77339408074863
31
0
0
LINE
5
537
100
AcDbEntity
8
0
100
AcDbLine
10
128.59069416960824
20
724.98149839762573
30
0
11
128.59069416960821
21
733.77339408074874
31
0
0
LINE
5
538
100
AcDbEntity
8
0
100
AcDbLine
10
136.32944416960831
20
781.14415434270359
30
0
11
136.32944416960828
21
772.14415434270347
31
0
0
LINE
5
539
100
AcDbEntity
8
0
100
AcDbLine
10
128.5906941696083
20
771.56477725780405
30
0
11
128.59069416960827
21
762.56477725780405
31
0
0
LINE
5
540
100
AcDbEntity
8
0
100
AcDbLine
10
188.4784000740737
20
796.17011456199066
30
0
11
186.51425267380961
21
789.26449052101373
31
0
0
LINE
5
541
100
AcDbEntity
8
0
100
AcDbLine
10
185.26942661556302
20
676.87587935345528
30
0
11
186.03362975810148
21
745.87164729292351
31
0
0
LINE
5
542
100
AcDbEntity
8
0
100
AcDbLine
10
185.15867253693426
20
666.87649269556141
30
0
11
187.11716133058843
21
663.78963915130942
31
0
0
LINE
5
543
100
AcDbEntity
8
0
100
AcDbLine
10
187.11716133058843
20
663.78963915130942
30
0
11
185.05923439663118
21
657.89876089784707
31
0
0
LINE
5
544
100
AcDbEntity
8
0
100
AcDbLine
10
183.94271255411709
20
557.09404333340342
30
0
11
184.70691569665553
21
626.08981127287154
31
0
0
LINE
5
545
100
AcDbEntity
8
0
100
AcDbLine
10
183.83195847548834
20
547.09465667550955
30
0
11
185.79647348889705
21
543.99830496212405
31
0
0
LINE
5
546
100
AcDbEntity
8
0
100
AcDbLine
10
185.79647348889705
20
543.99830496212405
30
0
11
185.73817928380879
21
538.73523651527012
31
0
0
LINE
5
547
100
AcDbEntity
8
0
100
AcDbLine
10
185.73817928380879
20
538.73523651527012
30
0
11
183.68500284025902
21
533.82682729705766
31
0
0
LINE
5
548
100
AcDbEntity
8
0
100
AcDbLine
10
182.49875692365379
20
426.72710024102031
30
0
11
183.26296006619228
21
495.72286818048838
31
0
0
LINE
5
549
100
AcDbEntity
8
0
100
AcDbLine
10
182.38800284502503
20
416.72771358312639
30
0
11
184.34528167722615
21
413.64276710814687
31
0
0
LINE
5
550
100
AcDbEntity
8
0
100
AcDbLine
10
184.34528167722615
20
413.64276710814687
30
0
11
182.29966799430443
21
408.75243774083981
31
0
0
LINE
5
551
100
AcDbEntity
8
0
100
AcDbLine
10
181.17201416120054
20
306.94267296227247
30
0
11
181.93621730373906
21
375.93844090174053
31
0
0
LINE
5
552
100
AcDbEntity
8
0
100
AcDbLine
10
181.06126008257178
20
296.94328630437849
30
0
11
183.39752459129105
21
293.83027834820194
31
0
0
LINE
5
553
100
AcDbEntity
8
0
100
AcDbLine
10
183.39752459129105
20
293.83027834820194
30
0
11
183.14899233028154
21
288.57990658265925
31
0
0
LINE
5
554
100
AcDbEntity
8
0
100
AcDbLine
10
183.14899233028154
20
288.57990658265925
30
0
11
180.91434409094279
21
283.67903613215179
31
0
0
LINE
5
555
100
AcDbEntity
8
0
100
AcDbLine
10
179.68701670725491
20
172.87028563500093
30
0
11
180.4512198497934
21
241.86605357446905
31
0
0
LINE
5
556
100
AcDbEntity
8
0
100
AcDbLine
10
179.57626262862615
20
162.870898977107
30
0
11
181.37891803280752
21
158.7943183765037
31
0
0
LINE
5
557
100
AcDbEntity
8
0
100
AcDbLine
10
181.37891803280752
20
158.7943183765037
30
0
11
179.4878826367335
21
154.89255860303911
31
0
0
ARC
5
558
100
AcDbEntity
8
0
100
AcDbCircle
10
-12599.029181934515
20
285.76278225341025
30
0
40
12779.18719578741
210
0
220
0
230
1
100
AcDbArc
50
359.31760913013545
51
359.41323008767239
0
LINE
5
559
100
AcDbEntity
8
0
100
AcDbLine
10
179.25167780665561
20
133.56667668772627
30
0
11
181.00992761421287
21
128.4866516691705
31
0
0
LINE
5
560
100
AcDbEntity
8
0
100
AcDbLine
10
181.00992761421287
20
128.4866516691705
30
0
11
179.12999173233598
21
122.57951376205111
31
0
0
LINE
5
561
100
AcDbEntity
8
0
100
AcDbLine
10
178.13729438076169
20
32.954239681351019
30
0
11
178.90149752330018
21
101.95000762081912
31
0
0
LINE
5
562
100
AcDbEntity
8
0
100
AcDbLine
10
178.02654030213293
20
22.95485302345709
30
0
11
182.31190460388828
21
28.58524584649772
31
0
0
LINE
5
563
100
AcDbEntity
8
0
100
AcDbLine
10
182.52688897171601
20
38.582934665499323
30
0
11
184.78174909298752
21
143.44353476694869
31
0
0
LINE
5
564
100
AcDbEntity
8
0
100
AcDbLine
10
186.72954780950198
20
153.25200458440466
30
0
11
189.73121758117372
21
168.36742031385791
31
0
0
ARC
5
565
100
AcDbEntity
8
0
100
AcDbCircle
10
-9806.4303415996364
20
383.32419739380816
30
0
40
9998.4725000000235
210
0
220
0
230
1
100
AcDbArc
50
358.76810532166098
51
358.81860550106376
0
LINE
5
566
100
AcDbEntity
8
0
100
AcDbLine
10
189.91679646767682
20
177.17806352232947
30
0
11
191.50308541072718
21
177.10297474857208
31
0
0
ARC
5
567
100
AcDbEntity
8
0
100
AcDbCircle
10
-9806.4303416455441
20
383.32419739433703
30
0
40
10000.060000045934
210
0
220
0
230
1
100
AcDbArc
50
359.27672624293876
51
359.75715854931423
0
LINE
5
568
100
AcDbEntity
8
0
100
AcDbLine
10
194.08738074464048
20
470.12604941061579
30
0
11
193.79493320186842
21
401.12666916387212
31
0
0
LINE
5
569
100
AcDbEntity
8
0
100
AcDbLine
10
196.50325175014865
20
1040.120929709803
30
0
11
194.91576600896389
21
1040.1276581224718
31
0
0
LINE
5
570
100
AcDbEntity
8
0
100
AcDbLine
10
194.95814971081461
20
1050.1275683031593
30
0
11
195.02121665916857
21
1065.0074346520223
31
0
0
LINE
5
571
100
AcDbEntity
8
0
100
AcDbLine
10
195.02121665916857
20
1065.0074346520223
30
0
11
196.60870240035405
21
1065.0007062393533
31
0
0
LINE
5
572
100
AcDbEntity
8
0
100
AcDbLine
10
196.71775505499923
20
1090.7303311609874
30
0
11
196.60870240035405
21
1065.0007062393533
31
0
0
LINE
5
573
100
AcDbEntity
8
0
100
AcDbLine
10
196.71775505499923
20
1090.7303311609874
30
0
11
195.13026931381313
21
1090.7370595736561
31
0
0
LINE
5
574
100
AcDbEntity
8
0
100
AcDbLine
10
195.17265301566385
20
1100.7369697543438
30
0
11
195.23571996401782
21
1115.6168361032062
31
0
0
LINE
5
575
100
AcDbEntity
8
0
100
AcDbLine
10
195.23571996401782
20
1115.6168361032062
30
0
11
196.82320570520457
21
1115.6101076905375
31
0
0
LINE
5
576
100
AcDbEntity
8
0
100
AcDbLine
10
196.93225835984649
20
1141.3397326121715
30
0
11
196.82320570520457
21
1115.6101076905375
31
0
0
LINE
5
577
100
AcDbEntity
8
0
100
AcDbLine
10
196.93225835984649
20
1141.3397326121715
30
0
11
195.34477261866232
21
1141.3464610248404
31
0
0
LINE
5
578
100
AcDbEntity
8
0
100
AcDbLine
10
195.34477261866232
20
1141.3464610248404
30
0
11
195.45022326886703
21
1166.2262375543908
31
0
0
LINE
5
579
100
AcDbEntity
8
0
100
AcDbLine
10
195.45022326886703
20
1166.2262375543908
30
0
11
197.03770901005117
21
1166.2195091417218
31
0
0
LINE
5
580
100
AcDbEntity
8
0
100
AcDbLine
10
197.08493015973065
20
1177.3607552995563
30
0
11
197.03770901005117
21
1166.2195091417218
31
0
0
LINE
5
581
100
AcDbEntity
8
0
100
AcDbLine
10
197.12731386158353
20
1187.3606654802438
30
0
11
193.73484057551522
21
1187.5212520241785
31
0
0
LINE
5
582
100
AcDbEntity
8
0
100
AcDbLine
10
193.73484057551522
20
1187.5212520241785
30
0
11
190.86498965377831
21
1182.0689980220682
31
0
0
LINE
5
583
100
AcDbEntity
8
0
100
AcDbLine
10
190.08869539277921
20
1111.9815884012178
30
0
11
190.86498965377831
21
1182.0689980220682
31
0
0
LINE
5
584
100
AcDbEntity
8
0
100
AcDbLine
10
189.97794131415046
20
1101.9822017433239
30
0
11
191.93643010780463
21
1098.8953481990718
31
0
0
LINE
5
585
100
AcDbEntity
8
0
100
AcDbLine
10
191.93643010780463
20
1098.8953481990718
30
0
11
189.87850317384741
21
1093.0044699456096
31
0
0
LINE
5
586
100
AcDbEntity
8
0
100
AcDbLine
10
189.20713314717534
20
1032.390101876003
30
0
11
189.87850317384741
21
1093.0044699456096
31
0
0
LINE
5
587
100
AcDbEntity
8
0
100
AcDbLine
10
189.09637906854658
20
1022.390715218109
30
0
11
190.94380956930181
21
1008.8555866908214
31
0
0
LINE
5
588
100
AcDbEntity
8
0
100
AcDbLine
10
190.94380956930181
20
1008.8555866908214
30
0
11
188.88106208476006
21
1002.9509094651314
31
0
0
LINE
5
589
100
AcDbEntity
8
0
100
AcDbLine
10
188.20464000228094
20
941.88041860476062
30
0
11
188.88106208476006
21
1002.9509094651314
31
0
0
LINE
5
590
100
AcDbEntity
8
0
100
AcDbLine
10
188.09388592365218
20
931.88103194686676
30
0
11
190.05237471730638
21
928.79417840261465
31
0
0
LINE
5
591
100
AcDbEntity
8
0
100
AcDbLine
10
190.05237471730638
20
928.79417840261465
30
0
11
187.99444778334913
21
922.90330014915185
31
0
0
LINE
5
592
100
AcDbEntity
8
0
100
AcDbLine
10
187.43190646093908
20
872.11448710078139
30
0
11
187.99444778334913
21
922.90330014915185
31
0
0
LINE
5
593
100
AcDbEntity
8
0
100
AcDbLine
10
187.32115238231032
20
862.11510044288752
30
0
11
189.27964117596449
21
859.02824689863519
31
0
0
LINE
5
594
100
AcDbEntity
8
0
100
AcDbLine
10
189.27964117596449
20
859.02824689863519
30
0
11
187.22171424200727
21
853.13736864517239
31
0
0
LINE
5
595
100
AcDbEntity
8
0
100
AcDbLine
10
186.76889163251602
20
812.25446468534074
30
0
11
187.22171424200727
21
853.13736864517239
31
0
0
LINE
5
596
100
AcDbEntity
8
0
100
AcDbLine
10
186.65813755388726
20
802.25507802744687
30
0
11
188.4784000740737
21
796.17011456199066
31
0
0
LINE
5
597
100
AcDbEntity
8
0
100
AcDbLine
10
194.91576600896389
20
1040.1276581224718
30
0
11
194.95391134062956
21
1049.1275772850904
31
0
0
LINE
5
598
100
AcDbEntity
8
0
100
AcDbLine
10
195.13026931381313
20
1090.7370595736561
30
0
11
195.1684146454788
21
1099.736978736275
31
0
0
LINE
5
599
100
AcDbEntity
8
0
100
AcDbLine
10
197.12731386158353
20
1187.3606654802438
30
0
11
197.08916852991592
21
1178.3607463176252
31
0
0
LINE
5
600
100
AcDbEntity
8
0
100
AcDbLine
10
189.97794131415046
20
1101.9822017433239
30
0
11
190.07761998491634
21
1110.9816497354286
31
0
0
LINE
5
601
100
AcDbEntity
8
0
100
AcDbLine
10
189.09637906854658
20
1022.390715218109
30
0
11
189.19605773931249
21
1031.3901632102136
31
0
0
LINE
5
602
100
AcDbEntity
8
0
100
AcDbLine
10
188.09388592365218
20
931.88103194686676
30
0
11
188.19356459441806
21
940.88047993897135
31
0
0
LINE
5
603
100
AcDbEntity
8
0
100
AcDbLine
10
187.32115238231032
20
862.11510044288752
30
0
11
187.4208310530762
21
871.11454843499223
31
0
0
LINE
5
604
100
AcDbEntity
8
0
100
AcDbLine
10
186.65813755388726
20
802.25507802744687
30
0
11
186.75781622465314
21
811.25452601955146
31
0
0
LINE
5
605
100
AcDbEntity
8
0
100
AcDbLine
10
185.15867253693426
20
666.87649269556141
30
0
11
185.25835120770014
21
675.87594068766612
31
0
0
LINE
5
606
100
AcDbEntity
8
0
100
AcDbLine
10
186.04470516596439
20
746.87158595871279
30
0
11
186.51425267380961
21
789.26449052101373
31
0
0
LINE
5
607
100
AcDbEntity
8
0
100
AcDbLine
10
183.83195847548834
20
547.09465667550955
30
0
11
183.93163714625422
21
556.09410466761403
31
0
0
LINE
5
608
100
AcDbEntity
8
0
100
AcDbLine
10
184.71799110451843
20
627.08974993866093
30
0
11
185.05923439663118
21
657.89876089784707
31
0
0
LINE
5
609
100
AcDbEntity
8
0
100
AcDbLine
10
182.38800284502503
20
416.72771358312639
30
0
11
182.48768151579094
21
425.72716157523087
31
0
0
LINE
5
610
100
AcDbEntity
8
0
100
AcDbLine
10
183.27403547405513
20
496.72280684627776
30
0
11
183.68500284025902
21
533.82682729705766
31
0
0
LINE
5
611
100
AcDbEntity
8
0
100
AcDbLine
10
181.06126008257178
20
296.94328630437849
30
0
11
181.16093875333769
21
305.94273429648302
31
0
0
LINE
5
612
100
AcDbEntity
8
0
100
AcDbLine
10
181.9472927116019
20
376.93837956752992
30
0
11
182.29966799430443
21
408.75243774083981
31
0
0
LINE
5
613
100
AcDbEntity
8
0
100
AcDbLine
10
179.57626262862615
20
162.870898977107
30
0
11
179.67594129939204
21
171.87034696921154
31
0
0
LINE
5
614
100
AcDbEntity
8
0
100
AcDbLine
10
180.46229525765625
20
242.86599224025844
30
0
11
180.91434409094279
21
283.67903613215179
31
0
0
LINE
5
615
100
AcDbEntity
8
0
100
AcDbLine
10
178.02654030213293
20
22.95485302345709
30
0
11
178.12621897289884
21
31.954301015561626
31
0
0
LINE
5
616
100
AcDbEntity
8
0
100
AcDbLine
10
178.91257293116303
20
102.94994628660852
30
0
11
179.12999173233598
21
122.57951376205111
31
0
0
LINE
5
617
100
AcDbEntity
8
0
100
AcDbLine
10
182.31190460388828
20
28.58524584649772
30
0
11
182.50539053493324
21
37.583165783599163
31
0
0
LINE
5
618
100
AcDbEntity
8
0
100
AcDbLine
10
184.78174909298752
20
143.44353476694869
30
0
11
186.53476793785057
21
152.27115760265906
31
0
0
ARC
5
619
100
AcDbEntity
8
0
100
AcDbCircle
10
-9806.4303416455441
20
383.32419739433703
30
0
40
10000.060000045934
210
0
220
0
230
1
100
AcDbArc
50
358.8183627570171
51
358.86992864918329
0
ARC
5
620
100
AcDbEntity
8
0
100
AcDbCircle
10
-9806.4303416455441
20
383.32419739433703
30
0
40
10000.060000045936
210
0
220
0
230
1
100
AcDbArc
50
358.87565819275704
51
359.27099669936484
0
LINE
5
621
100
AcDbEntity
8
0
100
AcDbLine
10
196.50325175014865
20
1040.120929709803
30
0
11
196.46510641848272
21
1031.1210105471844
31
0
0
LINE
5
622
100
AcDbEntity
8
0
100
AcDbLine
10
196.46086804829761
20
1030.1210195291155
30
0
11
196.16842050552555
21
961.1216392823718
31
0
0
LINE
5
623
100
AcDbEntity
8
0
100
AcDbLine
10
196.16418213534047
20
960.12164826430308
30
0
11
195.87173459256843
21
891.12226801755935
31
0
0
LINE
5
624
100
AcDbEntity
8
0
100
AcDbLine
10
195.86749622238332
20
890.12227699949062
30
0
11
195.57504867961129
21
821.12289675274701
31
0
0
LINE
5
625
100
AcDbEntity
8
0
100
AcDbLine
10
195.57081030942618
20
820.12290573467817
30
0
11
195.27836276665414
21
751.12352548793433
31
0
0
LINE
5
626
100
AcDbEntity
8
0
100
AcDbLine
10
195.27412439646906
20
750.12353446986572
30
0
11
194.98167685369702
21
681.12415422312199
31
0
0
LINE
5
627
100
AcDbEntity
8
0
100
AcDbLine
10
194.97743848351189
20
680.12416320505326
30
0
11
194.68499094073988
21
611.12478295830942
31
0
0
LINE
5
628
100
AcDbEntity
8
0
100
AcDbLine
10
194.68075257055474
20
610.1247919402407
30
0
11
194.38830502778271
21
541.12541169349709
31
0
0
LINE
5
629
100
AcDbEntity
8
0
100
AcDbLine
10
194.3840666575976
20
540.12542067542836
30
0
11
194.09161911482556
21
471.12604042868452
31
0
0
LINE
5
630
100
AcDbEntity
8
0
100
AcDbLine
10
193.79069483168334
20
400.1266781458034
30
0
11
193.53983854896654
21
340.94024124025509
31
0
0
LINE
5
631
100
AcDbEntity
8
0
100
AcDbLine
10
135.68454026172461
20
293.4050306516416
30
0
11
133.30329026172461
21
293.40503065164165
31
0
0
LINE
5
632
100
AcDbEntity
8
0
100
AcDbLine
10
133.30329026172461
20
293.40503065164165
30
0
11
133.30329026172461
21
281.31594987726646
31
0
0
LINE
5
633
100
AcDbEntity
8
0
100
AcDbLine
10
123.18329026172461
20
291.43594987726664
30
0
11
133.30329026172461
21
281.31594987726646
31
0
0
LINE
5
634
100
AcDbEntity
8
0
100
AcDbLine
10
123.18329026172461
20
370.70691535925266
30
0
11
123.18329026172461
21
291.43594987726664
31
0
0
LINE
5
635
100
AcDbEntity
8
0
100
AcDbLine
10
123.18329026172461
20
380.70691535925266
30
0
11
133.30329026172461
21
390.82691535925278
31
0
0
LINE
5
636
100
AcDbEntity
8
0
100
AcDbLine
10
133.30329026172461
20
378.7378345848777
30
0
11
133.30329026172461
21
390.82691535925278
31
0
0
LINE
5
637
100
AcDbEntity
8
0
100
AcDbLine
10
135.68454026172461
20
378.7378345848777
30
0
11
133.30329026172461
21
378.7378345848777
31
0
0
LINE
5
638
100
AcDbEntity
8
0
100
AcDbLine
10
135.68454026172461
20
378.7378345848777
30
0
11
135.68454026172461
21
361.74560064120453
31
0
0
LINE
5
639
100
AcDbEntity
8
0
100
AcDbLine
10
133.30329026172461
20
361.74560064120453
30
0
11
135.68454026172461
21
361.74560064120453
31
0
0
LINE
5
640
100
AcDbEntity
8
0
100
AcDbLine
10
133.30329026172461
20
320.39726459531482
30
0
11
133.30329026172461
21
361.74560064120453
31
0
0
LINE
5
641
100
AcDbEntity
8
0
100
AcDbLine
10
133.30329026172461
20
310.39726459531477
30
0
11
135.68454026172461
21
310.39726459531471
31
0
0
LINE
5
642
100
AcDbEntity
8
0
100
AcDbLine
10
135.68454026172461
20
293.4050306516416
30
0
11
135.68454026172461
21
310.39726459531471
31
0
0
LINE
5
643
100
AcDbEntity
8
0
100
AcDbLine
10
123.18329026172461
20
380.70691535925266
30
0
11
123.18329026172461
21
371.70691535925266
31
0
0
LINE
5
644
100
AcDbEntity
8
0
100
AcDbLine
10
133.30329026172461
20
310.39726459531477
30
0
11
133.30329026172461
21
319.39726459531477
31
0
0
LINE
5
645
100
AcDbEntity
8
0
100
AcDbLine
10
141.29745297205631
20
26.897694711014349
30
0
11
141.29745297205631
21
31.911222122938845
31
0
0
LINE
5
646
100
AcDbEntity
8
0
100
AcDbLine
10
147.03475149415488
20
29.22972826364753
30
0
11
141.29745297205631
21
31.911222122938845
31
0
0
LINE
5
647
100
AcDbEntity
8
0
100
AcDbLine
10
147.03475149415485
20
18.44566115838121
30
0
11
147.03475149415488
21
29.22972826364753
31
0
0
LINE
5
648
100
AcDbEntity
8
0
100
AcDbLine
10
147.03475149415482
20
8.4456611583812098
30
0
11
141.29745297205628
21
5.7641672990898947
31
0
0
LINE
5
649
100
AcDbEntity
8
0
100
AcDbLine
10
141.29745297205631
20
10.777694711014385
30
0
11
141.29745297205628
21
5.7641672990898947
31
0
0
LINE
5
650
100
AcDbEntity
8
0
100
AcDbLine
10
138.91475149469471
20
10.777694711014384
30
0
11
141.29745297205631
21
10.777694711014385
31
0
0
LINE
5
651
100
AcDbEntity
8
0
100
AcDbLine
10
138.91475149469471
20
10.777694711014384
30
0
11
138.91475149469471
21
26.897694711014353
31
0
0
LINE
5
652
100
AcDbEntity
8
0
100
AcDbLine
10
138.91475149469471
20
26.897694711014353
30
0
11
141.29745297205631
21
26.897694711014349
31
0
0
LINE
5
653
100
AcDbEntity
8
0
100
AcDbLine
10
147.03475149415482
20
8.4456611583812098
30
0
11
147.03475149415485
21
17.445661158381213
31
0
0
LINE
5
654
100
AcDbEntity
8
0
100
AcDbLine
10
153.71554804658015
20
601.35302433016523
30
0
11
153.71554804658015
21
598.9717743301652
31
0
0
LINE
5
655
100
AcDbEntity
8
0
100
AcDbLine
10
145.04126872208553
20
598.9717743301652
30
0
11
153.71554804658015
21
598.9717743301652
31
0
0
LINE
5
656
100
AcDbEntity
8
0
100
AcDbLine
10
145.04126872208553
20
598.9717743301652
30
0
11
145.0412687220855
21
601.35302433016523
31
0
0
LINE
5
657
100
AcDbEntity
8
0
100
AcDbLine
10
129.60652846628327
20
601.35302433016523
30
0
11
145.0412687220855
21
601.35302433016523
31
0
0
LINE
5
658
100
AcDbEntity
8
0
100
AcDbLine
10
129.60652846628327
20
598.9717743301652
30
0
11
129.60652846628327
21
601.35302433016523
31
0
0
LINE
5
659
100
AcDbEntity
8
0
100
AcDbLine
10
129.60652846628327
20
598.9717743301652
30
0
11
120.93224914178863
21
598.9717743301652
31
0
0
LINE
5
660
100
AcDbEntity
8
0
100
AcDbLine
10
120.93224914178863
20
601.35302433016523
30
0
11
120.93224914178863
21
598.9717743301652
31
0
0
LINE
5
661
100
AcDbEntity
8
0
100
AcDbLine
10
113.67707626203082
20
601.35302433016523
30
0
11
120.93224914178863
21
601.35302433016523
31
0
0
LINE
5
662
100
AcDbEntity
8
0
100
AcDbLine
10
113.67707626203082
20
601.35302433016523
30
0
11
113.67707626203082
21
619.09177433016521
31
0
0
LINE
5
663
100
AcDbEntity
8
0
100
AcDbLine
10
115.26604930900751
20
619.09177433016521
30
0
11
113.67707626203082
21
619.09177433016521
31
0
0
LINE
5
664
100
AcDbEntity
8
0
100
AcDbLine
10
115.26604930900749
20
633.97177433016509
30
0
11
115.26604930900751
21
619.09177433016521
31
0
0
LINE
5
665
100
AcDbEntity
8
0
100
AcDbLine
10
113.67707626203078
20
643.97177433016509
30
0
11
115.26604930900749
21
643.97177433016509
31
0
0
LINE
5
666
100
AcDbEntity
8
0
100
AcDbLine
10
113.67707626203078
20
653.97177433016509
30
0
11
113.67707626203077
21
674.09177433016509
31
0
0
LINE
5
667
100
AcDbEntity
8
0
100
AcDbLine
10
115.26604930900747
20
674.09177433016498
30
0
11
113.67707626203077
21
674.09177433016509
31
0
0
LINE
5
668
100
AcDbEntity
8
0
100
AcDbLine
10
115.26604930900746
20
688.97177433016498
30
0
11
115.26604930900747
21
674.09177433016498
31
0
0
LINE
5
669
100
AcDbEntity
8
0
100
AcDbLine
10
113.67707626203074
20
698.97177433016498
30
0
11
115.26604930900746
21
698.97177433016498
31
0
0
LINE
5
670
100
AcDbEntity
8
0
100
AcDbLine
10
113.67707626203074
20
698.97177433016498
30
0
11
113.67707626203074
21
716.71052433016496
31
0
0
LINE
5
671
100
AcDbEntity
8
0
100
AcDbLine
10
120.93224914178855
20
716.71052433016496
30
0
11
113.67707626203074
21
716.71052433016496
31
0
0
LINE
5
672
100
AcDbEntity
8
0
100
AcDbLine
10
120.93224914178855
20
719.09177433016498
30
0
11
120.93224914178855
21
716.71052433016496
31
0
0
LINE
5
673
100
AcDbEntity
8
0
100
AcDbLine
10
120.93224914178855
20
719.09177433016498
30
0
11
129.60652846628315
21
719.09177433016498
31
0
0
LINE
5
674
100
AcDbEntity
8
0
100
AcDbLine
10
129.60652846628318
20
716.71052433016496
30
0
11
129.60652846628315
21
719.09177433016498
31
0
0
LINE
5
675
100
AcDbEntity
8
0
100
AcDbLine
10
145.04126872208542
20
716.71052433016496
30
0
11
129.60652846628318
21
716.71052433016496
31
0
0
LINE
5
676
100
AcDbEntity
8
0
100
AcDbLine
10
145.04126872208542
20
716.71052433016496
30
0
11
145.04126872208542
21
719.09177433016498
31
0
0
LINE
5
677
100
AcDbEntity
8
0
100
AcDbLine
10
153.71554804658007
20
719.09177433016498
30
0
11
145.04126872208542
21
719.09177433016498
31
0
0
LINE
5
678
100
AcDbEntity
8
0
100
AcDbLine
10
153.71554804658007
20
719.09177433016498
30
0
11
153.71554804658007
21
716.71052433016496
31
0
0
LINE
5
679
100
AcDbEntity
8
0
100
AcDbLine
10
153.71554804658007
20
716.71052433016496
30
0
11
160.97072092633789
21
716.71052433016507
31
0
0
LINE
5
680
100
AcDbEntity
8
0
100
AcDbLine
10
160.97072092633789
20
698.97177433016509
30
0
11
160.97072092633789
21
716.71052433016507
31
0
0
LINE
5
681
100
AcDbEntity
8
0
100
AcDbLine
10
160.97072092633789
20
698.97177433016509
30
0
11
159.38174787936117
21
698.97177433016509
31
0
0
LINE
5
682
100
AcDbEntity
8
0
100
AcDbLine
10
159.38174787936117
20
688.97177433016509
30
0
11
159.3817478793612
21
674.09177433016509
31
0
0
LINE
5
683
100
AcDbEntity
8
0
100
AcDbLine
10
159.3817478793612
20
674.09177433016509
30
0
11
160.97072092633789
21
674.09177433016509
31
0
0
LINE
5
684
100
AcDbEntity
8
0
100
AcDbLine
10
160.97072092633792
20
653.97177433016509
30
0
11
160.97072092633789
21
674.09177433016509
31
0
0
LINE
5
685
100
AcDbEntity
8
0
100
AcDbLine
10
160.97072092633792
20
643.97177433016509
30
0
11
159.38174787936123
21
643.97177433016509
31
0
0
LINE
5
686
100
AcDbEntity
8
0
100
AcDbLine
10
159.38174787936123
20
643.97177433016509
30
0
11
159.38174787936123
21
619.09177433016521
31
0
0
LINE
5
687
100
AcDbEntity
8
0
100
AcDbLine
10
159.38174787936123
20
619.09177433016521
30
0
11
160.97072092633795
21
619.09177433016521
31
0
0
LINE
5
688
100
AcDbEntity
8
0
100
AcDbLine
10
160.97072092633795
20
601.35302433016523
30
0
11
160.97072092633795
21
619.09177433016521
31
0
0
LINE
5
689
100
AcDbEntity
8
0
100
AcDbLine
10
160.97072092633795
20
601.35302433016523
30
0
11
153.71554804658015
21
601.35302433016523
31
0
0
LINE
5
690
100
AcDbEntity
8
0
100
AcDbLine
10
160.97072092633792
20
643.97177433016509
30
0
11
160.97072092633792
21
652.97177433016509
31
0
0
LINE
5
691
100
AcDbEntity
8
0
100
AcDbLine
10
115.26604930900749
20
643.97177433016509
30
0
11
115.26604930900749
21
634.97177433016509
31
0
0
LINE
5
692
100
AcDbEntity
8
0
100
AcDbLine
10
113.67707626203078
20
643.97177433016509
30
0
11
113.67707626203078
21
652.97177433016509
31
0
0
LINE
5
693
100
AcDbEntity
8
0
100
AcDbLine
10
115.26604930900746
20
698.97177433016498
30
0
11
115.26604930900746
21
689.97177433016486
31
0
0
LINE
5
694
100
AcDbEntity
8
0
100
AcDbLine
10
159.38174787936117
20
698.97177433016509
30
0
11
159.38174787936117
21
689.97177433016509
31
0
0
ARC
5
695
100
AcDbEntity
8
0
100
AcDbCircle
10
147.80811507103931
20
619.03177433016526
30
0
40
4.9400000000000688
210
0
220
0
230
1
100
AcDbArc
50
270.00000000000068
51
360
0
LINE
5
696
100
AcDbEntity
8
0
100
AcDbLine
10
152.74811507103936
20
629.03177433016515
30
0
11
152.74811507103931
21
699.03177433016504
31
0
0
ARC
5
697
100
AcDbEntity
8
0
100
AcDbCircle
10
147.80811507103937
20
699.03177433016504
30
0
40
4.9399999999999444
210
0
220
0
230
1
100
AcDbArc
50
0
51
90.000000000000654
0
LINE
5
698
100
AcDbEntity
8
0
100
AcDbLine
10
136.83968211732935
20
703.97177433016498
30
0
11
147.80811507103931
21
703.97177433016509
31
0
0
ARC
5
699
100
AcDbEntity
8
0
100
AcDbCircle
10
126.83968211732933
20
699.03177433016492
30
0
40
4.9399999999999977
210
0
220
-0
230
1
100
AcDbArc
50
90
51
180
0
LINE
5
700
100
AcDbEntity
8
0
100
AcDbLine
10
121.89968211732938
20
629.03177433016515
30
0
11
121.89968211732932
21
699.03177433016492
31
0
0
ARC
5
701
100
AcDbEntity
8
0
100
AcDbCircle
10
126.83968211732939
20
619.03177433016515
30
0
40
4.9399999999999977
210
0
220
0
230
1
100
AcDbArc
50
180
51
270
0
LINE
5
702
100
AcDbEntity
8
0
100
AcDbLine
10
137.80811507103937
20
614.09177433016521
30
0
11
126.83968211732939
21
614.09177433016521
31
0
0
LINE
5
703
100
AcDbEntity
8
0
100
AcDbLine
10
152.74811507103939
20
619.03177433016515
30
0
11
152.74811507103936
21
628.03177433016515
31
0
0
LINE
5
704
100
AcDbEntity
8
0
100
AcDbLine
10
126.83968211732933
20
703.97177433016498
30
0
11
135.83968211732935
21
703.97177433016498
31
0
0
LINE
5
705
100
AcDbEntity
8
0
100
AcDbLine
10
121.89968211732939
20
619.03177433016515
30
0
11
121.89968211732939
21
628.03177433016515
31
0
0
LINE
5
706
100
AcDbEntity
8
0
100
AcDbLine
10
147.80811507103937
20
614.09177433016521
30
0
11
138.80811507103937
21
614.09177433016521
31
0
0
LINE
5
707
100
AcDbEntity
8
0
100
AcDbLine
10
153.07401914461363
20
283.00929195142476
30
0
11
153.07401914461323
21
272.51905542141867
31
0
0
LINE
5
708
100
AcDbEntity
8
0
100
AcDbLine
10
163.19401914461363
20
282.63905542141839
30
0
11
153.07401914461323
21
272.51905542141867
31
0
0
LINE
5
709
100
AcDbEntity
8
0
100
AcDbLine
10
163.19401914461397
20
292.63905542141839
30
0
11
163.19401914461616
21
350.59181343934034
31
0
0
LINE
5
710
100
AcDbEntity
8
0
100
AcDbLine
10
163.19401914461616
20
350.59181343934034
30
0
11
153.0740191446165
21
360.71181343934074
31
0
0
LINE
5
711
100
AcDbEntity
8
0
100
AcDbLine
10
153.0740191446161
20
350.22157690933477
30
0
11
153.0740191446165
21
360.71181343934074
31
0
0
LINE
5
712
100
AcDbEntity
8
0
100
AcDbLine
10
150.69276914461611
20
350.22157690933483
30
0
11
153.0740191446161
21
350.22157690933477
31
0
0
LINE
5
713
100
AcDbEntity
8
0
100
AcDbLine
10
150.69276914461611
20
350.22157690933483
30
0
11
150.6927691446156
21
336.09760317917159
31
0
0
LINE
5
714
100
AcDbEntity
8
0
100
AcDbLine
10
153.07401914461559
20
336.09760317917153
30
0
11
150.6927691446156
21
336.09760317917159
31
0
0
LINE
5
715
100
AcDbEntity
8
0
100
AcDbLine
10
153.07401914461522
20
326.09760317917153
30
0
11
153.07401914461414
21
297.133265681588
31
0
0
LINE
5
716
100
AcDbEntity
8
0
100
AcDbLine
10
153.07401914461414
20
297.133265681588
30
0
11
150.69276914461415
21
297.13326568158811
31
0
0
LINE
5
717
100
AcDbEntity
8
0
100
AcDbLine
10
150.69276914461364
20
283.00929195142481
30
0
11
150.69276914461415
21
297.13326568158811
31
0
0
LINE
5
718
100
AcDbEntity
8
0
100
AcDbLine
10
150.69276914461364
20
283.00929195142481
30
0
11
153.07401914461363
21
283.00929195142476
31
0
0
LINE
5
719
100
AcDbEntity
8
0
100
AcDbLine
10
163.19401914461363
20
282.63905542141839
30
0
11
163.19401914461395
21
291.63905542141839
31
0
0
LINE
5
720
100
AcDbEntity
8
0
100
AcDbLine
10
153.07401914461559
20
336.09760317917153
30
0
11
153.07401914461525
21
327.09760317917153
31
0
0
LINE
5
721
100
AcDbEntity
8
0
100
AcDbLine
10
106.96251874798489
20
313.63126821038566
30
0
11
107.01591948738147
21
244.63128887443926
31
0
0
LINE
5
722
100
AcDbEntity
8
0
100
AcDbLine
10
107.05374702726075
20
195.75369842356986
30
0
11
112.10702145845298
21
189.28332236814609
31
0
0
LINE
5
723
100
AcDbEntity
8
0
100
AcDbLine
10
112.10702145845298
20
189.28332236814609
30
0
11
117.17591646294625
21
192.95445071642541
31
0
0
LINE
5
724
100
AcDbEntity
8
0
100
AcDbLine
10
117.16817722535265
20
202.95444772163503
30
0
11
117.11477648595674
21
271.95442705758143
31
0
0
LINE
5
725
100
AcDbEntity
8
0
100
AcDbLine
10
117.07776980544836
20
319.77137152794592
30
0
11
112.02719671076903
21
327.30494450114008
31
0
0
LINE
5
726
100
AcDbEntity
8
0
100
AcDbLine
10
112.02719671076903
20
327.30494450114008
30
0
11
106.95477951039116
21
323.63126521559531
31
0
0
LINE
5
727
100
AcDbEntity
8
0
100
AcDbLine
10
117.17591646294625
20
192.95445071642541
30
0
11
117.16895114911199
21
201.95444802111408
31
0
0
LINE
5
728
100
AcDbEntity
8
0
100
AcDbLine
10
117.11400256219738
20
272.95442675810239
30
0
11
117.07776980544836
21
319.77137152794592
31
0
0
LINE
5
729
100
AcDbEntity
8
0
100
AcDbLine
10
106.95477951039116
20
323.63126521559531
30
0
11
106.96174482422551
21
314.63126791090662
31
0
0
LINE
5
730
100
AcDbEntity
8
0
100
AcDbLine
10
107.01669341114084
20
243.6312891739183
30
0
11
107.05374702726075
21
195.75369842356986
31
0
0
LINE
5
731
100
AcDbEntity
8
0
100
AcDbLine
10
118.12388668191178
20
402.08990111626014
30
0
11
117.81240693401551
21
467.19863325120519
31
0
0
LINE
5
732
100
AcDbEntity
8
0
100
AcDbLine
10
117.81240693401551
20
467.19863325120519
30
0
11
121.85029187167325
21
471.3524030613919
31
0
0
LINE
5
733
100
AcDbEntity
8
0
100
AcDbLine
10
125.9302732968446
20
467.66405115614452
30
0
11
121.85029187167325
21
471.3524030613919
31
0
0
LINE
5
734
100
AcDbEntity
8
0
100
AcDbLine
10
125.97811268388064
20
457.6641655871469
30
0
11
126.28652378596681
21
393.19687367249293
31
0
0
LINE
5
735
100
AcDbEntity
8
0
100
AcDbLine
10
126.28652378596681
20
393.19687367249293
30
0
11
122.25493358070155
21
388.39874722123989
31
0
0
LINE
5
736
100
AcDbEntity
8
0
100
AcDbLine
10
122.25493358070155
20
388.39874722123989
30
0
11
118.17172606894773
21
392.09001554726251
31
0
0
LINE
5
737
100
AcDbEntity
8
0
100
AcDbLine
10
125.9302732968446
20
467.66405115614452
30
0
11
125.97332874517704
21
458.66415414404662
31
0
0
LINE
5
738
100
AcDbEntity
8
0
100
AcDbLine
10
118.17172606894773
20
392.09001554726251
30
0
11
118.1286706206154
21
401.08991255936041
31
0
0
LINE
5
739
100
AcDbEntity
8
0
100
AcDbLine
10
172.31085894460148
20
35.360880591529295
30
0
11
172.43080443738313
21
46.50158114693366
31
0
0
LINE
5
740
100
AcDbEntity
8
0
100
AcDbLine
10
170.8433964375993
20
46.51867185266066
30
0
11
172.43080443738313
21
46.50158114693366
31
0
0
LINE
5
741
100
AcDbEntity
8
0
100
AcDbLine
10
171.11124951380975
20
71.397229984706399
30
0
11
170.8433964375993
21
46.51867185266066
31
0
0
LINE
5
742
100
AcDbEntity
8
0
100
AcDbLine
10
172.69865751359359
20
71.380139278979385
30
0
11
171.11124951380975
21
71.397229984706399
31
0
0
LINE
5
743
100
AcDbEntity
8
0
100
AcDbLine
10
172.69865751359359
20
71.380139278979385
30
0
11
172.97565996885598
21
97.108504184842076
31
0
0
LINE
5
744
100
AcDbEntity
8
0
100
AcDbLine
10
171.38825196906959
20
97.125594890568948
30
0
11
172.97565996885598
21
97.108504184842076
31
0
0
LINE
5
745
100
AcDbEntity
8
0
100
AcDbLine
10
171.54844705644948
20
112.00473255153534
30
0
11
171.38825196906959
21
97.125594890568948
31
0
0
LINE
5
746
100
AcDbEntity
8
0
100
AcDbLine
10
173.24351304506587
20
121.9870623168874
30
0
11
171.65610504528007
21
122.0041530226147
31
0
0
LINE
5
747
100
AcDbEntity
8
0
100
AcDbLine
10
173.24351304506587
20
121.9870623168874
30
0
11
173.52051550032496
21
147.71542722275015
31
0
0
LINE
5
748
100
AcDbEntity
8
0
100
AcDbLine
10
171.93310750053985
20
147.73251792847699
30
0
11
173.52051550032496
21
147.71542722275015
31
0
0
LINE
5
749
100
AcDbEntity
8
0
100
AcDbLine
10
172.09330258791977
20
162.61165558944367
30
0
11
171.93310750053985
21
147.73251792847699
31
0
0
LINE
5
750
100
AcDbEntity
8
0
100
AcDbLine
10
173.78836857653482
20
172.59398535479602
30
0
11
172.20096057675036
21
172.61107606052303
31
0
0
LINE
5
751
100
AcDbEntity
8
0
100
AcDbLine
10
179.92487393986235
20
742.5609522063196
30
0
11
180.66771406279148
21
811.55695345676736
31
0
0
LINE
5
752
100
AcDbEntity
8
0
100
AcDbLine
10
180.1500999449479
20
1035.5385374964981
30
0
11
181.73733694832328
21
1035.5898174135084
31
0
0
SPLINE
5
753
100
AcDbEntity
8
0
100
AcDbSpline
70
0
71
3
72
8
73
4
74
0
42
0.000000001
43
0.0000000001
44
0.0000000001
40
1.5699154574044307
40
1.5699154574044307
40
1.5699154574044307
40
1.5699154574044307
40
1.5707968518078552
40
1.5707968518078552
40
1.5707968518078552
40
1.5707968518078552
10
180.1500999449479
20
1035.5385374964978
30
0
10
180.1336062737582
20
1038.4760237598609
30
0
10
180.1158180605081
20
1041.4135027545087
30
0
10
180.09673531210842
20
1044.3509733394424
30
0
0
LINE
5
754
100
AcDbEntity
8
0
100
AcDbLine
10
175.52177761517044
20
1069.3463143281601
30
0
11
180.09673531210839
21
1044.3509733394424
31
0
0
LINE
5
755
100
AcDbEntity
8
0
100
AcDbLine
10
174.84048158565901
20
1174.228942458479
30
0
11
175.28868197037548
21
1105.2303981519854
31
0
0
LINE
5
756
100
AcDbEntity
8
0
100
AcDbLine
10
170.57512052147922
20
1189.9227873968723
30
0
11
174.77552500816387
21
1184.2287314884056
31
0
0
LINE
5
757
100
AcDbEntity
8
0
100
AcDbLine
10
170.53583306824635
20
1179.9228645723692
30
0
11
170.26474964093961
21
1110.9233970832977
31
0
0
LINE
5
758
100
AcDbEntity
8
0
100
AcDbLine
10
171.97479118938162
20
1084.3581055791603
30
0
11
170.18369659384089
21
1090.2927847889848
31
0
0
LINE
5
759
100
AcDbEntity
8
0
100
AcDbLine
10
170.14051948177462
20
1079.3050328627448
30
0
11
171.97479118938162
21
1084.3581055791603
31
0
0
SPLINE
5
760
100
AcDbEntity
8
0
100
AcDbSpline
70
0
71
3
72
8
73
4
74
0
42
0.000000001
43
0.0000000001
44
0.0000000001
40
-1.5707973793303902
40
-1.5707973793303902
40
-1.5707973793303902
40
-1.5707973793303902
40
-1.5691284787869453
40
-1.5691284787869453
40
-1.5691284787869453
40
-1.5691284787869453
10
170.05672788631696
20
1057.9780074921703
30
0
10
170.09059052568742
20
1065.086990992364
30
0
10
170.11852107047278
20
1072.1960027492519
30
0
10
170.14051948177462
20
1079.3050328627251
30
0
0
LINE
5
761
100
AcDbEntity
8
0
100
AcDbLine
10
171.88900909272161
20
1054.0483141479463
30
0
11
170.05672788631696
21
1057.9780074921703
31
0
0
LINE
5
762
100
AcDbEntity
8
0
100
AcDbLine
10
170.02539229313919
20
1049.9992391518817
30
0
11
171.88900909272161
21
1054.0483141479463
31
0
0
LINE
5
763
100
AcDbEntity
8
0
100
AcDbLine
10
169.98610483990632
20
1039.9993163273787
30
0
11
169.71502141259958
21
970.99984883830712
31
0
0
LINE
5
764
100
AcDbEntity
8
0
100
AcDbLine
10
171.71160366460708
20
924.25077720540446
30
0
11
169.55073877677765
21
929.18462427060467
31
0
0
LINE
5
765
100
AcDbEntity
8
0
100
AcDbLine
10
171.8813322815796
20
918.99726750637933
30
0
11
171.71160366460708
21
924.25077720540446
31
0
0
LINE
5
766
100
AcDbEntity
8
0
100
AcDbLine
10
169.4986237195107
20
915.91966286995125
30
0
11
171.8813322815796
21
918.99726750637933
31
0
0
LINE
5
767
100
AcDbEntity
8
0
100
AcDbLine
10
169.45933626627783
20
905.91974004544818
30
0
11
169.1882528389711
21
836.92027255637663
31
0
0
LINE
5
768
100
AcDbEntity
8
0
100
AcDbLine
10
171.03133686122823
20
799.18404530560883
30
0
11
169.05932709479242
21
804.10451623241897
31
0
0
LINE
5
769
100
AcDbEntity
8
0
100
AcDbLine
10
169.027992345233
20
796.12881275624306
30
0
11
171.03133686122823
21
799.18404530560883
31
0
0
LINE
5
770
100
AcDbEntity
8
0
100
AcDbLine
10
168.98870489200016
20
786.12888993173999
30
0
11
168.71762146469339
21
717.12942244266844
31
0
0
LINE
5
771
100
AcDbEntity
8
0
100
AcDbLine
10
170.54721193999558
20
674.08475798079962
30
0
11
168.5679115311749
21
679.02342019372952
31
0
0
LINE
5
772
100
AcDbEntity
8
0
100
AcDbLine
10
170.52653341614788
20
668.82140732848018
30
0
11
170.54721193999558
21
674.08475798079962
31
0
0
LINE
5
773
100
AcDbEntity
8
0
100
AcDbLine
10
168.51578241125571
20
665.75487939493405
30
0
11
170.52653341614788
21
668.82140732848018
31
0
0
LINE
5
774
100
AcDbEntity
8
0
100
AcDbLine
10
168.47649495802287
20
655.75495657043098
30
0
11
168.20541153071613
21
586.75548908135943
31
0
0
LINE
5
775
100
AcDbEntity
8
0
100
AcDbLine
10
170.04974417258546
20
549.02374192878449
30
0
11
168.08043460327718
21
554.94483386210652
31
0
0
LINE
5
776
100
AcDbEntity
8
0
100
AcDbLine
10
168.0451612179979
20
545.96662067886496
30
0
11
170.04974417258546
21
549.02374192878449
31
0
0
LINE
5
777
100
AcDbEntity
8
0
100
AcDbLine
10
168.00587376476503
20
535.96669785436188
30
0
11
167.73479033745829
21
466.96723036529033
31
0
0
LINE
5
778
100
AcDbEntity
8
0
100
AcDbLine
10
169.42461597250406
20
416.63774396975441
30
0
11
167.56430045069922
21
423.57206041513081
31
0
0
LINE
5
779
100
AcDbEntity
8
0
100
AcDbLine
10
167.51326061029832
20
410.58077635404936
30
0
11
169.42461597250406
21
416.63774396975441
31
0
0
LINE
5
780
100
AcDbEntity
8
0
100
AcDbLine
10
167.47397315706547
20
400.58085352954618
30
0
11
167.31334478731668
21
359.69575743046221
31
0
0
LINE
5
781
100
AcDbEntity
8
0
100
AcDbLine
10
169.2826543566249
20
353.77466549713967
30
0
11
167.31334478731668
21
359.69575743046221
31
0
0
LINE
5
782
100
AcDbEntity
8
0
100
AcDbLine
10
167.2780714020374
20
350.71754424721985
30
0
11
169.2826543566249
21
353.77466549713967
31
0
0
LINE
5
783
100
AcDbEntity
8
0
100
AcDbLine
10
167.23878394880455
20
340.71762142271672
30
0
11
167.03923539791265
21
289.92608508074773
31
0
0
LINE
5
784
100
AcDbEntity
8
0
100
AcDbLine
10
169.0085449672209
20
284.00499314742507
30
0
11
167.03923539791265
21
289.92608508074773
31
0
0
LINE
5
785
100
AcDbEntity
8
0
100
AcDbLine
10
167.00396201263342
20
280.94787189750593
30
0
11
169.0085449672209
21
284.00499314742507
31
0
0
LINE
5
786
100
AcDbEntity
8
0
100
AcDbLine
10
166.96467455940055
20
270.9479490730028
30
0
11
166.72472943719742
21
209.87418361598642
31
0
0
LINE
5
787
100
AcDbEntity
8
0
100
AcDbLine
10
168.69865197708242
20
203.93922193699464
30
0
11
166.72472943719742
21
209.87418361598642
31
0
0
LINE
5
788
100
AcDbEntity
8
0
100
AcDbLine
10
166.64835070663071
20
190.43333550160293
30
0
11
168.69865197708242
21
203.93922193699464
31
0
0
LINE
5
789
100
AcDbEntity
8
0
100
AcDbLine
10
166.60906325339784
20
180.4334126770998
30
0
11
166.37091023139283
21
119.81579446812847
31
0
0
LINE
5
790
100
AcDbEntity
8
0
100
AcDbLine
10
168.34021980070105
20
113.89470253480644
30
0
11
166.37091023139283
21
119.81579446812847
31
0
0
LINE
5
791
100
AcDbEntity
8
0
100
AcDbLine
10
166.33563684611357
20
110.83758128488697
30
0
11
168.34021980070105
21
113.89470253480644
31
0
0
LINE
5
792
100
AcDbEntity
8
0
100
AcDbLine
10
166.2963493928807
20
100.83765846038384
30
0
11
166.02097692035835
21
30.746490756158185
31
0
0
LINE
5
793
100
AcDbEntity
8
0
100
AcDbLine
10
168.80870012651587
20
25.251791734157859
30
0
11
166.02097692035835
21
30.746490756158185
31
0
0
LINE
5
794
100
AcDbEntity
8
0
100
AcDbLine
10
172.20320095577304
20
25.361460120449912
30
0
11
168.80870012651587
21
25.251791734157859
31
0
0
LINE
5
795
100
AcDbEntity
8
0
100
AcDbLine
10
167.00396201263342
20
280.94787189750593
30
0
11
166.96860330472384
21
271.94794135545305
31
0
0
LINE
5
796
100
AcDbEntity
8
0
100
AcDbLine
10
167.2780714020374
20
350.71754424721985
30
0
11
167.24271269412782
21
341.71761370516708
31
0
0
LINE
5
797
100
AcDbEntity
8
0
100
AcDbLine
10
167.51326061029832
20
410.58077635404936
30
0
11
167.47790190238874
21
401.58084581199654
31
0
0
LINE
5
798
100
AcDbEntity
8
0
100
AcDbLine
10
168.0451612179979
20
545.96662067886496
30
0
11
168.00980251008832
21
536.96669013681219
31
0
0
LINE
5
799
100
AcDbEntity
8
0
100
AcDbLine
10
167.73086159213503
20
465.96723808284003
30
0
11
167.56430045069922
21
423.57206041513081
31
0
0
LINE
5
800
100
AcDbEntity
8
0
100
AcDbLine
10
168.51578241125571
20
665.75487939493405
30
0
11
168.48042370334613
21
656.75494885288117
31
0
0
LINE
5
801
100
AcDbEntity
8
0
100
AcDbLine
10
168.20148278539281
20
585.75549679890901
30
0
11
168.08043460327718
21
554.94483386210652
31
0
0
LINE
5
802
100
AcDbEntity
8
0
100
AcDbLine
10
169.027992345233
20
796.12881275624306
30
0
11
168.99263363732342
21
787.12888221419018
31
0
0
LINE
5
803
100
AcDbEntity
8
0
100
AcDbLine
10
168.71369271937013
20
716.12943016021802
30
0
11
168.5679115311749
21
679.02342019372952
31
0
0
LINE
5
804
100
AcDbEntity
8
0
100
AcDbLine
10
169.4986237195107
20
915.91966286995125
30
0
11
169.46326501160112
21
906.91973232789849
31
0
0
LINE
5
805
100
AcDbEntity
8
0
100
AcDbLine
10
169.1843240936478
20
835.92028027392632
30
0
11
169.05932709479242
21
804.10451623241897
31
0
0
LINE
5
806
100
AcDbEntity
8
0
100
AcDbLine
10
170.02539229313919
20
1049.9992391518817
30
0
11
169.99003358522958
21
1040.9993086098289
31
0
0
LINE
5
807
100
AcDbEntity
8
0
100
AcDbLine
10
169.71109266727632
20
969.9998565558567
30
0
11
169.55073877677765
21
929.18462427060467
31
0
0
LINE
5
808
100
AcDbEntity
8
0
100
AcDbLine
10
170.57512052147922
20
1189.9227873968723
30
0
11
170.53976181356961
21
1180.9228568548197
31
0
0
LINE
5
809
100
AcDbEntity
8
0
100
AcDbLine
10
170.26082089561635
20
1109.9234048008473
30
0
11
170.18369659384089
21
1090.2927847889848
31
0
0
LINE
5
810
100
AcDbEntity
8
0
100
AcDbLine
10
174.77552500816387
20
1184.2287314884056
30
0
11
174.83398592790948
21
1175.2289213614717
31
0
0
LINE
5
811
100
AcDbEntity
8
0
100
AcDbLine
10
175.295177628125
20
1104.2304192489928
30
0
11
175.52177761517044
21
1069.3463143281601
31
0
0
SPLINE
5
812
100
AcDbEntity
8
0
100
AcDbSpline
70
0
71
3
72
8
73
4
74
0
42
0.000000001
43
0.0000000001
44
0.0000000001
40
-1.5707963267948968
40
-1.5707963267948968
40
-1.5707963267948968
40
-1.5707963267948968
40
-1.5698963321948645
40
-1.5698963321948645
40
-1.5698963321948645
40
-1.5698963321948645
10
181.3156748612426
20
871.7404339665585
30
0
10
181.34797225789163
20
874.74026010788191
30
0
10
181.37891971060606
20
877.74010078307413
30
0
10
181.4085172162703
20
880.73995477716153
30
0
0
SPLINE
5
813
100
AcDbEntity
8
0
100
AcDbSpline
70
0
71
3
72
8
73
4
74
0
42
0.000000001
43
0.0000000001
44
0.0000000001
40
-1.5697963327938607
40
-1.5697963327938607
40
-1.5697963327938607
40
-1.5697963327938607
40
-1.5628963741937993
40
-1.5628963741937993
40
-1.5628963741937993
40
-1.5628963741937993
10
181.41833305354623
20
881.73990661015159
30
0
10
181.64294735352593
20
904.7388098073211
30
0
10
181.7882147454394
20
927.73848792473382
30
0
10
181.85413382536595
20
950.7383934594435
30
0
0
SPLINE
5
814
100
AcDbEntity
8
0
100
AcDbSpline
70
0
71
3
72
8
73
4
74
0
42
0.000000001
43
0.0000000001
44
0.0000000001
40
-1.5627963747927915
40
-1.5627963747927915
40
-1.5627963747927915
40
-1.5627963747927915
40
-1.554411249215359
40
-1.554411249215359
40
-1.554411249215359
40
-1.554411249215359
10
181.85694987340653
20
951.73838950395987
30
0
10
181.93426256654357
20
979.68886887129429
30
0
10
181.89439243138298
20
1007.6396723736924
30
0
10
181.73733694832333
20
1035.5898174135084
30
0
0
LINE
5
815
100
AcDbEntity
8
0
100
AcDbLine
10
173.78836857653482
20
172.59398535479602
30
0
11
173.88526076648208
21
181.59346377876744
31
0
0
LINE
5
816
100
AcDbEntity
8
0
100
AcDbLine
10
173.89602656536513
20
182.59340582587538
30
0
11
174.63886668829423
21
251.58940707632297
31
0
0
LINE
5
817
100
AcDbEntity
8
0
100
AcDbLine
10
174.64963248717726
20
252.58934912343094
30
0
11
175.39247261010641
21
321.5853503738785
31
0
0
LINE
5
818
100
AcDbEntity
8
0
100
AcDbLine
10
175.40323840898941
20
322.58529242098643
30
0
11
176.14607853191856
21
391.58129367143403
31
0
0
LINE
5
819
100
AcDbEntity
8
0
100
AcDbLine
10
176.15684433080159
20
392.58123571854196
30
0
11
176.89968445373071
21
461.57723696898955
31
0
0
LINE
5
820
100
AcDbEntity
8
0
100
AcDbLine
10
176.91045025261374
20
462.57717901609749
30
0
11
177.65329037554284
21
531.57318026654502
31
0
0
LINE
5
821
100
AcDbEntity
8
0
100
AcDbLine
10
177.66405617442589
20
532.57312231365302
30
0
11
178.40689629735499
21
601.56912356410066
31
0
0
LINE
5
822
100
AcDbEntity
8
0
100
AcDbLine
10
178.41766209623808
20
602.56906561120854
30
0
11
179.16050221916717
21
671.56506686165631
31
0
0
LINE
5
823
100
AcDbEntity
8
0
100
AcDbLine
10
179.17126801805017
20
672.56500890876418
30
0
11
179.91410814097932
21
741.56101015921172
31
0
0
LINE
5
824
100
AcDbEntity
8
0
100
AcDbLine
10
180.6784798616745
20
812.55689550387524
30
0
11
181.31567486124288
21
871.74043396655838
31
0
0
LINE
5
825
100
AcDbEntity
8
0
100
AcDbLine
10
172.20096057675036
20
172.61107606052303
30
0
11
172.10406838680285
21
163.61159763655161
31
0
0
LINE
5
826
100
AcDbEntity
8
0
100
AcDbLine
10
171.65610504528007
20
122.0041530226147
30
0
11
171.55921285533253
21
113.00467459864329
31
0
0
LINE
5
827
100
AcDbEntity
8
0
100
AcDbLine
10
172.20320095577304
20
25.361460120449912
30
0
11
172.30009314571862
21
34.360938544421359
31
0
0
LINE
5
828
100
AcDbEntity
8
0
100
AcDbLine
10
166.33563684611357
20
110.83758128488697
30
0
11
166.30027813820396
21
101.83765074283416
31
0
0
LINE
5
829
100
AcDbEntity
8
0
100
AcDbLine
10
166.64835070663071
20
190.43333550160293
30
0
11
166.6129919987211
21
181.4334049595501
31
0
0
LINE
5
830
100
AcDbEntity
8
0
100
AcDbLine
10
145.00382806807096
20
812.37349493698298
30
0
11
145.00382806807099
21
820.87357150570892
31
0
0
LINE
5
831
100
AcDbEntity
8
0
100
AcDbLine
10
145.00382806807099
20
820.87357150570892
30
0
11
147.26507806807092
21
820.95552155277483
31
0
0
LINE
5
832
100
AcDbEntity
8
0
100
AcDbLine
10
147.26507806807089
20
816.19251156159635
30
0
11
147.26507806807089
21
812.42950157041776
31
0
0
LINE
5
833
100
AcDbEntity
8
0
100
AcDbLine
10
147.26507806807089
20
812.42950157041776
30
0
11
145.00382806807096
21
812.37349493698298
31
0
0
LINE
5
834
100
AcDbEntity
8
0
100
AcDbLine
10
147.26507806807092
20
820.95552155277483
30
0
11
147.26507806807092
21
817.19251156159635
31
0
0
LINE
5
835
100
AcDbEntity
8
0
100
AcDbLine
10
145.00382806807096
20
787.91430565419489
30
0
11
145.00382806807099
21
796.41438222292084
31
0
0
LINE
5
836
100
AcDbEntity
8
0
100
AcDbLine
10
145.00382806807099
20
796.41438222292084
30
0
11
147.26507806807092
21
796.35837558948606
31
0
0
LINE
5
837
100
AcDbEntity
8
0
100
AcDbLine
10
147.26507806807089
20
791.59536559830758
30
0
11
147.26507806807089
21
787.83235560712899
31
0
0
LINE
5
838
100
AcDbEntity
8
0
100
AcDbLine
10
147.26507806807089
20
787.83235560712899
30
0
11
145.00382806807096
21
787.91430565419489
31
0
0
LINE
5
839
100
AcDbEntity
8
0
100
AcDbLine
10
147.26507806807092
20
796.35837558948606
30
0
11
147.26507806807092
21
792.59536559830747
31
0
0
LINE
5
840
100
AcDbEntity
8
0
100
AcDbLine
10
136.94259724577734
20
796.61404276452242
30
0
11
139.2038472457773
21
796.55803613108776
31
0
0
LINE
5
841
100
AcDbEntity
8
0
100
AcDbLine
10
139.20384724577727
20
791.84126955518832
30
0
11
139.20384724577727
21
788.12450297928876
31
0
0
LINE
5
842
100
AcDbEntity
8
0
100
AcDbLine
10
139.20384724577727
20
788.12450297928876
30
0
11
136.94259724577734
21
788.20645302635455
31
0
0
LINE
5
843
100
AcDbEntity
8
0
100
AcDbLine
10
136.94259724577734
20
788.20645302635455
30
0
11
136.94259724577734
21
796.61404276452242
31
0
0
LINE
5
844
100
AcDbEntity
8
0
100
AcDbLine
10
139.2038472457773
20
796.55803613108776
30
0
11
139.2038472457773
21
792.84126955518832
31
0
0
LINE
5
845
100
AcDbEntity
8
0
100
AcDbLine
10
136.94259724577734
20
812.17383439538139
30
0
11
139.2038472457773
21
812.22984102881605
31
0
0
LINE
5
846
100
AcDbEntity
8
0
100
AcDbLine
10
139.2038472457773
20
816.94660760471561
30
0
11
139.2038472457773
21
820.66337418061505
31
0
0
LINE
5
847
100
AcDbEntity
8
0
100
AcDbLine
10
139.2038472457773
20
820.66337418061505
30
0
11
136.94259724577734
21
820.58142413354926
31
0
0
LINE
5
848
100
AcDbEntity
8
0
100
AcDbLine
10
136.94259724577734
20
820.58142413354926
30
0
11
136.94259724577734
21
812.17383439538139
31
0
0
LINE
5
849
100
AcDbEntity
8
0
100
AcDbLine
10
139.2038472457773
20
812.22984102881605
30
0
11
139.2038472457773
21
815.94660760471572
31
0
0
LINE
5
850
100
AcDbEntity
8
0
100
AcDbLine
10
147.32834235934317
20
785.70851948321956
30
0
11
133.82259724577722
21
788.2073942345346
31
0
0
LINE
5
851
100
AcDbEntity
8
0
100
AcDbLine
10
133.82259724577722
20
798.2073942345346
30
0
11
133.82259724577722
21
820.58048292536921
31
0
0
LINE
5
852
100
AcDbEntity
8
0
100
AcDbLine
10
147.3283423593432
20
823.07935767668425
30
0
11
133.82259724577722
21
820.58048292536921
31
0
0
LINE
5
853
100
AcDbEntity
8
0
100
AcDbLine
10
153.38507847970993
20
821.27994804015748
30
0
11
147.3283423593432
21
823.07935767668425
31
0
0
LINE
5
854
100
AcDbEntity
8
0
100
AcDbLine
10
153.3850784797099
20
797.50792911974656
30
0
11
153.38507847970993
21
821.27994804015748
31
0
0
LINE
5
855
100
AcDbEntity
8
0
100
AcDbLine
10
153.38507847970988
20
787.50792911974656
30
0
11
147.32834235934317
21
785.70851948321956
31
0
0
LINE
5
856
100
AcDbEntity
8
0
100
AcDbLine
10
153.38507847970988
20
787.50792911974656
30
0
11
153.3850784797099
21
796.50792911974668
31
0
0
LINE
5
857
100
AcDbEntity
8
0
100
AcDbLine
10
133.82259724577722
20
788.2073942345346
30
0
11
133.82259724577722
21
797.2073942345346
31
0
0
LINE
5
858
100
AcDbEntity
8
0
100
AcDbLine
10
138.2094441696043
20
767.18854601339274
30
0
11
140.59069416960429
21
767.18854601339285
31
0
0
LINE
5
859
100
AcDbEntity
8
0
100
AcDbLine
10
140.59069416960426
20
747.27364755275676
30
0
11
140.59069416960429
21
767.18854601339285
31
0
0
LINE
5
860
100
AcDbEntity
8
0
100
AcDbLine
10
138.20944416960427
20
747.27364755275676
30
0
11
140.59069416960426
21
747.27364755275676
31
0
0
LINE
5
861
100
AcDbEntity
8
0
100
AcDbLine
10
138.20944416960427
20
747.27364755275676
30
0
11
138.20944416960424
21
737.5617179508472
31
0
0
LINE
5
862
100
AcDbEntity
8
0
100
AcDbLine
10
140.59069416960423
20
737.56171795084708
30
0
11
138.20944416960424
21
737.5617179508472
31
0
0
LINE
5
863
100
AcDbEntity
8
0
100
AcDbLine
10
140.59069416960443
20
729.68649118592054
30
0
11
140.59069416960423
21
737.56171795084708
31
0
0
SPLINE
5
864
100
AcDbEntity
8
0
100
AcDbSpline
70
0
71
3
72
14
73
10
74
0
42
0.000000001
43
0.0000000001
44
0.0000000001
40
-0.0060700598291049783
40
-0.0060700598291049783
40
-0.0060700598291049783
40
-0.0060700598291049783
40
0
40
0
40
0
40
0.061896962420345113
40
0.061896962420345113
40
0.061896962420345113
40
0.06780610998863798
40
0.06780610998863798
40
0.06780610998863798
40
0.06780610998863798
10
140.59069416960432
20
729.68649118592066
30
0
10
140.61092633902101
20
729.68672606629548
30
0
10
140.63115850843778
20
729.68696094667052
30
0
10
140.65139067785455
20
729.68719582704568
30
0
10
140.85778347498757
20
729.68959189326051
30
0
10
141.06411682958307
20
729.69241815625253
30
0
10
141.27039065436139
20
729.69567247837585
30
0
10
141.29007515944153
20
729.69598303508587
30
0
10
141.30975966452166
20
729.69629359179578
30
0
10
141.32944416960194
20
729.69660414850568
30
0
0
LINE
5
865
100
AcDbEntity
8
0
100
AcDbLine
10
141.32944416960197
20
729.6966041485058
30
0
11
141.32944416960171
21
729.83971901285622
31
0
0
LINE
5
866
100
AcDbEntity
8
0
100
AcDbLine
10
141.32944416960171
20
729.83971901285622
30
0
11
148.32944416960427
21
740.11156187823633
31
0
0
LINE
5
867
100
AcDbEntity
8
0
100
AcDbLine
10
148.32944416960427
20
750.11156187823633
30
0
11
148.32944416960433
21
774.35063168791316
31
0
0
LINE
5
868
100
AcDbEntity
8
0
100
AcDbLine
10
141.32944416960183
20
784.62247455329316
30
0
11
148.32944416960433
21
774.35063168791316
31
0
0
LINE
5
869
100
AcDbEntity
8
0
100
AcDbLine
10
141.32944416960174
20
784.76558941764347
30
0
11
141.32944416960183
21
784.62247455329316
31
0
0
SPLINE
5
870
100
AcDbEntity
8
0
100
AcDbSpline
70
0
71
3
72
14
73
10
74
0
42
0.000000001
43
0.0000000001
44
0.0000000001
40
-0.0060700598291195326
40
-0.0060700598291195326
40
-0.0060700598291195326
40
-0.0060700598291195326
40
0
40
0
40
0
40
0.061896962420345113
40
0.061896962420345113
40
0.061896962420345113
40
0.067806109988624214
40
0.067806109988624214
40
0.067806109988624214
40
0.067806109988624214
10
140.59069416960415
20
784.77570238022906
30
0
10
140.61092633902103
20
784.77546749985379
30
0
10
140.63115850843784
20
784.77523261947886
30
0
10
140.65139067785464
20
784.77499773910381
30
0
10
140.85778347498766
20
784.77260167288887
30
0
10
141.06411682958318
20
784.76977540989697
30
0
10
141.27039065436148
20
784.76652108777353
30
0
10
141.29007515944159
20
784.76621053106373
30
0
10
141.30975966452166
20
784.76589997435383
30
0
10
141.32944416960174
20
784.7655894176437
30
0
0
LINE
5
871
100
AcDbEntity
8
0
100
AcDbLine
10
140.59069416960415
20
784.77570238022906
30
0
11
140.59069416960432
21
776.90047561530241
31
0
0
LINE
5
872
100
AcDbEntity
8
0
100
AcDbLine
10
140.59069416960432
20
776.90047561530241
30
0
11
138.20944416960432
21
776.90047561530218
31
0
0
LINE
5
873
100
AcDbEntity
8
0
100
AcDbLine
10
138.2094441696043
20
767.18854601339274
30
0
11
138.20944416960432
21
776.90047561530218
31
0
0
LINE
5
874
100
AcDbEntity
8
0
100
AcDbLine
10
148.32944416960427
20
740.11156187823633
30
0
11
148.32944416960427
21
749.11156187823633
31
0
0
LINE
5
875
100
AcDbEntity
8
0
100
AcDbLine
10
115.26710006257296
20
586.74784900344241
30
0
11
115.26710006257289
21
595.61849193963417
31
0
0
LINE
5
876
100
AcDbEntity
8
0
100
AcDbLine
10
115.26710006257304
20
576.87720606725077
30
0
11
115.26710006257296
21
585.74784900344252
31
0
0
LINE
5
877
100
AcDbEntity
8
0
100
AcDbLine
10
145.55650601606132
20
584.82204452336919
30
0
11
145.55650601606132
21
576.18553046949967
31
0
0
LINE
5
878
100
AcDbEntity
8
0
100
AcDbLine
10
145.55650601606132
20
576.18553046949967
30
0
11
147.02400601606129
21
576.14918343376053
31
0
0
LINE
5
879
100
AcDbEntity
8
0
100
AcDbLine
10
147.02400601606129
20
576.14918343376053
30
0
11
147.02400601606129
21
594.40537485404593
31
0
0
LINE
5
880
100
AcDbEntity
8
0
100
AcDbLine
10
147.02400601606129
20
594.40537485404593
30
0
11
145.55650601606132
21
594.45855857723859
31
0
0
LINE
5
881
100
AcDbEntity
8
0
100
AcDbLine
10
145.55650601606132
20
594.45855857723859
30
0
11
145.55650601606132
21
585.82204452336907
31
0
0
LINE
5
882
100
AcDbEntity
8
0
100
AcDbLine
10
149.55650601606123
20
594.41289031649353
30
0
11
145.49847779252127
21
596.44190442826346
31
0
0
LINE
5
883
100
AcDbEntity
8
0
100
AcDbLine
10
145.49847779252127
20
596.44190442826346
30
0
11
141.48528768666637
21
594.72619372481188
31
0
0
ARC
5
884
100
AcDbEntity
8
0
100
AcDbCircle
10
-331.97737526525668
20
-12175.807287981646
30
0
40
12779.307191729733
210
0
220
-0
230
1
100
AcDbArc
50
87.92158807840562
51
87.97215984395514
0
LINE
5
885
100
AcDbEntity
8
0
100
AcDbLine
10
120.21967425380706
20
595.49687913462833
30
0
11
115.21088172146874
21
597.50039614755576
31
0
0
LINE
5
886
100
AcDbEntity
8
0
100
AcDbLine
10
115.21088172146874
20
597.50039614755576
30
0
11
109.14710029225121
21
595.88202484813462
31
0
0
LINE
5
887
100
AcDbEntity
8
0
100
AcDbLine
10
109.1471002922512
20
508.33423377313693
30
0
11
109.14710029225121
21
595.88202484813462
31
0
0
LINE
5
888
100
AcDbEntity
8
0
100
AcDbLine
10
115.21088172146875
20
496.71586247371579
30
0
11
109.1471002922512
21
498.33423377313693
31
0
0
LINE
5
889
100
AcDbEntity
8
0
100
AcDbLine
10
120.21967425380838
20
498.71937948664942
30
0
11
115.21088172146875
21
496.71586247371579
31
0
0
ARC
5
890
100
AcDbEntity
8
0
100
AcDbCircle
10
-331.97737494622623
20
13270.023537816543
30
0
40
12779.307182937569
210
0
220
0
230
1
100
AcDbArc
50
272.07267496488663
51
272.12324673047004
0
LINE
5
891
100
AcDbEntity
8
0
100
AcDbLine
10
145.49847779252187
20
497.77435419300832
30
0
11
141.48528768647296
21
499.49006489645205
31
0
0
LINE
5
892
100
AcDbEntity
8
0
100
AcDbLine
10
149.55650601606126
20
499.80336830477796
30
0
11
145.49847779252187
21
497.77435419300832
31
0
0
LINE
5
893
100
AcDbEntity
8
0
100
AcDbLine
10
149.55650601606123
20
584.41289031649353
30
0
11
149.55650601606126
21
499.80336830477796
31
0
0
ARC
5
894
100
AcDbEntity
8
0
100
AcDbCircle
10
-331.97737494622623
20
13270.023537816543
30
0
40
12779.307182937566
210
0
220
0
230
1
100
AcDbArc
50
272.02784015600935
51
272.06819148399887
0
LINE
5
895
100
AcDbEntity
8
0
100
AcDbLine
10
149.55650601606123
20
594.41289031649353
30
0
11
149.55650601606123
21
585.41289031649353
31
0
0
ARC
5
896
100
AcDbEntity
8
0
100
AcDbCircle
10
-331.97737526525668
20
-12175.807287981646
30
0
40
12779.307191729731
210
0
220
-0
230
1
100
AcDbArc
50
87.876753269559217
51
87.917104597520975
0
LINE
5
897
100
AcDbEntity
8
0
100
AcDbLine
10
109.1471002922512
20
498.33423377313693
30
0
11
109.1471002922512
21
507.33423377313693
31
0
0
LINE
5
898
100
AcDbEntity
8
0
100
AcDbLine
10
145.55650601606132
20
518.03072815177177
30
0
11
147.02400601606129
21
518.06707518751102
31
0
0
LINE
5
899
100
AcDbEntity
8
0
100
AcDbLine
10
147.02400601606129
20
518.06707518751102
30
0
11
147.02400601606129
21
499.8108837672255
31
0
0
LINE
5
900
100
AcDbEntity
8
0
100
AcDbLine
10
147.02400601606129
20
499.8108837672255
30
0
11
145.55650601606132
21
499.75770004403296
31
0
0
LINE
5
901
100
AcDbEntity
8
0
100
AcDbLine
10
145.55650601606132
20
509.39421409790236
30
0
11
145.55650601606132
21
518.03072815177177
31
0
0
LINE
5
902
100
AcDbEntity
8
0
100
AcDbLine
10
145.55650601606132
20
499.75770004403296
30
0
11
145.55650601606132
21
508.39421409790242
31
0
0
LINE
5
903
100
AcDbEntity
8
0
100
AcDbLine
10
115.14710006257296
20
507.46840961782908
30
0
11
115.14710006257289
21
498.59776668163732
31
0
0
LINE
5
904
100
AcDbEntity
8
0
100
AcDbLine
10
115.14710006257303
20
517.33905255402078
30
0
11
115.14710006257296
21
508.46840961782902
31
0
0
LINE
5
905
100
AcDbEntity
8
0
100
AcDbLine
10
114.68036304379808
20
776.0194912193889
30
0
11
116.94161304379804
21
775.96348458595412
31
0
0
LINE
5
906
100
AcDbEntity
8
0
100
AcDbLine
10
116.94161304379804
20
775.96348458595412
30
0
11
116.94161304379804
21
786.94410824284944
31
0
0
LINE
5
907
100
AcDbEntity
8
0
100
AcDbLine
10
116.94161304379804
20
786.94410824284944
30
0
11
114.68036304379808
21
787.02605828991523
31
0
0
LINE
5
908
100
AcDbEntity
8
0
100
AcDbLine
10
114.68036304379808
20
781.02277475465212
30
0
11
114.68036304379808
21
776.0194912193889
31
0
0
LINE
5
909
100
AcDbEntity
8
0
100
AcDbLine
10
114.68036304379808
20
787.02605828991523
30
0
11
114.68036304379808
21
782.02277475465212
31
0
0
LINE
5
910
100
AcDbEntity
8
0
100
AcDbLine
10
121.20943806609006
20
786.78943783424972
30
0
11
118.9481880660901
21
786.87138788131563
31
0
0
LINE
5
911
100
AcDbEntity
8
0
100
AcDbLine
10
118.94818806609008
20
780.89258681147169
30
0
11
118.94818806609008
21
775.91378574162786
31
0
0
LINE
5
912
100
AcDbEntity
8
0
100
AcDbLine
10
118.94818806609008
20
775.91378574162786
30
0
11
121.20943806609006
21
775.8577791081932
31
0
0
LINE
5
913
100
AcDbEntity
8
0
100
AcDbLine
10
121.20943806609006
20
775.8577791081932
30
0
11
121.20943806609006
21
786.78943783424972
31
0
0
LINE
5
914
100
AcDbEntity
8
0
100
AcDbLine
10
118.9481880660901
20
786.87138788131563
30
0
11
118.9481880660901
21
781.89258681147169
31
0
0
LINE
5
915
100
AcDbEntity
8
0
100
AcDbLine
10
118.94818806609011
20
744.36526105154655
30
0
11
118.94818806609011
21
749.34406212139038
31
0
0
LINE
5
916
100
AcDbEntity
8
0
100
AcDbLine
10
118.94818806609011
20
749.34406212139038
30
0
11
121.20943806609006
21
749.40006875482527
31
0
0
LINE
5
917
100
AcDbEntity
8
0
100
AcDbLine
10
121.20943806609006
20
749.40006875482527
30
0
11
121.20943806609004
21
738.46841002876874
31
0
0
LINE
5
918
100
AcDbEntity
8
0
100
AcDbLine
10
121.20943806609004
20
738.46841002876874
30
0
11
118.9481880660901
21
738.38645998170273
31
0
0
LINE
5
919
100
AcDbEntity
8
0
100
AcDbLine
10
118.9481880660901
20
738.38645998170273
30
0
11
118.9481880660901
21
743.36526105154667
31
0
0
LINE
5
920
100
AcDbEntity
8
0
100
AcDbLine
10
114.68036304379808
20
749.23835664362957
30
0
11
116.94161304379804
21
749.29436327706424
31
0
0
LINE
5
921
100
AcDbEntity
8
0
100
AcDbLine
10
116.94161304379804
20
749.29436327706424
30
0
11
116.94161304379803
21
738.31373962016914
31
0
0
LINE
5
922
100
AcDbEntity
8
0
100
AcDbLine
10
116.94161304379803
20
738.31373962016914
30
0
11
114.68036304379808
21
738.23178957310324
31
0
0
LINE
5
923
100
AcDbEntity
8
0
100
AcDbLine
10
114.68036304379808
20
744.23507310836624
30
0
11
114.68036304379808
21
749.23835664362957
31
0
0
LINE
5
924
100
AcDbEntity
8
0
100
AcDbLine
10
114.68036304379808
20
738.23178957310324
30
0
11
114.68036304379808
21
743.23507310836635
31
0
0
LINE
5
925
100
AcDbEntity
8
0
100
AcDbLine
10
118.27281654102231
20
788.90971311383794
30
0
11
111.20943806609006
21
787.25729664581422
31
0
0
LINE
5
926
100
AcDbEntity
8
0
100
AcDbLine
10
111.20943806609004
20
748.00055121720425
30
0
11
111.20943806609006
21
787.25729664581422
31
0
0
LINE
5
927
100
AcDbEntity
8
0
100
AcDbLine
10
118.27281654102235
20
736.34813474918042
30
0
11
111.20943806609004
21
738.00055121720425
31
0
0
LINE
5
928
100
AcDbEntity
8
0
100
AcDbLine
10
124.32943806609177
20
738.47675771614104
30
0
11
118.27281654102235
21
736.34813474918042
31
0
0
LINE
5
929
100
AcDbEntity
8
0
100
AcDbLine
10
124.32943806609188
20
776.78109014687732
30
0
11
124.32943806609177
21
738.47675771614104
31
0
0
LINE
5
930
100
AcDbEntity
8
0
100
AcDbLine
10
124.3294380660919
20
786.78109014687732
30
0
11
118.27281654102231
21
788.90971311383794
31
0
0
LINE
5
931
100
AcDbEntity
8
0
100
AcDbLine
10
124.3294380660919
20
786.78109014687732
30
0
11
124.32943806609188
21
777.78109014687732
31
0
0
LINE
5
932
100
AcDbEntity
8
0
100
AcDbLine
10
111.20943806609004
20
738.00055121720425
30
0
11
111.20943806609004
21
747.00055121720425
31
0
0
LINE
5
933
100
AcDbEntity
8
0
100
AcDbLine
10
144.91116572764074
20
332.17666328719861
30
0
11
144.91116572764074
21
320.68288383941047
31
0
0
LINE
5
934
100
AcDbEntity
8
0
100
AcDbLine
10
147.29241572764076
20
320.68288383941052
30
0
11
144.91116572764074
21
320.68288383941047
31
0
0
LINE
5
935
100
AcDbEntity
8
0
100
AcDbLine
10
147.29241572764076
20
320.68288383941052
30
0
11
147.29241572764076
21
312.92137118268755
31
0
0
LINE
5
936
100
AcDbEntity
8
0
100
AcDbLine
10
144.91116572764074
20
312.92137118268755
30
0
11
147.29241572764076
21
312.92137118268755
31
0
0
LINE
5
937
100
AcDbEntity
8
0
100
AcDbLine
10
144.91116572764065
20
306.21072053097652
30
0
11
144.91116572764074
21
312.92137118268755
31
0
0
SPLINE
5
938
100
AcDbEntity
8
0
100
AcDbSpline
70
0
71
3
72
14
73
10
74
0
42
0.000000001
43
0.0000000001
44
0.0000000001
40
-0.006029045898419353
40
-0.006029045898419353
40
-0.006029045898419353
40
-0.006029045898419353
40
0
40
0
40
0
40
0.061895853290794535
40
0.061895853290794535
40
0.061895853290794535
40
0.067849084532758799
40
0.067849084532758799
40
0.067849084532758799
40
0.067849084532758799
10
144.91116572764048
20
306.21072053097646
30
0
10
144.89106914232752
20
306.21081758385736
30
0
10
144.87097255701457
20
306.21091463673827
30
0
10
144.85087597170161
20
306.21101168961911
30
0
10
144.64448631313834
20
306.21200841173066
30
0
10
144.43816445847699
20
306.21337917669331
30
0
10
144.23190877741609
20
306.21512192830755
30
0
10
144.21207776082525
20
306.21528948992813
30
0
10
144.19224674423438
20
306.2154570515487
30
0
10
144.17241572764348
20
306.21562461316933
30
0
0
LINE
5
939
100
AcDbEntity
8
0
100
AcDbLine
10
144.17241572764345
20
306.21562461316933
30
0
11
144.17241572764351
21
306.35906377620086
31
0
0
LINE
5
940
100
AcDbEntity
8
0
100
AcDbLine
10
144.17241572764351
20
306.35906377620086
30
0
11
137.17241572764073
21
316.56976491452428
31
0
0
LINE
5
941
100
AcDbEntity
8
0
100
AcDbLine
10
137.17241572764073
20
325.92977356330448
30
0
11
137.17241572764073
21
316.56976491452428
31
0
0
LINE
5
942
100
AcDbEntity
8
0
100
AcDbLine
10
144.17241572764354
20
346.50048335040822
30
0
11
137.17241572764075
21
336.28978221208467
31
0
0
LINE
5
943
100
AcDbEntity
8
0
100
AcDbLine
10
144.17241572764351
20
346.64392251343969
30
0
11
144.17241572764354
21
346.50048335040822
31
0
0
SPLINE
5
944
100
AcDbEntity
8
0
100
AcDbSpline
70
0
71
3
72
14
73
10
74
0
42
0.000000001
43
0.0000000001
44
0.0000000001
40
-0.0060290458984094512
40
-0.0060290458984094512
40
-0.0060290458984094512
40
-0.0060290458984094512
40
0
40
0
40
0
40
0.061895853290794535
40
0.061895853290794535
40
0.061895853290794535
40
0.067849084532763088
40
0.067849084532763088
40
0.067849084532763088
40
0.067849084532763088
10
144.91116572764037
20
346.6488265956325
30
0
10
144.8910691423275
20
346.6487295427516
30
0
10
144.87097255701457
20
346.64863248987075
30
0
10
144.85087597170164
20
346.6485354369899
30
0
10
144.64448631313837
20
346.64753871487841
30
0
10
144.43816445847705
20
346.64616794991571
30
0
10
144.23190877741615
20
346.64442519830152
30
0
10
144.21207776082528
20
346.64425763668089
30
0
10
144.19224674423441
20
346.64409007506038
30
0
10
144.17241572764351
20
346.64392251343992
30
0
0
LINE
5
945
100
AcDbEntity
8
0
100
AcDbLine
10
144.91116572764037
20
346.6488265956325
30
0
11
144.91116572764076
21
339.93817594392158
31
0
0
LINE
5
946
100
AcDbEntity
8
0
100
AcDbLine
10
144.91116572764076
20
339.93817594392158
30
0
11
147.29241572764079
21
339.93817594392158
31
0
0
LINE
5
947
100
AcDbEntity
8
0
100
AcDbLine
10
147.29241572764079
20
332.17666328719861
30
0
11
147.29241572764079
21
339.93817594392158
31
0
0
LINE
5
948
100
AcDbEntity
8
0
100
AcDbLine
10
147.29241572764079
20
332.17666328719861
30
0
11
144.91116572764074
21
332.17666328719861
31
0
0
LINE
5
949
100
AcDbEntity
8
0
100
AcDbLine
10
137.17241572764075
20
336.28978221208467
30
0
11
137.17241572764075
21
326.92977356330448
31
0
0
LINE
5
950
100
AcDbEntity
8
0
100
AcDbLine
10
164.00168124249097
20
742.1049142400193
30
0
11
164.49562840965737
21
797.66441744028396
31
0
0
LINE
5
951
100
AcDbEntity
8
0
100
AcDbLine
10
164.49562840965737
20
797.66441744028396
30
0
11
160.44333244457283
21
800.49927395580926
31
0
0
LINE
5
952
100
AcDbEntity
8
0
100
AcDbLine
10
160.44333244457283
20
800.49927395580926
30
0
11
156.34417765327404
21
794.16290999651005
31
0
0
LINE
5
953
100
AcDbEntity
8
0
100
AcDbLine
10
156.25527699376514
20
784.16330517068127
30
0
11
155.76942153222507
21
729.51396235691516
31
0
0
LINE
5
954
100
AcDbEntity
8
0
100
AcDbLine
10
155.76942153222507
20
729.51396235691516
30
0
11
159.81815399639331
21
726.68159875253923
31
0
0
LINE
5
955
100
AcDbEntity
8
0
100
AcDbLine
10
159.81815399639331
20
726.68159875253923
30
0
11
163.9127805829819
21
732.10530941419051
31
0
0
LINE
5
956
100
AcDbEntity
8
0
100
AcDbLine
10
156.34417765327404
20
794.16290999651005
30
0
11
156.26416705971604
21
785.16326565326426
31
0
0
LINE
5
957
100
AcDbEntity
8
0
100
AcDbLine
10
163.9127805829819
20
732.10530941419051
30
0
11
163.99279117654009
21
741.10495375743642
31
0
0
LINE
5
958
100
AcDbEntity
8
0
100
AcDbLine
10
130.4145375531962
20
903.15761066487937
30
0
11
130.41453755319623
21
920.21053016846668
31
0
0
LINE
5
959
100
AcDbEntity
8
0
100
AcDbLine
10
132.79578755319622
20
920.21053016846668
30
0
11
130.41453755319623
21
920.21053016846668
31
0
0
LINE
5
960
100
AcDbEntity
8
0
100
AcDbLine
10
132.79578755319648
20
932.31497172465106
30
0
11
132.79578755319622
21
920.21053016846668
31
0
0
SPLINE
5
961
100
AcDbEntity
8
0
100
AcDbSpline
70
0
71
3
72
14
73
10
74
0
42
0.000000001
43
0.0000000001
44
0.0000000001
40
-0.0060870099214569116
40
-0.0060870099214569116
40
-0.0060870099214569116
40
-0.0060870099214569116
40
0
40
0
40
0
40
0.061912036235670216
40
0.061912036235670216
40
0.061912036235670216
40
0.067806374691119817
40
0.067806374691119817
40
0.067806374691119817
40
0.067806374691119817
10
132.79578755319631
20
932.3149717246514
30
0
10
132.81607548350627
20
932.31467961887574
30
0
10
132.8363634138162
20
932.3143875131002
30
0
10
132.85665134412611
20
932.31409540732454
30
0
10
133.063089174048
20
932.31112311387267
30
0
10
133.26942424223498
20
932.30770954230479
30
0
10
133.47565840369691
20
932.30385624216967
30
0
10
133.49528478686267
20
932.30348954082217
30
0
10
133.51491117002843
20
932.30312283947478
30
0
10
133.53453755319438
20
932.30275613812751
30
0
0
LINE
5
962
100
AcDbEntity
8
0
100
AcDbLine
10
133.53453755319438
20
932.30275613812762
30
0
11
133.53453755319418
21
932.17263428766944
31
0
0
LINE
5
963
100
AcDbEntity
8
0
100
AcDbLine
10
133.53453755319418
20
932.17263428766944
30
0
11
140.53453755319572
21
921.87333956493319
31
0
0
LINE
5
964
100
AcDbEntity
8
0
100
AcDbLine
10
140.53453755319572
20
911.87333956493319
30
0
11
140.53453755319561
21
832.83152978246653
31
0
0
LINE
5
965
100
AcDbEntity
8
0
100
AcDbLine
10
133.53453755319401
20
822.53223505972994
30
0
11
140.53453755319561
21
832.83152978246653
31
0
0
LINE
5
966
100
AcDbEntity
8
0
100
AcDbLine
10
133.53453755319404
20
822.40211320927233
30
0
11
133.53453755319401
21
822.53223505972994
31
0
0
SPLINE
5
967
100
AcDbEntity
8
0
100
AcDbSpline
70
0
71
3
72
14
73
10
74
0
42
0.000000001
43
0.0000000001
44
0.0000000001
40
-0.0060870099214675906
40
-0.0060870099214675906
40
-0.0060870099214675906
40
-0.0060870099214675906
40
0
40
0
40
0
40
0.061912036235670216
40
0.061912036235670216
40
0.061912036235670216
40
0.06780637469112348
40
0.06780637469112348
40
0.06780637469112348
40
0.06780637469112348
10
132.79578755319613
20
822.38989762274844
30
0
10
132.81607548350604
20
822.39018972852386
30
0
10
132.83636341381597
20
822.39048183429941
30
0
10
132.85665134412591
20
822.39077394007495
30
0
10
133.0630891740478
20
822.39374623352683
30
0
10
133.26942424223478
20
822.3971598050947
30
0
10
133.47565840369671
20
822.40101310522982
30
0
10
133.4952847868625
20
822.40137980657755
30
0
10
133.51491117002831
20
822.40174650792494
30
0
10
133.53453755319407
20
822.40211320927244
30
0
0
LINE
5
968
100
AcDbEntity
8
0
100
AcDbLine
10
132.79578755319613
20
822.38989762274844
30
0
11
132.79578755319608
21
834.49433917893293
31
0
0
LINE
5
969
100
AcDbEntity
8
0
100
AcDbLine
10
132.79578755319608
20
834.49433917893293
30
0
11
130.41453755319606
21
834.49433917893293
31
0
0
LINE
5
970
100
AcDbEntity
8
0
100
AcDbLine
10
130.41453755319608
20
851.54725868252012
30
0
11
130.41453755319606
21
834.49433917893293
31
0
0
LINE
5
971
100
AcDbEntity
8
0
100
AcDbLine
10
130.41453755319608
20
851.54725868252012
30
0
11
132.79578755319611
21
851.54725868252012
31
0
0
LINE
5
972
100
AcDbEntity
8
0
100
AcDbLine
10
132.79578755319616
20
893.15761066487937
30
0
11
132.79578755319611
21
851.54725868252012
31
0
0
LINE
5
973
100
AcDbEntity
8
0
100
AcDbLine
10
130.4145375531962
20
903.15761066487937
30
0
11
132.79578755319619
21
903.15761066487937
31
0
0
LINE
5
974
100
AcDbEntity
8
0
100
AcDbLine
10
140.53453755319572
20
921.87333956493319
30
0
11
140.53453755319572
21
912.87333956493308
31
0
0
LINE
5
975
100
AcDbEntity
8
0
100
AcDbLine
10
132.79578755319619
20
903.15761066487937
30
0
11
132.79578755319616
21
894.15761066487926
31
0
0
ENDSEC
0
SECTION
2
OBJECTS
0
DICTIONARY
5
C
100
AcDbDictionary
3
ACAD_GROUP
350
D
3
ACAD_MLINESTYLE
350
17
0
DICTIONARY
5
D
100
AcDbDictionary
0
DICTIONARY
5
1A
330
C
100
AcDbDictionary
0
DICTIONARY
5
17
100
AcDbDictionary
0
ENDSEC
0
EOF
