0
SECTION
2
HEADER
9
$INSUNITS
70
4
9
$ACADVER
1
AC1014
9
$HANDSEED
5
FFFF
0
ENDSEC
0
SECTION
2
TABLES
0
TABLE
2
VPORT
5
8
100
AcDbSymbolTable
0
ENDTAB
0
TABLE
2
LTYPE
5
5
100
AcDbSymbolTable
0
LTYPE
5
14
100
AcDbSymbolTableRecord
100
AcDbLinetypeTableRecord
2
BYBLOCK
70
0
0
LTYPE
5
15
100
AcDbSymbolTableRecord
100
AcDbLinetypeTableRecord
2
BYLAYER
70
0
0
ENDTAB
0
TABLE
2
LAYER
5
2
100
AcDbSymbolTable
70
2
0
LAYER
5
50
100
AcDbSymbolTableRecord
100
AcDbLayerTableRecord
2
0
70
0
6
CONTINUOUS
0
ENDTAB
0
TABLE
2
STYLE
5
3
100
AcDbSymbolTable
70
1
0
STYLE
5
11
100
AcDbSymbolTableRecord
100
AcDbTextStyleTableRecord
2
STANDARD
70
0
0
ENDTAB
0
TABLE
2
VIEW
5
6
100
AcDbSymbolTable
70
0
0
ENDTAB
0
TABLE
2
UCS
5
7
100
AcDbSymbolTable
70
0
0
ENDTAB
0
TABLE
2
APPID
5
9
100
AcDbSymbolTable
70
2
0
APPID
5
12
100
AcDbSymbolTableRecord
100
AcDbRegAppTableRecord
2
ACAD
70
0
0
ENDTAB
0
TABLE
2
DIMSTYLE
5
A
100
AcDbSymbolTable
70
1
0
ENDTAB
0
TABLE
2
BLOCK_RECORD
5
1
100
AcDbSymbolTable
70
1
0
BLOCK_RECORD
5
1F
100
AcDbSymbolTableRecord
100
AcDbBlockTableRecord
2
*MODEL_SPACE
0
BLOCK_RECORD
5
1B
100
AcDbSymbolTableRecord
100
AcDbBlockTableRecord
2
*PAPER_SPACE
0
ENDTAB
0
ENDSEC
0
SECTION
2
BLOCKS
0
BLOCK
5
20
100
AcDbEntity
100
AcDbBlockBegin
2
*MODEL_SPACE
0
ENDBLK
5
21
100
AcDbEntity
100
AcDbBlockEnd
0
BLOCK
5
1C
100
AcDbEntity
100
AcDbBlockBegin
2
*PAPER_SPACE
0
ENDBLK
5
1D
100
AcDbEntity
100
AcDbBlockEnd
0
ENDSEC
0
SECTION
2
ENTITIES
0
LINE
5
100
100
AcDbEntity
8
0
100
AcDbLine
10
45.5553209772252
20
232.83611034837287
30
0
11
45.555320977226671
21
251.50590585521365
31
0
0
LINE
5
101
100
AcDbEntity
8
0
100
AcDbLine
10
39.240104947250181
20
248.11296415187957
30
0
11
45.555320977226671
21
251.50590585521365
31
0
0
LINE
5
102
100
AcDbEntity
8
0
100
AcDbLine
10
39.240104947249371
20
238.11296415187957
30
0
11
39.240104947244241
21
174.59552597597099
31
0
0
LINE
5
103
100
AcDbEntity
8
0
100
AcDbLine
10
39.240104947244241
20
174.59552597597099
30
0
11
45.555320977220219
21
171.20258427263579
31
0
0
LINE
5
104
100
AcDbEntity
8
0
100
AcDbLine
10
45.555320977221704
20
189.87237977947657
30
0
11
45.555320977220219
21
171.20258427263579
31
0
0
LINE
5
105
100
AcDbEntity
8
0
100
AcDbLine
10
48.106302018697271
20
189.87237977947632
30
0
11
45.555320977221704
21
189.87237977947657
31
0
0
LINE
5
106
100
AcDbEntity
8
0
100
AcDbLine
10
48.1063020186999
20
222.83611034837264
30
0
11
48.106302018697271
21
189.87237977947632
31
0
0
LINE
5
107
100
AcDbEntity
8
0
100
AcDbLine
10
48.106302018700696
20
232.83611034837264
30
0
11
45.5553209772252
21
232.83611034837287
31
0
0
LINE
5
108
100
AcDbEntity
8
0
100
AcDbLine
10
39.240104947250181
20
248.11296415187957
30
0
11
39.240104947249449
21
239.11296415187959
31
0
0
LINE
5
109
100
AcDbEntity
8
0
100
AcDbLine
10
48.106302018700696
20
232.83611034837264
30
0
11
48.106302018699978
21
223.83611034837264
31
0
0
LINE
5
110
100
AcDbEntity
8
0
100
AcDbLine
10
61.158341930379613
20
329.93442902892252
30
0
11
60.443171996370026
21
327.53668120156476
31
0
0
LINE
5
111
100
AcDbEntity
8
0
100
AcDbLine
10
60.443171996370026
20
327.53668120156476
30
0
11
55.615861126652248
21
328.98072444170862
31
0
0
SPLINE
5
112
100
AcDbEntity
8
0
100
AcDbSpline
70
0
71
3
72
11
73
7
74
0
42
0.000000001
43
0.0000000001
44
0.0000000001
40
0
40
0
40
0
40
0
40
1.3440412916600648
40
1.3440412916600648
40
1.3440412916600648
40
1.5125806380868212
40
1.5125806380868212
40
1.5125806380868212
40
1.5125806380868212
10
52.99977479691961
20
314.38897705078125
30
0
10
52.999774796919681
20
318.8604905019954
30
0
10
53.964216540441328
20
323.38557502442967
30
0
10
55.148671171045443
20
327.44180106503933
30
0
10
55.297191485208472
20
327.9504165495855
30
0
10
55.45301708131035
20
328.46361938958796
30
0
10
55.615861126652234
20
328.98072444170856
30
0
0
SPLINE
5
113
100
AcDbEntity
8
0
100
AcDbSpline
70
0
71
3
72
11
73
7
74
0
42
0.000000001
43
0.0000000001
44
0.0000000001
40
0
40
0
40
0
40
0
40
1.3440412916600648
40
1.3440412916600648
40
1.3440412916600648
40
1.5125806380868205
40
1.5125806380868205
40
1.5125806380868205
40
1.5125806380868205
10
52.99977479691961
20
314.38897705078125
30
0
10
52.999774796919681
20
309.9174635995671
30
0
10
53.964216540441328
20
305.39237907713289
30
0
10
55.148671171045443
20
301.33615303652317
30
0
10
55.297191485208479
20
300.827537551977
30
0
10
55.453017081310342
20
300.31433471197442
30
0
10
55.615861126652213
20
299.79722965985383
30
0
0
LINE
5
114
100
AcDbEntity
8
0
100
AcDbLine
10
60.443171996369983
20
301.24127289999785
30
0
11
55.615861126652213
21
299.79722965985377
31
0
0
LINE
5
115
100
AcDbEntity
8
0
100
AcDbLine
10
61.158341930379635
20
298.84352507263992
30
0
11
60.443171996369983
21
301.24127289999785
31
0
0
LINE
5
116
100
AcDbEntity
8
0
100
AcDbLine
10
56.403676269436346
20
297.42120484768498
30
0
11
61.158341930379635
21
298.84352507263992
31
0
0
LINE
5
117
100
AcDbEntity
8
0
100
AcDbLine
10
69.697103947271884
20
280.77247832959137
30
0
11
65.274735727908023
21
278.3318828651918
31
0
0
LINE
5
118
100
AcDbEntity
8
0
100
AcDbLine
10
70.905331822761198
20
278.57312011565205
30
0
11
69.697103947271884
21
280.77247832959137
31
0
0
LINE
5
119
100
AcDbEntity
8
0
100
AcDbLine
10
66.57443722871237
20
276.18297614906697
30
0
11
70.905331822761198
21
278.57312011565205
31
0
0
SPLINE
5
120
100
AcDbEntity
8
0
100
AcDbSpline
70
0
71
3
72
20
73
16
74
0
42
0.000000001
43
0.0000000001
44
0.0000000001
40
4.0380827445887792
40
4.0380827445887792
40
4.0380827445887792
40
4.0380827445887792
40
4.4090290723868364
40
4.4090290723868364
40
4.4090290723868364
40
5.6321277817479256
40
5.6321277817479256
40
5.6321277817479256
40
6.4882787639316284
40
6.4882787639316284
40
6.4882787639316284
40
6.8854637073614011
40
6.8854637073614011
40
6.8854637073614011
40
7.2689809800825662
40
7.2689809800825662
40
7.2689809800825662
40
7.2689809800825662
10
66.57443722871237
20
276.18297614906697
30
0
10
67.236668600282712
20
275.11972493494164
30
0
10
67.909911131960399
20
274.0865498714607
30
0
10
68.59062858405909
20
273.0905421764366
30
0
10
70.835119307975674
20
269.80646296627555
30
0
10
73.446230795110111
20
266.50836576064103
30
0
10
76.343106249099591
20
263.76978597932185
30
0
10
78.370886911526782
20
261.85281053067922
30
0
10
80.638829198854069
20
260.1139308230176
30
0
10
83.131011412820129
20
258.85168478658676
30
0
10
84.287191672273423
20
258.26610001605263
30
0
10
85.48655341180357
20
257.78526929028158
30
0
10
86.73293002944547
20
257.43136632522032
30
0
10
87.936418351215764
20
257.08964129647507
30
0
10
89.159092158945597
20
256.87320445240533
30
0
10
90.406546717394008
20
256.7851747993364
30
0
0
LINE
5
121
100
AcDbEntity
8
0
100
AcDbLine
10
90.40654671739415
20
265.91607795487658
30
0
11
90.406546717394008
21
256.7851747993364
31
0
0
SPLINE
5
122
100
AcDbEntity
8
0
100
AcDbSpline
70
0
71
3
72
8
73
4
74
0
42
0.000000001
43
0.0000000001
44
0.0000000001
40
-1.7412332407064823
40
-1.7412332407064823
40
-1.7412332407064823
40
-1.7412332407064823
40
-1.7405411089905822
40
-1.7405411089905822
40
-1.7405411089905822
40
-1.7405411089905822
10
90.406546717395202
20
265.91607795487658
30
0
10
90.941103802559553
20
265.87989747726135
30
0
10
91.475692726906445
20
265.84378974999572
30
0
10
92.010313362386569
20
265.80775478173143
30
0
0
LINE
5
123
100
AcDbEntity
8
0
100
AcDbLine
10
92.01031336238664
20
268.63406205624256
30
0
11
92.010313362386569
21
265.80775478173143
31
0
0
LINE
5
124
100
AcDbEntity
8
0
100
AcDbLine
10
91.266746435784199
20
268.63406205624261
30
0
11
92.01031336238664
21
268.63406205624256
31
0
0
LINE
5
125
100
AcDbEntity
8
0
100
AcDbLine
10
91.266746435787311
20
360.14389204532023
30
0
11
92.010313362386654
21
360.14389204531994
31
0
0
LINE
5
126
100
AcDbEntity
8
0
100
AcDbLine
10
92.010313362386654
20
360.14389204531994
30
0
11
92.010313362386825
21
362.97019931983124
31
0
0
SPLINE
5
127
100
AcDbEntity
8
0
100
AcDbSpline
70
0
71
3
72
8
73
4
74
0
42
0.000000001
43
0.0000000001
44
0.0000000001
40
1.740541108990582
40
1.740541108990582
40
1.740541108990582
40
1.740541108990582
40
1.7412332407064965
40
1.7412332407064965
40
1.7412332407064965
40
1.7412332407064965
10
92.010313362387066
20
362.97019931983124
30
0
10
91.475692726895801
20
362.93416435156615
30
0
10
90.941103802537796
20
362.89805662429984
30
0
10
90.406546717362232
20
362.86187614668393
30
0
0
LINE
5
128
100
AcDbEntity
8
0
100
AcDbLine
10
90.406546717362232
20
362.86187614668393
30
0
11
90.406546717394036
21
371.99277930222604
31
0
0
LINE
5
129
100
AcDbEntity
8
0
100
AcDbLine
10
66.574437228712384
20
352.59497795249558
30
0
11
70.90533182276117
21
350.2048339859104
31
0
0
LINE
5
130
100
AcDbEntity
8
0
100
AcDbLine
10
70.90533182276117
20
350.2048339859104
30
0
11
69.697103947271884
21
348.00547577197119
31
0
0
LINE
5
131
100
AcDbEntity
8
0
100
AcDbLine
10
69.697103947271884
20
348.00547577197119
30
0
11
65.274735727908194
21
350.44607123637115
31
0
0
LINE
5
132
100
AcDbEntity
8
0
100
AcDbLine
10
56.403676269436346
20
331.35674925387752
30
0
11
61.158341930379613
21
329.93442902892252
31
0
0
SPLINE
5
133
100
AcDbEntity
8
0
100
AcDbSpline
70
0
71
3
72
11
73
7
74
0
42
0.000000001
43
0.0000000001
44
0.0000000001
40
4.0380827445887837
40
4.0380827445887837
40
4.0380827445887837
40
4.0380827445887837
40
4.4090290723868364
40
4.4090290723868364
40
4.4090290723868364
40
4.9441926780783811
40
4.9441926780783811
40
4.9441926780783811
40
4.9441926780783811
10
66.574437228712384
20
352.59497795249558
30
0
10
67.236668600282684
20
353.6582291666208
30
0
10
67.909911131960399
20
354.6914042301018
30
0
10
68.59062858405909
20
355.6874119251259
30
0
10
69.572699564560622
20
357.12435209850287
30
0
10
70.62495924263736
20
358.56397598470676
30
0
10
71.740634452285377
20
359.95823999578863
30
0
0
SPLINE
5
134
100
AcDbEntity
8
0
100
AcDbSpline
70
0
71
3
72
17
73
13
74
0
42
0.000000001
43
0.0000000001
44
0.0000000001
40
5.0440696312535795
40
5.0440696312535795
40
5.0440696312535795
40
5.0440696312535795
40
5.6321277817479256
40
5.6321277817479256
40
5.6321277817479256
40
6.4882787639316284
40
6.4882787639316284
40
6.4882787639316284
40
6.8854637073614011
40
6.8854637073614011
40
6.8854637073614011
40
7.2689809800825707
40
7.2689809800825707
40
7.2689809800825707
40
7.2689809800825707
10
72.37186822312546
20
360.73381754838016
30
0
10
73.62356526512626
20
362.2454448351138
30
0
10
74.950306789295226
20
363.69147622414772
30
0
10
76.343106249099591
20
365.0081681222407
30
0
10
78.370886911526782
20
366.92514357088334
30
0
10
80.638829198854069
20
368.66402327854496
30
0
10
83.131011412820129
20
369.92626931497574
30
0
10
84.287191672273423
20
370.51185408550987
30
0
10
85.486553411803555
20
370.99268481128092
30
0
10
86.732930029445455
20
371.34658777634218
30
0
10
87.936418351215778
20
371.68831280508749
30
0
10
89.15909215894564
20
371.90474964915711
30
0
10
90.406546717394036
20
371.99277930222604
30
0
0
SPLINE
5
135
100
AcDbEntity
8
0
100
AcDbSpline
70
0
71
3
72
8
73
4
74
0
42
0.000000001
43
0.0000000001
44
0.0000000001
40
1.7680522117819339
40
1.7680522117819339
40
1.7680522117819339
40
1.7680522117819339
40
2.6432022050279738
40
2.6432022050279738
40
2.6432022050279738
40
2.6432022050279738
10
56.403676269436346
20
331.35674925387752
30
0
10
57.356015130265376
20
334.09523021867574
30
0
10
58.483643001470178
20
336.9115876457214
30
0
10
59.741956833538325
20
339.71165995209049
30
0
0
SPLINE
5
136
100
AcDbEntity
8
0
100
AcDbSpline
70
0
71
3
72
8
73
4
74
0
42
0.000000001
43
0.0000000001
44
0.0000000001
40
2.7381112490361197
40
2.7381112490361197
40
2.7381112490361197
40
2.7381112490361197
40
3.7925319262494872
40
3.7925319262494872
40
3.7925319262494872
40
3.7925319262494872
10
60.155899208347712
20
340.62195944236288
30
0
10
61.705493080194891
20
343.99002435809689
30
0
10
63.437775764407832
20
347.3196250548732
30
0
10
65.274735727908222
20
350.44607123637121
30
0
0
SPLINE
5
137
100
AcDbEntity
8
0
100
AcDbSpline
70
0
71
3
72
8
73
4
74
0
42
0.000000001
43
0.0000000001
44
0.0000000001
40
1.7680522117819366
40
1.7680522117819366
40
1.7680522117819366
40
1.7680522117819366
40
2.6432022050930044
40
2.6432022050930044
40
2.6432022050930044
40
2.6432022050930044
10
56.403676269436332
20
297.42120484768498
30
0
10
57.356015130205442
20
294.68272388305917
30
0
10
58.483643001399287
20
291.86636645600265
30
0
10
59.741956833539064
20
289.0662941494723
30
0
0
SPLINE
5
138
100
AcDbEntity
8
0
100
AcDbSpline
70
0
71
3
72
8
73
4
74
0
42
0.000000001
43
0.0000000001
44
0.0000000001
40
2.7381112491021984
40
2.7381112491021984
40
2.7381112491021984
40
2.7381112491021984
40
3.7925319262494477
40
3.7925319262494477
40
3.7925319262494477
40
3.7925319262494477
10
60.155899208348231
20
288.15599465919968
30
0
10
61.705493080089369
20
284.78792974369361
30
0
10
63.437775764271805
20
281.45832904692094
30
0
10
65.274735727908023
20
278.3318828651918
30
0
0
SPLINE
5
139
100
AcDbEntity
8
0
100
AcDbSpline
70
0
71
3
72
11
73
7
74
0
42
0.000000001
43
0.0000000001
44
0.0000000001
40
-6.5177535634260666
40
-6.5177535634260666
40
-6.5177535634260666
40
-6.5177535634260666
40
-5.3956993961397179
40
-5.3956993961397179
40
-5.3956993961397179
40
-5.2442709958385807
40
-5.2442709958385807
40
-5.2442709958385807
40
-5.2442709958385807
10
64.879774796919634
20
314.38897705078131
30
0
10
64.879774796919634
20
312.77218195611533
30
0
10
65.065239753633193
20
310.48963081303111
30
0
10
65.922017548632823
20
307.00488044686676
30
0
10
66.037651237323459
20
306.53456650857697
30
0
10
66.165646394464204
20
306.04307466954435
30
0
10
66.307233004867669
20
305.52964738313551
30
0
0
SPLINE
5
140
100
AcDbEntity
8
0
100
AcDbSpline
70
0
71
3
72
23
73
19
74
0
42
0.000000001
43
0.0000000001
44
0.0000000001
40
-5.1506588166926086
40
-5.1506588166926086
40
-5.1506588166926086
40
-5.1506588166926086
40
-4.1106193466027685
40
-4.1106193466027685
40
-4.1106193466027685
40
-3.0911687222396731
40
-3.0911687222396731
40
-3.0911687222396731
40
-1.6131082922349846
40
-1.6131082922349846
40
-1.6131082922349846
40
-0.71913877019820382
40
-0.71913877019820382
40
-0.71913877019820382
40
0
40
0
40
0
40
0.00059461930216508203
40
0.00059461930216508203
40
0.00059461930216508203
40
0.00059461930216508203
10
66.581402309652688
20
304.56797667232314
30
0
10
67.637732595545842
20
300.97856051410065
30
0
10
69.141862851186019
20
297.09038306180253
30
0
10
70.78414457280752
20
293.48425705887593
30
0
10
72.393887560787917
20
289.9495796825405
30
0
10
74.280606024003632
20
286.35360203743971
30
0
10
76.261976046861861
20
283.1067832387522
30
0
10
79.146026716090148
20
278.38076547266633
30
0
10
82.038654489647783
20
274.72415920974458
30
0
10
84.545413265164541
20
272.36403468739832
30
0
10
86.054063139437446
20
270.94363412924241
30
0
10
87.547292639509948
20
269.89505080729953
30
0
10
88.746900155991199
20
269.32840644197449
30
0
10
89.714285351112579
20
268.871454178519
30
0
10
90.450693157896268
20
268.68873803717662
30
0
10
91.264743162767076
20
268.63419627654446
30
0
10
91.265410920439493
20
268.63415153644388
30
0
10
91.266078678111867
20
268.63410679634325
30
0
10
91.266746435785535
20
268.6340620562425
30
0
0
SPLINE
5
141
100
AcDbEntity
8
0
100
AcDbSpline
70
0
71
3
72
11
73
7
74
0
42
0.000000001
43
0.0000000001
44
0.0000000001
40
-6.5177535634260666
40
-6.5177535634260666
40
-6.5177535634260666
40
-6.5177535634260666
40
-5.3956993961397179
40
-5.3956993961397179
40
-5.3956993961397179
40
-5.2442709958385754
40
-5.2442709958385754
40
-5.2442709958385754
40
-5.2442709958385754
10
64.879774796919634
20
314.38897705078125
30
0
10
64.879774796919634
20
316.00577214544717
30
0
10
65.065239753633193
20
318.28832328853144
30
0
10
65.922017548632823
20
321.77307365469579
30
0
10
66.037651237323459
20
322.24338759298553
30
0
10
66.165646394464218
20
322.73487943201826
30
0
10
66.307233004867697
20
323.2483067184271
30
0
0
SPLINE
5
142
100
AcDbEntity
8
0
100
AcDbSpline
70
0
71
3
72
23
73
19
74
0
42
0.000000001
43
0.0000000001
44
0.0000000001
40
-5.1506588166926148
40
-5.1506588166926148
40
-5.1506588166926148
40
-5.1506588166926148
40
-4.1106193466027685
40
-4.1106193466027685
40
-4.1106193466027685
40
-3.0911687222396731
40
-3.0911687222396731
40
-3.0911687222396731
40
-1.6131082922349846
40
-1.6131082922349846
40
-1.6131082922349846
40
-0.71913877019820382
40
-0.71913877019820382
40
-0.71913877019820382
40
0
40
0
40
0
40
0.00059461930315229375
40
0.00059461930315229375
40
0.00059461930315229375
40
0.00059461930315229375
10
66.581402309652674
20
324.20997742923953
30
0
10
67.637732595545813
20
327.79939358746191
30
0
10
69.141862851186005
20
331.68757103975997
30
0
10
70.78414457280752
20
335.29369704268663
30
0
10
72.393887560787917
20
338.82837441902205
30
0
10
74.280606024003632
20
342.42435206412279
30
0
10
76.261976046861861
20
345.67117086281036
30
0
10
79.146026716090148
20
350.39718862889623
30
0
10
82.038654489647783
20
354.05379489181797
30
0
10
84.545413265164541
20
356.41391941416424
30
0
10
86.054063139437446
20
357.83431997232015
30
0
10
87.547292639509948
20
358.88290329426303
30
0
10
88.746900155991199
20
359.44954765958806
30
0
10
89.714285351112579
20
359.90649992304355
30
0
10
90.450693157896268
20
360.08921606438599
30
0
10
91.264743162767076
20
360.1437578250181
30
0
10
91.265410920440516
20
360.14380256511868
30
0
10
91.266078678113985
20
360.14384730521942
30
0
10
91.266746435787311
20
360.14389204532017
30
0
0
LINE
5
143
100
AcDbEntity
8
0
100
AcDbLine
10
52.443937349018952
20
21.206041658704127
30
0
11
28.709505310058599
21
21.206041658704141
31
0
0
LINE
5
144
100
AcDbEntity
8
0
100
AcDbLine
10
28.709505310058603
20
42.051661470819333
30
0
11
28.709505310058599
21
21.206041658704141
31
0
0
SPLINE
5
145
100
AcDbEntity
8
0
100
AcDbSpline
70
0
71
3
72
17
73
13
74
0
42
0.000000001
43
0.0000000001
44
0.0000000001
40
-25.298715307718936
40
-25.298715307718936
40
-25.298715307718936
40
-25.298715307718936
40
-25.282221594733873
40
-25.282221594733873
40
-25.282221594733873
40
-25.038805150489523
40
-25.038805150489523
40
-25.038805150489523
40
-24.479277425761133
40
-24.479277425761133
40
-24.479277425761133
40
-23.413810805382191
40
-23.413810805382191
40
-23.413810805382191
40
-23.413810805382191
10
28.709505310058599
20
52.05166147081934
30
0
10
28.732662699077736
20
52.047959200025147
30
0
10
28.755820088096876
20
52.044256929230954
30
0
10
28.778977477116015
20
52.040554658436761
30
0
10
29.123383501778992
20
51.985492994731864
30
0
10
29.464337808132903
20
51.907318710001398
30
0
10
29.802207605311537
20
51.807575672370085
30
0
10
30.57885596008429
20
51.578300174165541
30
0
10
31.318276671457696
20
51.241140749566071
30
0
10
32.017327800114842
20
50.837160824757255
30
0
10
33.348478134087131
20
50.067892326671341
30
0
10
34.739437962045152
20
48.937264555476503
30
0
10
36.222246916051951
20
47.389467664783922
30
0
0
SPLINE
5
146
100
AcDbEntity
8
0
100
AcDbSpline
70
0
71
3
72
14
73
10
74
0
42
0.000000001
43
0.0000000001
44
0.0000000001
40
-23.251728735556714
40
-23.251728735556714
40
-23.251728735556714
40
-23.251728735556714
40
-20.92974196953254
40
-20.92974196953254
40
-20.92974196953254
40
-19.418998429172547
40
-19.418998429172547
40
-19.418998429172547
40
-19.408502413640782
40
-19.408502413640782
40
-19.408502413640782
40
-19.408502413640782
10
36.90282034537482
20
46.656839118534499
30
0
10
40.158554977360325
20
43.047420713199038
30
0
10
43.444457263543761
20
37.927958130192472
30
0
10
46.423690768648683
20
32.685879268948426
30
0
10
48.362076286273599
20
29.275213495529862
30
0
10
50.380596307657164
20
25.434492211646326
30
0
10
52.401819791071496
20
21.292354104209505
30
0
10
52.415858977053986
20
21.263583289041044
30
0
10
52.429898163036476
20
21.23481247387258
30
0
10
52.443937349018952
20
21.206041658704127
30
0
0
LINE
5
147
100
AcDbEntity
8
0
100
AcDbLine
10
28.709505310058606
20
52.051661470819333
30
0
11
28.709505310058603
21
43.051661470819333
31
0
0
SPLINE
5
148
100
AcDbEntity
8
0
100
AcDbSpline
70
0
71
3
72
14
73
10
74
0
42
0.000000001
43
0.0000000001
44
0.0000000001
40
3.9991698876703472
40
3.9991698876703472
40
3.9991698876703472
40
3.9991698876703472
40
4.0128055973716377
40
4.0128055973716377
40
4.0128055973716377
40
6.92829022986278
40
6.92829022986278
40
6.92829022986278
40
6.9336328457124985
40
6.9336328457124985
40
6.9336328457124985
40
6.9336328457124985
10
55.906037116100443
20
415.58767520603465
30
0
10
55.910065211251883
20
415.6101933192291
30
0
10
55.914093306403331
20
415.63271143242355
30
0
10
55.918121401554785
20
415.65522954561806
30
0
10
56.780320168232798
20
420.47514781820541
30
0
10
58.28913214413447
20
425.19147634165421
30
0
10
60.50190642100916
20
429.68021574288844
30
0
10
60.505956581769013
20
429.68843172604318
30
0
10
60.510006742528859
20
429.69664770919792
30
0
10
60.514056903288711
20
429.70486369235266
30
0
0
LINE
5
149
100
AcDbEntity
8
0
100
AcDbLine
10
64.277907754716821
20
430.6812607213426
30
0
11
60.514056903288704
21
429.70486369235266
31
0
0
LINE
5
150
100
AcDbEntity
8
0
100
AcDbLine
10
64.277907754716821
20
430.6812607213426
30
0
11
69.320959034202815
21
425.49166957864315
31
0
0
LINE
5
151
100
AcDbEntity
8
0
100
AcDbLine
10
65.27005055323545
20
401.97495077234544
30
0
11
70.411009716878567
21
397.53518570798457
31
0
0
LINE
5
152
100
AcDbEntity
8
0
100
AcDbLine
10
70.411009716878567
20
397.53518570798457
30
0
11
72.931577647141921
21
389.05853826463306
31
0
0
LINE
5
153
100
AcDbEntity
8
0
100
AcDbLine
10
72.931577647141921
20
389.05853826463306
30
0
11
61.661845776167041
21
377.02954052840698
31
0
0
LINE
5
154
100
AcDbEntity
8
0
100
AcDbLine
10
61.661845776167041
20
377.02954052840698
30
0
11
60.250905980734316
21
376.66352245842262
31
0
0
SPLINE
5
155
100
AcDbEntity
8
0
100
AcDbSpline
70
0
71
3
72
8
73
4
74
0
42
0.000000001
43
0.0000000001
44
0.0000000001
40
-1.7421447460335775
40
-1.7421447460335775
40
-1.7421447460335775
40
-1.7421447460335775
40
-1.739934613901684
40
-1.739934613901684
40
-1.739934613901684
40
-1.739934613901684
10
58.528359374020653
20
383.60211646248831
30
0
10
59.101695780972705
20
381.28947062494768
30
0
10
59.675878450657549
20
378.97660407401509
30
0
10
60.250905980738153
20
376.66352245840727
30
0
0
LINE
5
156
100
AcDbEntity
8
0
100
AcDbLine
10
60.081757684371041
20
384.00509031956767
30
0
11
58.528359374020653
21
383.60211646248831
31
0
0
SPLINE
5
157
100
AcDbEntity
8
0
100
AcDbSpline
70
0
71
3
72
8
73
4
74
0
42
0.000000001
43
0.0000000001
44
0.0000000001
40
-1.7438936472086048
40
-1.7438936472086048
40
-1.7438936472086048
40
-1.7438936472086048
40
-1.7424204459899877
40
-1.7424204459899877
40
-1.7424204459899877
40
-1.7424204459899877
10
58.938754022676591
20
388.62142065105451
30
0
10
59.319379525233842
20
387.08274319834834
30
0
10
59.700380883608091
20
385.54396586458898
30
0
10
60.081757684370984
20
384.0050903195679
30
0
0
LINE
5
158
100
AcDbEntity
8
0
100
AcDbLine
10
66.906947302090856
20
390.68848455755329
30
0
11
58.938754022676591
21
388.62142065105451
31
0
0
SPLINE
5
159
100
AcDbEntity
8
0
100
AcDbSpline
70
0
71
3
72
8
73
4
74
0
42
0.000000001
43
0.0000000001
44
0.0000000001
40
1.3647677679000503
40
1.3647677679000503
40
1.3647677679000503
40
1.3647677679000503
40
1.3652332134408705
40
1.3652332134408705
40
1.3652332134408705
40
1.3652332134408705
10
66.612658591835981
20
391.92911883712634
30
0
10
66.710722037979878
20
391.51558574766534
30
0
10
66.808818278273378
20
391.10204097287641
30
0
10
66.906947302090828
20
390.68848455755335
30
0
0
LINE
5
160
100
AcDbEntity
8
0
100
AcDbLine
10
57.078816500560528
20
389.45590311731428
30
0
11
66.612658591835981
21
391.92911883712634
31
0
0
LINE
5
161
100
AcDbEntity
8
0
100
AcDbLine
10
59.710250626062376
20
413.4423886011582
30
0
11
55.593078828068705
21
413.61984935399283
31
0
0
LINE
5
162
100
AcDbEntity
8
0
100
AcDbLine
10
59.922064760869361
20
415.41457403749371
30
0
11
59.710250626062376
21
413.4423886011582
31
0
0
LINE
5
163
100
AcDbEntity
8
0
100
AcDbLine
10
55.906037116100443
20
415.58767520603465
30
0
11
59.922064760869361
21
415.41457403749371
31
0
0
SPLINE
5
164
100
AcDbEntity
8
0
100
AcDbSpline
70
0
71
3
72
11
73
7
74
0
42
0.000000001
43
0.0000000001
44
0.0000000001
40
5.1932652995133122
40
5.1932652995133122
40
5.1932652995133122
40
5.1932652995133122
40
5.1987544288220953
40
5.1987544288220953
40
5.1987544288220953
40
6.390214972795877
40
6.390214972795877
40
6.390214972795877
40
6.390214972795877
10
69.320959034202886
20
425.49166957864338
30
0
10
69.315168004951204
20
425.4791851674151
30
0
10
69.309376975699521
20
425.46670075618687
30
0
10
69.303585946447839
20
425.45421634495858
30
0
10
68.048361615515077
20
422.74817980982402
30
0
10
67.080603467696875
20
419.91807263772967
30
0
10
66.394763984358761
20
416.99727830694053
30
0
0
SPLINE
5
165
100
AcDbEntity
8
0
100
AcDbSpline
70
0
71
3
72
14
73
10
74
0
42
0.000000001
43
0.0000000001
44
0.0000000001
40
6.5224676086123932
40
6.5224676086123932
40
6.5224676086123932
40
6.5224676086123932
40
6.6278366848843469
40
6.6278366848843469
40
6.6278366848843469
40
6.7530763253088715
40
6.7530763253088715
40
6.7530763253088715
40
7.977450024457827
40
7.977450024457827
40
7.977450024457827
40
7.977450024457827
10
66.176791600081827
20
416.02134356534833
30
0
10
66.121666966252874
20
415.76129347972227
30
0
10
66.068742426267477
20
415.50056310376465
30
0
10
66.018014143059446
20
415.23917552791005
30
0
10
65.957615392661339
20
414.92795894511198
30
0
10
65.898707440502591
20
414.60761671142023
30
0
10
65.84182021924002
20
414.27809874305433
30
0
10
65.285648436306246
20
411.05648601690643
30
0
10
64.907768223200307
20
406.95198946086629
30
0
10
65.27005055323545
20
401.97495077234544
30
0
0
SPLINE
5
166
100
AcDbEntity
8
0
100
AcDbSpline
70
0
71
3
72
11
73
7
74
0
42
0.000000001
43
0.0000000001
44
0.0000000001
40
-0.0069123748602160605
40
-0.0069123748602160605
40
-0.0069123748602160605
40
-0.0069123748602160605
40
0
40
0
40
0
40
1.1030404421957598
40
1.1030404421957598
40
1.1030404421957598
40
1.1030404421957598
10
57.078816500560386
20
389.45590311731496
30
0
10
57.073959751711065
20
389.47553982496731
30
0
10
57.069103002861752
20
389.49517653261967
30
0
10
57.064246254012446
20
389.51481324027202
30
0
10
56.28862676422645
20
392.65078210400293
30
0
10
55.773783127276999
20
395.58019343524791
30
0
10
55.456014929009918
20
398.30223594513882
30
0
0
SPLINE
5
167
100
AcDbEntity
8
0
100
AcDbSpline
70
0
71
3
72
14
73
10
74
0
42
0.000000001
43
0.0000000001
44
0.0000000001
40
1.2385883164568827
40
1.2385883164568827
40
1.2385883164568827
40
1.2385883164568827
40
3.447510354614618
40
3.447510354614618
40
3.447510354614618
40
3.5927541737206172
40
3.5927541737206172
40
3.5927541737206172
40
3.6035906271543579
40
3.6035906271543579
40
3.6035906271543579
40
3.6035906271543579
10
55.347677282014793
20
399.29634020863153
30
0
10
54.806391805592163
20
404.6453500810635
30
0
10
55.024047680638162
20
409.16234696236251
30
0
10
55.489070142854914
20
412.84081543317006
30
0
10
55.519648354149822
20
413.08269834266616
30
0
10
55.551801019142104
20
413.32438472480237
30
0
10
55.585536138709145
20
413.56585913569694
30
0
10
55.588050368495672
20
413.5838558751289
30
0
10
55.590564598282199
20
413.60185261456087
30
0
10
55.593078828068712
20
413.61984935399283
30
0
0
LINE
5
168
100
AcDbEntity
8
0
100
AcDbLine
10
26.869795121504424
20
186.33606884765629
30
0
11
24.514552249420589
21
186.33606884765629
31
0
0
LINE
5
169
100
AcDbEntity
8
0
100
AcDbLine
10
24.514552249420603
20
196.33606884765629
30
0
11
24.51455224942066
21
240.83006884765632
31
0
0
LINE
5
170
100
AcDbEntity
8
0
100
AcDbLine
10
24.51455224942066
20
240.83006884765632
30
0
11
26.869795121504509
21
240.83006884765632
31
0
0
LINE
5
171
100
AcDbEntity
8
0
100
AcDbLine
10
26.869795121504495
20
230.83006884765632
30
0
11
26.869795121504424
21
186.33606884765629
31
0
0
LINE
5
172
100
AcDbEntity
8
0
100
AcDbLine
10
24.514552249420589
20
186.33606884765629
30
0
11
24.514552249420603
21
195.33606884765629
31
0
0
LINE
5
173
100
AcDbEntity
8
0
100
AcDbLine
10
26.869795121504509
20
240.83006884765632
30
0
11
26.869795121504495
21
231.83006884765632
31
0
0
LINE
5
174
100
AcDbEntity
8
0
100
AcDbLine
10
29.566231459380894
20
232.64031265797013
30
0
11
29.566231459380955
21
184.52582503734243
31
0
0
SPLINE
5
175
100
AcDbEntity
8
0
100
AcDbSpline
70
0
71
3
72
14
73
10
74
0
42
0.000000001
43
0.0000000001
44
0.0000000001
40
4.2635298827558303
40
4.2635298827558303
40
4.2635298827558303
40
4.2635298827558303
40
4.4836902771180185
40
4.4836902771180185
40
4.4836902771180185
40
4.4962688057684961
40
4.4962688057684961
40
4.4962688057684961
40
4.5051783234656577
40
4.5051783234656577
40
4.5051783234656577
40
4.5051783234656577
10
29.566231459380962
20
184.52582503734243
30
0
10
29.890790540991183
20
184.16743824948767
30
0
10
30.223097876458844
20
183.81354349905666
30
0
10
30.563134681609565
20
183.46397127475231
30
0
10
30.582562016386099
20
183.44399915253706
30
0
10
30.602010252051915
20
183.42404580595453
30
0
10
30.621478993735884
20
183.40411090603868
30
0
10
30.635288507846461
20
183.38997073785782
30
0
10
30.649098021957037
20
183.37583056967699
30
0
10
30.662907536067618
20
183.36169040149616
30
0
0
LINE
5
176
100
AcDbEntity
8
0
100
AcDbLine
10
30.662907536067621
20
183.36169040149616
30
0
11
22.059102640574526
21
174.75788550600311
31
0
0
SPLINE
5
177
100
AcDbEntity
8
0
100
AcDbSpline
70
0
71
3
72
17
73
13
74
0
42
0.000000001
43
0.0000000001
44
0.0000000001
40
13.963008218010531
40
13.963008218010531
40
13.963008218010531
40
13.963008218010531
40
13.973817071882289
40
13.973817071882289
40
13.973817071882289
40
15.872076282137023
40
15.872076282137023
40
15.872076282137023
40
17.558938024347814
40
17.558938024347814
40
17.558938024347814
40
17.570897492742372
40
17.570897492742372
40
17.570897492742372
40
17.570897492742372
10
22.059102640574476
20
174.75788550600316
30
0
10
22.044961593158185
20
174.77227629341954
30
0
10
22.030820545741896
20
174.78666708083585
30
0
10
22.016679498325612
20
174.8010578682522
30
0
10
19.530457298743915
20
177.33118835227626
30
0
10
17.296818749719229
20
180.10264006643092
30
0
10
15.371270639591474
20
183.14844205867755
30
0
10
13.660160715119687
20
185.85504907072635
30
0
10
12.249947801254521
20
188.68670728794697
30
0
10
11.116523750643061
20
191.6398118424616
30
0
10
11.108497729414124
20
191.66072341552467
30
0
10
11.100471708185186
20
191.68163498858775
30
0
10
11.09244568695625
20
191.70254656165082
30
0
0
LINE
5
178
100
AcDbEntity
8
0
100
AcDbLine
10
15.807160482300374
20
192.92366054627018
30
0
11
11.092445686956246
21
191.70254656165085
31
0
0
LINE
5
179
100
AcDbEntity
8
0
100
AcDbLine
10
15.239313701571675
20
195.11247350014909
30
0
11
15.807160482300374
21
192.92366054627018
31
0
0
LINE
5
180
100
AcDbEntity
8
0
100
AcDbLine
10
10.329980100117698
20
193.8409531270369
30
0
11
15.239313701571675
21
195.11247350014909
31
0
0
SPLINE
5
181
100
AcDbEntity
8
0
100
AcDbSpline
70
0
71
3
72
14
73
10
74
0
42
0.000000001
43
0.0000000001
44
0.0000000001
40
17.973851947957126
40
17.973851947957126
40
17.973851947957126
40
17.973851947957126
40
17.983816870556623
40
17.983816870556623
40
17.983816870556623
40
18.557245150160725
40
18.557245150160725
40
18.557245150160725
40
21.50258048722489
40
21.50258048722489
40
21.50258048722489
40
21.50258048722489
10
10.329980100117881
20
233.32518456827631
30
0
10
10.324105775790958
20
233.30740033503193
30
0
10
10.318231451464033
20
233.28961610178763
30
0
10
10.31235712713711
20
233.2718318685433
30
0
10
9.973925041591853
20
232.24724507153749
30
0
10
9.6667600374496505
20
231.20873293265984
30
0
10
9.389908438792137
20
230.15643545687044
30
0
10
7.9678965092192904
20
224.75144747309866
30
0
10
7.3945522494225475
20
219.16491710463461
30
0
10
7.3945522494225475
20
213.58306884765628
30
0
0
LINE
5
182
100
AcDbEntity
8
0
100
AcDbLine
10
10.329980100117881
20
233.32518456827631
30
0
11
15.239313700719922
21
232.05366419534136
31
0
0
LINE
5
183
100
AcDbEntity
8
0
100
AcDbLine
10
15.239313700719922
20
232.05366419534136
30
0
11
15.807160483022962
21
234.24247714889179
31
0
0
LINE
5
184
100
AcDbEntity
8
0
100
AcDbLine
10
15.807160483022962
20
234.24247714889179
30
0
11
11.092445686956092
21
235.46359113366134
31
0
0
LINE
5
185
100
AcDbEntity
8
0
100
AcDbLine
10
30.662907536067543
20
243.80444729381634
30
0
11
22.059102640574423
21
252.40825218930937
31
0
0
SPLINE
5
186
100
AcDbEntity
8
0
100
AcDbSpline
70
0
71
3
72
14
73
10
74
0
42
0.000000001
43
0.0000000001
44
0.0000000001
40
4.2635298827558135
40
4.2635298827558135
40
4.2635298827558135
40
4.2635298827558135
40
4.4836902771180185
40
4.4836902771180185
40
4.4836902771180185
40
4.4962688057684961
40
4.4962688057684961
40
4.4962688057684961
40
4.5051783234656426
40
4.5051783234656426
40
4.5051783234656426
40
4.5051783234656426
10
29.566231459380887
20
242.64031265797013
30
0
10
29.890790540991148
20
242.99869944582494
30
0
10
30.223097876458812
20
243.35259419625595
30
0
10
30.563134681609565
20
243.70216642056025
30
0
10
30.582562016386099
20
243.7221385427755
30
0
10
30.602010252051915
20
243.74209188935805
30
0
10
30.621478993735884
20
243.76202678927388
30
0
10
30.63528850784644
20
243.77616695745471
30
0
10
30.649098021956995
20
243.79030712563551
30
0
10
30.662907536067564
20
243.80444729381628
30
0
0
SPLINE
5
187
100
AcDbEntity
8
0
100
AcDbSpline
70
0
71
3
72
11
73
7
74
0
42
0.000000001
43
0.0000000001
44
0.0000000001
40
13.963008218010545
40
13.963008218010545
40
13.963008218010545
40
13.963008218010545
40
13.973817071882289
40
13.973817071882289
40
13.973817071882289
40
15.563843916889521
40
15.563843916889521
40
15.563843916889521
40
15.563843916889521
10
22.059102640574423
20
252.40825218930937
30
0
10
22.044961593158149
20
252.39386140189305
30
0
10
22.030820545741882
20
252.3794706144767
30
0
10
22.016679498325612
20
252.36507982706041
30
0
10
19.934160936776085
20
250.24578264718286
30
0
10
18.028858451957497
20
247.9571712557904
30
0
10
16.33339271730118
20
245.47983487774144
30
0
0
SPLINE
5
188
100
AcDbEntity
8
0
100
AcDbSpline
70
0
71
3
72
14
73
10
74
0
42
0.000000001
43
0.0000000001
44
0.0000000001
40
15.740143351425063
40
15.740143351425063
40
15.740143351425063
40
15.740143351425063
40
15.872076282137023
40
15.872076282137023
40
15.872076282137023
40
17.558938024347814
40
17.558938024347814
40
17.558938024347814
40
17.570897492742453
40
17.570897492742453
40
17.570897492742453
40
17.570897492742453
10
15.77720542733822
20
244.64879951167103
30
0
10
15.640418012856486
20
244.43974941980784
30
0
10
15.505100205134285
20
244.22938515776821
30
0
10
15.371270639591474
20
244.01769563663507
30
0
10
13.660160715119687
20
241.3110886245862
30
0
10
12.249947801254521
20
238.47943040736564
30
0
10
11.116523750643061
20
235.52632585285099
30
0
10
11.10849772941407
20
235.50541427978777
30
0
10
11.100471708185079
20
235.48450270672458
30
0
10
11.092445686956092
20
235.46359113366134
30
0
0
LINE
5
189
100
AcDbEntity
8
0
100
AcDbLine
10
29.566231459380884
20
242.64031265797013
30
0
11
29.566231459380891
21
233.64031265797013
31
0
0
SPLINE
5
190
100
AcDbEntity
8
0
100
AcDbSpline
70
0
71
3
72
14
73
10
74
0
42
0.000000001
43
0.0000000001
44
0.0000000001
40
17.973851947957257
40
17.973851947957257
40
17.973851947957257
40
17.973851947957257
40
17.983816870556623
40
17.983816870556623
40
17.983816870556623
40
18.557245150160725
40
18.557245150160725
40
18.557245150160725
40
19.559041869339705
40
19.559041869339705
40
19.559041869339705
40
19.559041869339705
10
10.329980100117645
20
193.84095312703704
30
0
10
10.324105775790802
20
193.85873736028111
30
0
10
10.318231451463955
20
193.87652159352518
30
0
10
10.31235712713711
20
193.89430582676925
30
0
10
9.973925041591853
20
194.91889262377512
30
0
10
9.6667600374496505
20
195.95740476265274
30
0
10
9.389908438792137
20
197.00970223844212
30
0
10
8.906239612444022
20
198.84810045449774
30
0
10
8.5207517682374014
20
200.70750101371334
30
0
10
8.2226111835714413
20
202.58057615368313
30
0
0
SPLINE
5
191
100
AcDbEntity
8
0
100
AcDbSpline
70
0
71
3
72
8
73
4
74
0
42
0.000000001
43
0.0000000001
44
0.0000000001
40
19.735106924126111
40
19.735106924126111
40
19.735106924126111
40
19.735106924126111
40
21.50258048722489
40
21.50258048722489
40
21.50258048722489
40
21.50258048722489
10
8.0734522876813948
20
203.56937834518288
30
0
10
7.6010198097563926
20
206.88213253092314
30
0
10
7.3945522494225475
20
210.23344372915551
30
0
10
7.3945522494225475
20
213.58306884765631
30
0
0
LINE
5
192
100
AcDbEntity
8
0
100
AcDbLine
10
77.490113143199792
20
243.26431518554688
30
0
11
77.49011314318814
21
255.65661466031614
31
0
0
LINE
5
193
100
AcDbEntity
8
0
100
AcDbLine
10
54.056791732001557
20
183.68753191991561
30
0
11
54.056791732001521
21
266.72109845117814
31
0
0
LINE
5
194
100
AcDbEntity
8
0
100
AcDbLine
10
77.490113143199778
20
197.14431518554687
30
0
11
77.490113143182512
21
184.75201571077136
31
0
0
LINE
5
195
100
AcDbEntity
8
0
100
AcDbLine
10
80.464017026720924
20
197.14431518554687
30
0
11
77.490113143199778
21
197.14431518554687
31
0
0
LINE
5
196
100
AcDbEntity
8
0
100
AcDbLine
10
80.464017026720924
20
243.26431518554688
30
0
11
80.464017026720924
21
197.14431518554687
31
0
0
LINE
5
197
100
AcDbEntity
8
0
100
AcDbLine
10
80.464017026720924
20
243.26431518554688
30
0
11
77.490113143199792
21
243.26431518554688
31
0
0
SPLINE
5
198
100
AcDbEntity
8
0
100
AcDbSpline
70
0
71
3
72
11
73
7
74
0
42
0.000000001
43
0.0000000001
44
0.0000000001
40
-0.0060000000000029856
40
-0.0060000000000029856
40
-0.0060000000000029856
40
-0.0060000000000029856
40
0
40
0
40
0
40
0.90841172452688523
40
0.90841172452688523
40
0.90841172452688523
40
0.90841172452688523
10
54.056791732001521
20
173.68753191991561
30
0
10
54.076791732001539
20
173.68753191991561
30
0
10
54.096791732001542
20
173.68753191991561
30
0
10
54.116791732001559
20
173.68753191991561
30
0
10
57.150081997594015
20
173.68753191991561
30
0
10
60.084361021767243
20
174.08586397343475
30
0
10
62.932350961978088
20
174.95866281956199
30
0
0
SPLINE
5
199
100
AcDbEntity
8
0
100
AcDbSpline
70
0
71
3
72
17
73
13
74
0
42
0.000000001
43
0.0000000001
44
0.0000000001
40
1.009825465175485
40
1.009825465175485
40
1.009825465175485
40
1.009825465175485
40
1.1854461593455625
40
1.1854461593455625
40
1.1854461593455625
40
2.2096147018159491
40
2.2096147018159491
40
2.2096147018159491
40
2.6909257585300215
40
2.6909257585300215
40
2.6909257585300215
40
2.6932040780325912
40
2.6932040780325912
40
2.6932040780325912
40
2.6932040780325912
10
63.882978506735441
20
175.2688227313642
30
0
10
64.429878364465708
20
175.45822253980205
30
0
10
64.973606216310344
20
175.66567341203611
30
0
10
65.514253988540105
20
175.89172547351976
30
0
10
68.667179516040036
20
177.21000578799573
30
0
10
71.507139003248625
20
179.07628281325788
30
0
10
74.065225797598259
20
181.33040379069712
30
0
10
75.267407849061996
20
182.38973601777047
30
0
10
76.404313473723519
20
183.53215877408215
30
0
10
77.474930648261932
20
184.73495872294376
30
0
10
77.479991479902139
20
184.74064438555297
30
0
10
77.485052311542347
20
184.74633004816215
30
0
10
77.490113143182526
20
184.75201571077133
30
0
0
LINE
5
200
100
AcDbEntity
8
0
100
AcDbLine
10
54.056791732001564
20
173.68753191991561
30
0
11
54.056791732001564
21
182.68753191991561
31
0
0
SPLINE
5
201
100
AcDbEntity
8
0
100
AcDbSpline
70
0
71
3
72
11
73
7
74
0
42
0.000000001
43
0.0000000001
44
0.0000000001
40
-0.0060000000000029856
40
-0.0060000000000029856
40
-0.0060000000000029856
40
-0.0060000000000029856
40
0
40
0
40
0
40
0.90841172452688523
40
0.90841172452688523
40
0.90841172452688523
40
0.90841172452688523
10
54.056791732001521
20
266.72109845117814
30
0
10
54.076791732001539
20
266.72109845117814
30
0
10
54.096791732001542
20
266.72109845117814
30
0
10
54.116791732001559
20
266.72109845117814
30
0
10
57.150081997594015
20
266.72109845117814
30
0
10
60.084361021767243
20
266.322766397659
30
0
10
62.932350961978088
20
265.44996755153176
30
0
0
SPLINE
5
202
100
AcDbEntity
8
0
100
AcDbSpline
70
0
71
3
72
17
73
13
74
0
42
0.000000001
43
0.0000000001
44
0.0000000001
40
1.0098254651754857
40
1.0098254651754857
40
1.0098254651754857
40
1.0098254651754857
40
1.1854461593455625
40
1.1854461593455625
40
1.1854461593455625
40
2.2096147018159491
40
2.2096147018159491
40
2.2096147018159491
40
2.6909257585300215
40
2.6909257585300215
40
2.6909257585300215
40
2.6932040780334234
40
2.6932040780334234
40
2.6932040780334234
40
2.6932040780334234
10
63.882978506735441
20
265.1398076397295
30
0
10
64.429878364465708
20
264.95040783129161
30
0
10
64.973606216310344
20
264.74295695905761
30
0
10
65.514253988540105
20
264.51690489757402
30
0
10
68.667179516040036
20
263.19862458309802
30
0
10
71.507139003248625
20
261.33234755783587
30
0
10
74.065225797598259
20
259.07822658039663
30
0
10
75.267407849061996
20
258.01889435332328
30
0
10
76.404313473723519
20
256.87647159701163
30
0
10
77.474930648261932
20
255.67367164814999
30
0
10
77.479991479903987
20
255.66798598553873
30
0
10
77.485052311546042
20
255.66230032292742
30
0
10
77.490113143188182
20
255.65661466031611
30
0
0
SPLINE
5
203
100
AcDbEntity
8
0
100
AcDbSpline
70
0
71
3
72
11
73
7
74
0
42
0.000000001
43
0.0000000001
44
0.0000000001
40
0.0029463633459040125
40
0.0029463633459040125
40
0.0029463633459040125
40
0.0029463633459040125
40
0.17165046323514607
40
0.17165046323514607
40
0.17165046323514607
40
0.34778058115272459
40
0.34778058115272459
40
0.34778058115272459
40
0.34778058115272459
10
91.388446789269977
20
133.35506989439719
30
0
10
91.410965219115084
20
133.91671071125165
30
0
10
91.429702100667441
20
134.47854273995623
30
0
10
91.44479806344826
20
135.04044294493451
30
0
10
91.460565428181468
20
135.62733399681315
30
0
10
91.47633279291469
20
136.21422504869176
30
0
10
91.492100157647911
20
136.80111610057037
30
0
0
LINE
5
204
100
AcDbEntity
8
0
100
AcDbLine
10
84.743067569548614
20
129.02703507417957
30
0
11
91.388446789269977
21
133.35506989439719
31
0
0
SPLINE
5
205
100
AcDbEntity
8
0
100
AcDbSpline
70
0
71
3
72
11
73
7
74
0
42
0.000000001
43
0.0000000001
44
0.0000000001
40
0.0028054996296751978
40
0.0028054996296751978
40
0.0028054996296751978
40
0.0028054996296751978
40
0.18591679171400147
40
0.18591679171400147
40
0.18591679171400147
40
0.36498872745299993
40
0.36498872745299993
40
0.36498872745299993
40
0.36498872745299993
10
85.093450574338775
20
132.63377256038066
30
0
10
85.045071785323529
20
132.02499241901759
30
0
10
84.991445319554927
20
131.41659714213668
30
0
10
84.932350401712924
20
130.80874854979757
30
0
10
84.8745590924282
20
130.21430883685883
30
0
10
84.811534536775198
20
129.62035687389778
30
0
10
84.743067569548614
20
129.02703507417957
30
0
0
LINE
5
206
100
AcDbEntity
8
0
100
AcDbLine
10
91.492100157647911
20
136.80111610057037
30
0
11
85.093450574338775
21
132.63377256038066
31
0
0
LINE
5
207
100
AcDbEntity
8
0
100
AcDbLine
10
4.5782123423514021
20
136.80111610059572
30
0
11
10.976861925661192
21
132.63377256038072
31
0
0
SPLINE
5
208
100
AcDbEntity
8
0
100
AcDbSpline
70
0
71
3
72
11
73
7
74
0
42
0.000000001
43
0.0000000001
44
0.0000000001
40
0.0028054996296706116
40
0.0028054996296706116
40
0.0028054996296706116
40
0.0028054996296706116
40
0.18591679171400147
40
0.18591679171400147
40
0.18591679171400147
40
0.36498872745300309
40
0.36498872745300309
40
0.36498872745300309
40
0.36498872745300309
10
10.976861925661174
20
132.63377256038072
30
0
10
11.025240714676382
20
132.02499241901762
30
0
10
11.078867180445044
20
131.41659714213671
30
0
10
11.137962098287062
20
130.80874854979757
30
0
10
11.195753407571768
20
130.21430883685883
30
0
10
11.258777963224757
20
129.62035687389775
30
0
10
11.327244930451375
20
129.02703507417951
30
0
0
LINE
5
209
100
AcDbEntity
8
0
100
AcDbLine
10
11.327244930451375
20
129.02703507417951
30
0
11
4.6818657107299302
21
133.35506989439719
31
0
0
SPLINE
5
210
100
AcDbEntity
8
0
100
AcDbSpline
70
0
71
3
72
11
73
7
74
0
42
0.000000001
43
0.0000000001
44
0.0000000001
40
0.0029463633459122468
40
0.0029463633459122468
40
0.0029463633459122468
40
0.0029463633459122468
40
0.17165046323514607
40
0.17165046323514607
40
0.17165046323514607
40
0.3477805811552625
40
0.3477805811552625
40
0.3477805811552625
40
0.3477805811552625
10
4.6818657107299488
20
133.35506989439722
30
0
10
4.6593472808848837
20
133.91671071125162
30
0
10
4.6406103993325516
20
134.47854273995623
30
0
10
4.6255144365517271
20
135.04044294493448
30
0
10
4.6097470718182887
20
135.62733399682156
30
0
10
4.5939797070848503
20
136.21422504870867
30
0
10
4.5782123423514118
20
136.80111610059572
30
0
0
LINE
5
211
100
AcDbEntity
8
0
100
AcDbLine
10
30.472434284609019
20
169.9718871230547
30
0
11
7.7515143225236072
21
169.97188712305459
31
0
0
LINE
5
212
100
AcDbEntity
8
0
100
AcDbLine
10
4.5550155011864959
20
137.66454627688535
30
0
11
4.5485810010903975
21
137.90405050564698
31
0
0
LINE
5
213
100
AcDbEntity
8
0
100
AcDbLine
10
26.670336266964153
20
73.019121943055836
30
0
11
3.9397807926784845
21
73.019121943055737
31
0
0
LINE
5
214
100
AcDbEntity
8
0
100
AcDbLine
10
26.670336266964153
20
73.019121943055836
30
0
11
26.670336266964149
21
75.935796493875415
31
0
0
LINE
5
215
100
AcDbEntity
8
0
100
AcDbLine
10
36.670336266964149
20
75.935796493875415
30
0
11
69.399976233035844
21
75.935796493875444
31
0
0
LINE
5
216
100
AcDbEntity
8
0
100
AcDbLine
10
69.399976233035829
20
73.019121943055836
30
0
11
69.399976233035844
21
75.935796493875444
31
0
0
LINE
5
217
100
AcDbEntity
8
0
100
AcDbLine
10
69.399976233035829
20
73.019121943055836
30
0
11
92.130531707321495
21
73.01912194305585
31
0
0
LINE
5
218
100
AcDbEntity
8
0
100
AcDbLine
10
91.515296998813355
20
137.66454627690041
30
0
11
91.52173149891
21
137.90405050568086
31
0
0
LINE
5
219
100
AcDbEntity
8
0
100
AcDbLine
10
65.597878215390892
20
169.9718871230547
30
0
11
88.31879817747631
21
169.97188712305459
31
0
0
LINE
5
220
100
AcDbEntity
8
0
100
AcDbLine
10
65.597878215390892
20
166.82758229681698
30
0
11
65.597878215390892
21
169.9718871230547
31
0
0
LINE
5
221
100
AcDbEntity
8
0
100
AcDbLine
10
55.597878215390892
20
166.82758229681698
30
0
11
30.472434284609044
21
166.82758229681698
31
0
0
LINE
5
222
100
AcDbEntity
8
0
100
AcDbLine
10
30.472434284609044
20
166.82758229681698
30
0
11
30.472434284609019
21
169.9718871230547
31
0
0
LINE
5
223
100
AcDbEntity
8
0
100
AcDbLine
10
26.670336266964149
20
75.935796493875415
30
0
11
35.670336266964149
21
75.935796493875415
31
0
0
SPLINE
5
224
100
AcDbEntity
8
0
100
AcDbSpline
70
0
71
3
72
11
73
7
74
0
42
0.000000001
43
0.0000000001
44
0.0000000001
40
0.04414444202151048
40
0.04414444202151048
40
0.04414444202151048
40
0.04414444202151048
40
0.050195381992079312
40
0.050195381992079312
40
0.050195381992079312
40
0.98478785906444988
40
0.98478785906444988
40
0.98478785906444988
40
0.98478785906444988
10
92.130531707321495
20
73.019121943055936
30
0
10
92.129445897533074
20
73.039165624694178
30
0
10
92.128360087744667
20
73.059209306332406
30
0
10
92.127274277956261
20
73.079252987970634
30
0
10
91.959584582498735
20
76.17474807894618
30
0
10
91.826541223828357
20
79.134239064151274
30
0
10
91.72243049095178
20
82.009742054602896
30
0
0
SPLINE
5
225
100
AcDbEntity
8
0
100
AcDbSpline
70
0
71
3
72
14
73
10
74
0
42
0.000000001
43
0.0000000001
44
0.0000000001
40
1.0934204805195686
40
1.0934204805195686
40
1.0934204805195686
40
1.0934204805195686
40
4.3122863290266302
40
4.3122863290266302
40
4.3122863290266302
40
6.8062369397288514
40
6.8062369397288514
40
6.8062369397288514
40
7.1199546176317829
40
7.1199546176317829
40
7.1199546176317829
40
7.1199546176317829
10
91.687290191406134
20
83.009124261640153
30
0
10
91.351617763556959
20
92.847929105571879
30
0
10
91.351268702629739
20
101.76218031448212
30
0
10
91.452811187510704
20
111.87697933925199
30
0
10
91.531485746918804
20
119.71387005261299
30
0
10
91.657273102394484
20
127.44817709873944
30
0
10
91.558863297933243
20
135.03965035120569
30
0
10
91.546486031592167
20
135.99445040269742
30
0
10
91.534108765251091
20
136.94925045418915
30
0
10
91.521731498910015
20
137.90405050568089
30
0
0
SPLINE
5
226
100
AcDbEntity
8
0
100
AcDbSpline
70
0
71
3
72
8
73
4
74
0
42
0.000000001
43
0.0000000001
44
0.0000000001
40
7.0943132558711612
40
7.0943132558711612
40
7.0943132558711612
40
7.0943132558711612
40
8.091621120681733
40
8.091621120681733
40
8.091621120681733
40
8.091621120681733
10
91.51529699881317
20
137.66454627690041
30
0
10
91.453674701400502
20
140.68689449143474
30
0
10
91.351340866524851
20
143.68566571224076
30
0
10
91.191108371130767
20
146.65828482010716
30
0
0
SPLINE
5
227
100
AcDbEntity
8
0
100
AcDbSpline
70
0
71
3
72
11
73
7
74
0
42
0.000000001
43
0.0000000001
44
0.0000000001
40
8.2033883295648184
40
8.2033883295648184
40
8.2033883295648184
40
8.2033883295648184
40
10.76222605383281
40
10.76222605383281
40
10.76222605383281
40
10.767576834123558
40
10.767576834123558
40
10.767576834123558
40
10.767576834123558
10
91.135031410339522
20
147.65671040921899
30
0
10
90.690065441997149
20
155.26857063880738
30
0
10
89.851269943867464
20
162.70637045446534
30
0
10
88.328347153092949
20
169.9266150057914
30
0
10
88.325164161220741
20
169.94170571154581
30
0
10
88.321981169348504
20
169.95679641730021
30
0
10
88.318798177476324
20
169.97188712305461
30
0
0
LINE
5
228
100
AcDbEntity
8
0
100
AcDbLine
10
65.597878215390892
20
166.82758229681698
30
0
11
56.597878215390892
21
166.82758229681698
31
0
0
SPLINE
5
229
100
AcDbEntity
8
0
100
AcDbSpline
70
0
71
3
72
8
73
4
74
0
42
0.000000001
43
0.0000000001
44
0.0000000001
40
7.0943132558695066
40
7.0943132558695066
40
7.0943132558695066
40
7.0943132558695066
40
8.0916211206800579
40
8.0916211206800579
40
8.0916211206800579
40
8.0916211206800579
10
4.5550155011864959
20
137.66454627688535
30
0
10
4.616637798599033
20
140.68689449141965
30
0
10
4.7189716334745082
20
143.6856657122257
30
0
10
4.8792041288683743
20
146.65828482009215
30
0
0
SPLINE
5
230
100
AcDbEntity
8
0
100
AcDbSpline
70
0
71
3
72
11
73
7
74
0
42
0.000000001
43
0.0000000001
44
0.0000000001
40
8.203388329563138
40
8.203388329563138
40
8.203388329563138
40
8.203388329563138
40
10.76222605383281
40
10.76222605383281
40
10.76222605383281
40
10.767576834123558
40
10.767576834123558
40
10.767576834123558
40
10.767576834123558
10
4.9352810896595685
20
147.65671040920392
30
0
10
5.3802470580016841
20
155.26857063879757
30
0
10
6.2190425561314484
20
162.70637045446057
30
0
10
7.7419653469069676
20
169.92661500579135
30
0
10
7.7451483387791793
20
169.94170571154575
30
0
10
7.7483313306513928
20
169.95679641730018
30
0
10
7.7515143225236036
20
169.97188712305459
30
0
0
SPLINE
5
231
100
AcDbEntity
8
0
100
AcDbSpline
70
0
71
3
72
11
73
7
74
0
42
0.000000001
43
0.0000000001
44
0.0000000001
40
0.044144442021496644
40
0.044144442021496644
40
0.044144442021496644
40
0.044144442021496644
40
0.050195381992079312
40
0.050195381992079312
40
0.050195381992079312
40
0.984787859064434
40
0.984787859064434
40
0.984787859064434
40
0.984787859064434
10
3.9397807926784845
20
73.019121943055737
30
0
10
3.9408666024668992
20
73.039165624694036
30
0
10
3.941952412255314
20
73.05920930633232
30
0
10
3.9430382220437288
20
73.079252987970591
30
0
10
4.1107279175012463
20
76.174748078946095
30
0
10
4.2437712761716009
20
79.134239064151132
30
0
10
4.3478820090481722
20
82.009742054602711
30
0
0
SPLINE
5
232
100
AcDbEntity
8
0
100
AcDbSpline
70
0
71
3
72
14
73
10
74
0
42
0.000000001
43
0.0000000001
44
0.0000000001
40
1.0934204805195555
40
1.0934204805195555
40
1.0934204805195555
40
1.0934204805195555
40
4.3122863290266302
40
4.3122863290266302
40
4.3122863290266302
40
6.8062369397288514
40
6.8062369397288514
40
6.8062369397288514
40
7.1199546176280766
40
7.1199546176280766
40
7.1199546176280766
40
7.1199546176280766
10
4.3830223085938158
20
83.009124261639982
30
0
10
4.7186947364429912
20
92.847929105571779
30
0
10
4.7190437973702579
20
101.76218031448204
30
0
10
4.6175013124892841
20
111.87697933925195
30
0
10
4.538826753081179
20
119.71387005261295
30
0
10
4.4130393976054165
20
127.44817709873944
30
0
10
4.5114492020667427
20
135.03965035120567
30
0
10
4.5238264684076768
20
135.99445040268614
30
0
10
4.5362037347486117
20
136.94925045416656
30
0
10
4.5485810010895458
20
137.90405050564698
30
0
0
SPLINE
5
233
100
AcDbEntity
8
0
100
AcDbSpline
70
0
71
3
72
17
73
13
74
0
42
0.000000001
43
0.0000000001
44
0.0000000001
40
0
40
0
40
0
40
0
40
0.19532223669346355
40
0.19532223669346355
40
0.19532223669346355
40
0.39064447338692743
40
0.39064447338692743
40
0.39064447338692743
40
0.56148559450446778
40
0.56148559450446778
40
0.56148559450446778
40
0.73232671562200835
40
0.73232671562200835
40
0.73232671562200835
40
0.73232671562200835
10
24.689627050363967
20
159.90820522781402
30
0
10
24.046365817520133
20
159.90820522781402
30
0
10
23.409254512666806
20
159.78256200503677
30
0
10
22.814154220729847
20
159.53834763974214
30
0
10
22.219053928792889
20
159.29413327444752
30
0
10
21.677343616063538
20
158.93601741151411
30
0
10
21.219514531687938
20
158.48415731903026
30
0
10
20.819068400315306
20
158.08893204363383
30
0
10
20.489070271841939
20
157.62818321134245
30
0
10
20.243785367736358
20
157.12182815976166
30
0
10
19.998500463630776
20
156.61547310818085
30
0
10
19.841514864548571
20
156.07091477986825
30
0
10
19.779614773637768
20
155.5116934451637
30
0
0
SPLINE
5
234
100
AcDbEntity
8
0
100
AcDbSpline
70
0
71
3
72
20
73
16
74
0
42
0.000000001
43
0.0000000001
44
0.0000000001
40
0
40
0
40
0
40
0
40
0.19532223669346394
40
0.19532223669346394
40
0.19532223669346394
40
0.3906444733869282
40
0.3906444733869282
40
0.3906444733869282
40
0.58596671008039236
40
0.58596671008039236
40
0.58596671008039236
40
0.68976638294292025
40
0.68976638294292025
40
0.68976638294292025
40
0.79356605580544803
40
0.79356605580544803
40
0.79356605580544803
40
0.79356605580544803
10
19.137017805435221
20
92.737765294278276
30
0
10
19.129114928332861
20
92.094552609225175
30
0
10
19.246921347357247
20
91.455945780387196
30
0
10
19.483806092432438
20
90.857890071251006
30
0
10
19.720690837507625
20
90.259834362114816
30
0
10
20.072124414083582
20
89.713765249770177
30
0
10
20.518325679933671
20
89.250419327123296
30
0
10
20.964526945783753
20
88.787073404476402
30
0
10
21.496964046308065
20
88.415310350654352
30
0
10
22.085667693669105
20
88.156055593198403
30
0
10
22.398521196903111
20
88.018280399408184
30
0
10
22.724832451929732
20
87.91335065745028
30
0
10
23.059352500524319
20
87.842954239941918
30
0
10
23.393872549118903
20
87.772557822433583
30
0
10
23.734798054361626
20
87.737074223695799
30
0
10
24.076644976988888
20
87.737074223695799
30
0
0
LINE
5
235
100
AcDbEntity
8
0
100
AcDbLine
10
61.993667523011098
20
87.737074223695799
30
0
11
24.076644976988888
21
87.737074223695814
31
0
0
SPLINE
5
236
100
AcDbEntity
8
0
100
AcDbSpline
70
0
71
3
72
20
73
16
74
0
42
0.000000001
43
0.0000000001
44
0.0000000001
40
0
40
0
40
0
40
0
40
0.19532223669346394
40
0.19532223669346394
40
0.19532223669346394
40
0.3906444733869282
40
0.3906444733869282
40
0.3906444733869282
40
0.58596671008039236
40
0.58596671008039236
40
0.58596671008039236
40
0.68976638294292025
40
0.68976638294292025
40
0.68976638294292025
40
0.79356605580544803
40
0.79356605580544803
40
0.79356605580544803
40
0.79356605580544803
10
76.933294694564765
20
92.737765294278276
30
0
10
76.941197571667118
20
92.094552609225175
30
0
10
76.823391152642728
20
91.455945780387196
30
0
10
76.586506407567555
20
90.857890071251006
30
0
10
76.349621662492368
20
90.259834362114816
30
0
10
75.998188085916411
20
89.713765249770177
30
0
10
75.551986820066318
20
89.250419327123296
30
0
10
75.105785554216226
20
88.787073404476402
30
0
10
74.573348453691921
20
88.415310350654352
30
0
10
73.984644806330877
20
88.156055593198403
30
0
10
73.671791303096882
20
88.018280399408184
30
0
10
73.345480048070243
20
87.91335065745028
30
0
10
73.010959999475659
20
87.842954239941918
30
0
10
72.67643995088109
20
87.772557822433583
30
0
10
72.335514445638353
20
87.737074223695799
30
0
10
71.993667523011098
20
87.737074223695799
30
0
0
SPLINE
5
237
100
AcDbEntity
8
0
100
AcDbSpline
70
0
71
3
72
17
73
13
74
0
42
0.000000001
43
0.0000000001
44
0.0000000001
40
0
40
0
40
0
40
0
40
0.19532223669346355
40
0.19532223669346355
40
0.19532223669346355
40
0.39064447338692743
40
0.39064447338692743
40
0.39064447338692743
40
0.56148559450446778
40
0.56148559450446778
40
0.56148559450446778
40
0.73232671562200835
40
0.73232671562200835
40
0.73232671562200835
40
0.73232671562200835
10
71.380685449636019
20
159.90820522781402
30
0
10
72.023946682479774
20
159.90820522781402
30
0
10
72.66105798733318
20
159.78256200503677
30
0
10
73.256158279270139
20
159.53834763974214
30
0
10
73.851258571207097
20
159.29413327444752
30
0
10
74.392968883936433
20
158.93601741151411
30
0
10
74.850797968312051
20
158.48415731903026
30
0
10
75.251244099684683
20
158.08893204363383
30
0
10
75.581242228158047
20
157.62818321134245
30
0
10
75.826527132263635
20
157.12182815976166
30
0
10
76.071812036369209
20
156.61547310818085
30
0
10
76.228797635451414
20
156.07091477986825
30
0
10
76.290697726362225
20
155.5116934451637
30
0
0
LINE
5
238
100
AcDbEntity
8
0
100
AcDbLine
10
34.689627050363967
20
159.90820522781402
30
0
11
71.380685449636019
21
159.90820522781402
31
0
0
SPLINE
5
239
100
AcDbEntity
8
0
100
AcDbSpline
70
0
71
3
72
8
73
4
74
0
42
0.000000001
43
0.0000000001
44
0.0000000001
40
8.6766911075743582
40
8.6766911075743582
40
8.6766911075743582
40
8.6766911075743582
40
9.3548776975971375
40
9.3548776975971375
40
9.3548776975971375
40
9.3548776975971375
10
76.933294694564765
20
92.73776529427937
30
0
10
76.895286072382049
20
95.831275115166875
30
0
10
76.889981179277953
20
98.823449006393602
30
0
10
76.905555769733041
20
101.73760519242924
30
0
0
SPLINE
5
240
100
AcDbEntity
8
0
100
AcDbSpline
70
0
71
3
72
14
73
10
74
0
42
0.000000001
43
0.0000000001
44
0.0000000001
40
9.4326862849101669
40
9.4326862849101669
40
9.4326862849101669
40
9.4326862849101669
40
10.729307589949302
40
10.729307589949302
40
10.729307589949302
40
12.452033656792029
40
12.452033656792029
40
12.452033656792029
40
13.911583529323483
40
13.911583529323483
40
13.911583529323483
40
13.911583529323483
10
76.911723060859913
20
102.73758606327748
30
0
10
76.950362390959299
20
108.27550575119118
30
0
10
77.060364520332271
20
113.5380232780729
30
0
10
77.159094206749842
20
118.68810101849755
30
0
10
77.290381238776405
20
125.53648113374452
30
0
10
77.409237543925812
20
132.37482514012561
30
0
10
77.280403641641882
20
139.04384666500334
30
0
10
77.171252402646616
20
144.69400512036322
30
0
10
76.87666770374571
20
150.21789002698426
30
0
10
76.290697726362225
20
155.51169344516373
30
0
0
LINE
5
241
100
AcDbEntity
8
0
100
AcDbLine
10
71.993667523011098
20
87.737074223695799
30
0
11
62.993667523011098
21
87.737074223695799
31
0
0
SPLINE
5
242
100
AcDbEntity
8
0
100
AcDbSpline
70
0
71
3
72
8
73
4
74
0
42
0.000000001
43
0.0000000001
44
0.0000000001
40
8.6766911075743582
40
8.6766911075743582
40
8.6766911075743582
40
8.6766911075743582
40
9.3548776975971375
40
9.3548776975971375
40
9.3548776975971375
40
9.3548776975971375
10
19.137017805435221
20
92.73776529427937
30
0
10
19.175026427617933
20
95.831275115166875
30
0
10
19.180331320722029
20
98.823449006393602
30
0
10
19.16475673026693
20
101.73760519242924
30
0
0
SPLINE
5
243
100
AcDbEntity
8
0
100
AcDbSpline
70
0
71
3
72
14
73
10
74
0
42
0.000000001
43
0.0000000001
44
0.0000000001
40
9.4326862849101669
40
9.4326862849101669
40
9.4326862849101669
40
9.4326862849101669
40
10.729307589949302
40
10.729307589949302
40
10.729307589949302
40
12.452033656792029
40
12.452033656792029
40
12.452033656792029
40
13.911583529323483
40
13.911583529323483
40
13.911583529323483
40
13.911583529323483
10
19.158589439140041
20
102.73758606327748
30
0
10
19.119950109040648
20
108.27550575119118
30
0
10
19.009947979667672
20
113.5380232780729
30
0
10
18.911218293250151
20
118.68810101849755
30
0
10
18.779931261223592
20
125.53648113374452
30
0
10
18.661074956074096
20
132.37482514012561
30
0
10
18.789908858358096
20
139.04384666500334
30
0
10
18.89906009735337
20
144.69400512036322
30
0
10
19.193644796254215
20
150.21789002698426
30
0
10
19.779614773637768
20
155.5116934451637
30
0
0
LINE
5
244
100
AcDbEntity
8
0
100
AcDbLine
10
24.689627050363967
20
159.90820522781402
30
0
11
33.689627050363967
21
159.90820522781402
31
0
0
LINE
5
245
100
AcDbEntity
8
0
100
AcDbLine
10
40.915163309851721
20
348.42547087880001
30
0
11
41.018227700299875
21
348.67334024554293
31
0
0
LINE
5
246
100
AcDbEntity
8
0
100
AcDbLine
10
41.018227700299875
20
348.67334024554293
30
0
11
45.82300529988192
21
346.8210368721173
31
0
0
SPLINE
5
247
100
AcDbEntity
8
0
100
AcDbSpline
70
0
71
3
72
14
73
10
74
0
42
0.000000001
43
0.0000000001
44
0.0000000001
40
-0.006163991531341749
40
-0.006163991531341749
40
-0.006163991531341749
40
-0.006163991531341749
40
0
40
0
40
0
40
0.24021212434048428
40
0.24021212434048428
40
0.24021212434048428
40
0.24605436504991654
40
0.24605436504991654
40
0.24605436504991654
40
0.24605436504991654
10
45.823005299882027
20
346.82103687211759
30
0
10
45.815101051526561
20
346.80207202742616
30
0
10
45.807196803171081
20
346.7831071827348
30
0
10
45.799292554815601
20
346.76414233804343
30
0
10
45.491264307874026
20
346.02508308774134
30
0
10
45.183334710444853
20
345.28598004395906
30
0
10
44.875504603691915
20
344.54683816074544
30
0
10
44.868017764433915
20
344.52886124313056
30
0
10
44.860530925175908
20
344.51088432551563
30
0
10
44.853044085917887
20
344.49290740790076
30
0
0
LINE
5
248
100
AcDbEntity
8
0
100
AcDbLine
10
44.85304408591788
20
344.49290740790082
30
0
11
40.265729899797847
21
346.26137584703025
31
0
0
LINE
5
249
100
AcDbEntity
8
0
100
AcDbLine
10
33.180172540881841
20
301.10072777192545
30
0
11
37.295135999604128
21
300.07311631201947
31
0
0
LINE
5
250
100
AcDbEntity
8
0
100
AcDbLine
10
37.295135999604128
20
300.07311631201947
30
0
11
36.70344702191268
21
297.63995130740426
31
0
0
LINE
5
251
100
AcDbEntity
8
0
100
AcDbLine
10
36.70344702191268
20
297.63995130740426
30
0
11
33.05397978285918
21
298.55131647378835
31
0
0
LINE
5
252
100
AcDbEntity
8
0
100
AcDbLine
10
33.538079780263168
20
267.46063719493867
30
0
11
41.597872271163979
21
268.21410165675934
31
0
0
LINE
5
253
100
AcDbEntity
8
0
100
AcDbLine
10
41.597872271163979
20
268.21410165675934
30
0
11
41.727051067785808
21
266.51123320591665
31
0
0
LINE
5
254
100
AcDbEntity
8
0
100
AcDbLine
10
41.727051067785808
20
266.51123320591665
30
0
11
35.259721819229412
21
265.90663913514112
31
0
0
SPLINE
5
255
100
AcDbEntity
8
0
100
AcDbSpline
70
0
71
3
72
8
73
4
74
0
42
0.000000001
43
0.0000000001
44
0.0000000001
40
-1.6621138515071974
40
-1.6621138515071974
40
-1.6621138515071974
40
-1.6621138515071974
40
-1.6598736417955313
40
-1.6598736417955313
40
-1.6598736417955313
40
-1.6598736417955313
10
35.259721819229448
20
265.90663913514078
30
0
10
35.608952143841911
20
261.48958782819676
30
0
10
35.958997627075391
20
257.07215632303763
30
0
10
36.309857390569356
20
252.65435570423475
30
0
0
LINE
5
256
100
AcDbEntity
8
0
100
AcDbLine
10
39.640273118014669
20
252.96569745361407
30
0
11
36.309857390569356
21
252.65435570423477
31
0
0
LINE
5
257
100
AcDbEntity
8
0
100
AcDbLine
10
48.81979371415008
20
263.83246479791416
30
0
11
39.640273118014669
21
252.96569745361407
31
0
0
LINE
5
258
100
AcDbEntity
8
0
100
AcDbLine
10
47.892759678482307
20
273.74796715800989
30
0
11
48.81979371415008
21
263.83246479791416
31
0
0
LINE
5
259
100
AcDbEntity
8
0
100
AcDbLine
10
42.739399500337043
20
281.01592031353135
30
0
11
47.892759678482307
21
273.74796715800989
31
0
0
LINE
5
260
100
AcDbEntity
8
0
100
AcDbLine
10
54.796003392352439
20
370.91091024413561
30
0
11
58.626020749324709
21
364.45080573031925
31
0
0
LINE
5
261
100
AcDbEntity
8
0
100
AcDbLine
10
54.796003392352439
20
370.91091024413561
30
0
11
50.775717211089969
21
370.53507640382867
31
0
0
SPLINE
5
262
100
AcDbEntity
8
0
100
AcDbSpline
70
0
71
3
72
8
73
4
74
0
42
0.000000001
43
0.0000000001
44
0.0000000001
40
4.8086579737135189
40
4.8086579737135189
40
4.8086579737135189
40
4.8086579737135189
40
5.8381440436909511
40
5.8381440436909511
40
5.8381440436909511
40
5.8381440436909511
10
58.626020749324709
20
364.45080573031925
30
0
10
57.084585133023879
20
361.95057834894016
30
0
10
55.693251893857507
20
359.27432680752082
30
0
10
54.445186804243477
20
356.48809829482968
30
0
0
SPLINE
5
263
100
AcDbEntity
8
0
100
AcDbSpline
70
0
71
3
72
20
73
16
74
0
42
0.000000001
43
0.0000000001
44
0.0000000001
40
5.9503840033015667
40
5.9503840033015667
40
5.9503840033015667
40
5.9503840033015667
40
6.0814895583732191
40
6.0814895583732191
40
6.0814895583732191
40
7.0416339103589429
40
7.0416339103589429
40
7.0416339103589429
40
10.392383476711027
40
10.392383476711027
40
10.392383476711027
40
15.412736714174311
40
15.412736714174311
40
15.412736714174311
40
15.415038392212985
40
15.415038392212985
40
15.415038392212985
40
15.415038392212985
10
54.042075053775335
20
355.57295451676043
30
0
10
53.887101397647584
20
355.21517299827673
30
0
10
53.734439201265012
20
354.85572464088352
30
0
10
53.584074349289217
20
354.49474585771702
30
0
10
52.481907169116589
20
351.84878862557895
30
0
10
51.492224351046964
20
349.10578488274859
30
0
10
50.609237974423309
20
346.33200030176499
30
0
10
47.527736955372987
20
336.65187358722778
30
0
10
45.771438135394206
20
326.62185933924025
30
0
10
44.746833518481345
20
318.93722118516558
30
0
10
43.215098493551636
20
307.44905372992599
30
0
10
42.426151700476908
20
294.36871180106016
30
0
10
42.738969354406862
20
281.03425611323274
30
0
10
42.739112736383603
20
281.02814417999895
30
0
10
42.739256118360331
20
281.02203224676515
30
0
10
42.739399500337065
20
281.01592031353135
30
0
0
SPLINE
5
264
100
AcDbEntity
8
0
100
AcDbSpline
70
0
71
3
72
11
73
7
74
0
42
0.000000001
43
0.0000000001
44
0.0000000001
40
8.7542425501020382
40
8.7542425501020382
40
8.7542425501020382
40
8.7542425501020382
40
9.0531952495198933
40
9.0531952495198933
40
9.0531952495198933
40
9.8200246465919125
40
9.8200246465919125
40
9.8200246465919125
40
9.8200246465919125
10
40.915163309851401
20
348.42547087880007
30
0
10
41.173738315870224
20
349.26071547590573
30
0
10
41.440120110953806
20
350.09082914265321
30
0
10
41.714506283540956
20
350.9149996295958
30
0
10
42.418326813864198
20
353.02905699526889
30
0
10
43.147692589436062
20
355.02566446135734
30
0
10
43.899919749848245
20
356.91366257170068
30
0
0
SPLINE
5
265
100
AcDbEntity
8
0
100
AcDbSpline
70
0
71
3
72
8
73
4
74
0
42
0.000000001
43
0.0000000001
44
0.0000000001
40
9.9467423640829864
40
9.9467423640829864
40
9.9467423640829864
40
9.9467423640829864
40
11.990429827017945
40
11.990429827017945
40
11.990429827017945
40
11.990429827017945
10
44.274694621871014
20
357.84077386820638
30
0
10
46.299406774947926
20
362.7774820512376
30
0
10
48.483349330016694
20
366.95313283903852
30
0
10
50.775717211089969
20
370.53507640382873
30
0
0
SPLINE
5
266
100
AcDbEntity
8
0
100
AcDbSpline
70
0
71
3
72
8
73
4
74
0
42
0.000000001
43
0.0000000001
44
0.0000000001
40
3.4133558203933605
40
3.4133558203933605
40
3.4133558203933605
40
3.4133558203933605
40
4.3645964922645337
40
4.3645964922645337
40
4.3645964922645337
40
4.3645964922645337
10
33.180172540881841
20
301.10072777192545
30
0
10
33.345457247565008
20
304.14021465757799
30
0
10
33.561685461259266
20
307.13713264575625
30
0
10
33.825420907346206
20
310.07710399714779
30
0
0
SPLINE
5
267
100
AcDbEntity
8
0
100
AcDbSpline
70
0
71
3
72
11
73
7
74
0
42
0.000000001
43
0.0000000001
44
0.0000000001
40
4.472235116176007
40
4.472235116176007
40
4.472235116176007
40
4.472235116176007
40
5.8384182050373417
40
5.8384182050373417
40
5.8384182050373417
40
8.4973445082932191
40
8.4973445082932191
40
8.4973445082932191
40
8.4973445082932191
10
33.916770590582978
20
311.07292219607808
30
0
10
34.310928735660525
20
315.27656989225966
30
0
10
34.802278204433883
20
319.3593976404959
30
0
10
35.380639100771035
20
323.27881167018734
30
0
10
36.506272323837095
20
330.90695989859012
30
0
10
38.083943157092747
20
338.75950566828692
30
0
10
40.265729899797847
20
346.26137584703025
30
0
0
SPLINE
5
268
100
AcDbEntity
8
0
100
AcDbSpline
70
0
71
3
72
8
73
4
74
0
42
0.000000001
43
0.0000000001
44
0.0000000001
40
0.0060881726802065285
40
0.0060881726802065285
40
0.0060881726802065285
40
0.0060881726802065285
40
0.90628080928546528
40
0.90628080928546528
40
0.90628080928546528
40
0.90628080928546528
10
33.538079780263168
20
267.46063719493867
30
0
10
33.302481131379274
20
270.45127553926824
30
0
10
33.125089337940182
20
273.44983458583476
30
0
10
33.002503804523869
20
276.44415393963618
30
0
0
SPLINE
5
269
100
AcDbEntity
8
0
100
AcDbSpline
70
0
71
3
72
8
73
4
74
0
42
0.000000001
43
0.0000000001
44
0.0000000001
40
1.0064335647258393
40
1.0064335647258393
40
1.0064335647258393
40
1.0064335647258393
40
3.1484016243728359
40
3.1484016243728359
40
3.1484016243728359
40
3.1484016243728359
10
32.963618812145576
20
277.44339695179809
30
0
10
32.700849711606608
20
284.5656428205391
30
0
10
32.746240994279027
20
291.65622434151169
30
0
10
33.05397978285918
20
298.55131647378835
30
0
0
LINE
5
270
100
AcDbEntity
8
0
100
AcDbLine
10
44.93315645122054
20
446.29729405609828
30
0
11
43.504583781656464
21
446.61728510385478
31
0
0
SPLINE
5
271
100
AcDbEntity
8
0
100
AcDbSpline
70
0
71
3
72
8
73
4
74
0
42
0.000000001
43
0.0000000001
44
0.0000000001
40
1.7290549343763657
40
1.7290549343763657
40
1.7290549343763657
40
1.7290549343763657
40
1.731260565313294
40
1.731260565313294
40
1.731260565313294
40
1.731260565313294
10
43.504583781656322
20
446.61728510385393
30
0
10
43.018422265487864
20
443.95195500836877
30
0
10
42.533094322539043
20
441.28692646149364
30
0
10
42.048601133318051
20
438.62220594557039
30
0
0
LINE
5
272
100
AcDbEntity
8
0
100
AcDbLine
10
43.617909945271691
20
438.2706909112452
30
0
11
42.048601133318051
21
438.62220594557039
31
0
0
SPLINE
5
273
100
AcDbEntity
8
0
100
AcDbSpline
70
0
71
3
72
8
73
4
74
0
42
0.000000001
43
0.0000000001
44
0.0000000001
40
1.7315362608704206
40
1.7315362608704206
40
1.7315362608704206
40
1.7315362608704206
40
1.7330094632613051
40
1.7330094632613051
40
1.7330094632613051
40
1.7330094632613051
10
43.617909945271698
20
438.27069091124531
30
0
10
43.29499285988588
20
436.49392765880384
30
0
10
42.972447613493443
20
434.71730195460475
30
0
10
42.650274556093265
20
432.94081572654881
30
0
0
LINE
5
274
100
AcDbEntity
8
0
100
AcDbLine
10
50.70000357979599
20
431.13772843576152
30
0
11
42.650274556093265
21
432.94081572654881
31
0
0
SPLINE
5
275
100
AcDbEntity
8
0
100
AcDbSpline
70
0
71
3
72
8
73
4
74
0
42
0.000000001
43
0.0000000001
44
0.0000000001
40
-1.3761178340359992
40
-1.3761178340359992
40
-1.3761178340359992
40
-1.3761178340359992
40
-1.3756470689203404
40
-1.3756470689203404
40
-1.3756470689203404
40
-1.3756470689203404
10
50.700003579796004
20
431.13772843576152
30
0
10
50.616644641968804
20
430.65508902270955
30
0
10
50.533318799983974
20
430.17246546280558
30
0
10
50.450026063074951
20
429.68985780952846
30
0
0
LINE
5
276
100
AcDbEntity
8
0
100
AcDbLine
10
40.818475167688931
20
431.84726297917649
30
0
11
50.450026063074958
21
429.68985780952846
31
0
0
LINE
5
277
100
AcDbEntity
8
0
100
AcDbLine
10
44.365032913895
20
404.75915511811644
30
0
11
40.253001150129194
21
404.27399263224083
31
0
0
LINE
5
278
100
AcDbEntity
8
0
100
AcDbLine
10
44.654096708444165
20
402.51420769623724
30
0
11
44.365032913895
21
404.75915511811644
31
0
0
LINE
5
279
100
AcDbEntity
8
0
100
AcDbLine
10
40.643964013179776
20
402.04106789279075
30
0
11
44.654096708444165
21
402.51420769623724
31
0
0
SPLINE
5
280
100
AcDbEntity
8
0
100
AcDbSpline
70
0
71
3
72
14
73
10
74
0
42
0.000000001
43
0.0000000001
44
0.0000000001
40
4.0014351833449249
40
4.0014351833449249
40
4.0014351833449249
40
4.0014351833449249
40
4.0128055973716377
40
4.0128055973716377
40
4.0128055973716377
40
6.92829022986278
40
6.92829022986278
40
6.92829022986278
40
6.9334314247631754
40
6.9334314247631754
40
6.9334314247631754
40
6.9334314247631754
10
40.643964013179712
20
402.04106789279103
30
0
10
40.64803917595745
20
402.01993931640686
30
0
10
40.652114338735203
20
401.99881074002269
30
0
10
40.656189501512955
20
401.97768216363852
30
0
10
41.702008753384099
20
396.55540257573341
30
0
10
43.390586482712862
20
391.29534512479881
30
0
10
45.774707371662359
20
386.34231099894924
30
0
10
45.778907325358432
20
386.33358555466486
30
0
10
45.783107279054519
20
386.32486011038054
30
0
10
45.787307232750585
20
386.31613466609633
30
0
0
LINE
5
281
100
AcDbEntity
8
0
100
AcDbLine
10
49.594242616979272
20
385.46340573721807
30
0
11
45.787307232750585
21
386.31613466609627
31
0
0
LINE
5
282
100
AcDbEntity
8
0
100
AcDbLine
10
49.594242616979272
20
385.46340573721807
30
0
11
54.436021298965862
21
391.70664519413748
31
0
0
LINE
5
283
100
AcDbEntity
8
0
100
AcDbLine
10
49.490943235211887
20
418.18319751220025
30
0
11
54.465803268540895
21
423.58848985902966
31
0
0
LINE
5
284
100
AcDbEntity
8
0
100
AcDbLine
10
54.465803268540895
20
423.58848985902966
30
0
11
56.661901725931749
21
433.39278362878582
31
0
0
LINE
5
285
100
AcDbEntity
8
0
100
AcDbLine
10
56.661901725931749
20
433.39278362878582
30
0
11
44.93315645122054
21
446.29729405609828
31
0
0
SPLINE
5
286
100
AcDbEntity
8
0
100
AcDbSpline
70
0
71
3
72
11
73
7
74
0
42
0.000000001
43
0.0000000001
44
0.0000000001
40
5.1943842754348406
40
5.1943842754348406
40
5.1943842754348406
40
5.1943842754348406
40
5.1987544288220953
40
5.1987544288220953
40
5.1987544288220953
40
6.2708182779329853
40
6.2708182779329853
40
6.2708182779329853
40
6.2708182779329853
10
54.436021298965933
20
391.70664519413725
30
0
10
54.431030618423584
20
391.71763440185003
30
0
10
54.426039937881242
20
391.72862360956282
30
0
10
54.421049257338879
20
391.73961281727554
30
0
10
53.198228632906186
20
394.43219747047493
30
0
10
52.204416344038833
20
397.25518205264592
30
0
10
51.4365320916298
20
400.18056979638544
30
0
0
SPLINE
5
287
100
AcDbEntity
8
0
100
AcDbSpline
70
0
71
3
72
14
73
10
74
0
42
0.000000001
43
0.0000000001
44
0.0000000001
40
6.388790972643978
40
6.388790972643978
40
6.388790972643978
40
6.388790972643978
40
6.6278366848843469
40
6.6278366848843469
40
6.6278366848843469
40
6.7530763253088715
40
6.7530763253088715
40
6.7530763253088715
40
7.9778792966692045
40
7.9778792966692045
40
7.9778792966692045
40
7.9778792966692045
10
51.191235586438999
20
401.15000443531062
30
0
10
51.031093832841265
20
401.80724871142547
30
0
10
50.882168096574681
20
402.46943117404447
30
0
10
50.744424228967986
20
403.13624144668353
30
0
10
50.672133740511434
20
403.48619561273449
30
0
10
50.600987217051724
20
403.84663663204265
30
0
10
50.531513100913358
20
404.21765765464329
30
0
10
49.852051459249331
20
407.8462688140275
30
0
10
49.317452921468416
20
412.49257515620792
30
0
10
49.490943235211887
20
418.18319751220025
30
0
0
SPLINE
5
288
100
AcDbEntity
8
0
100
AcDbSpline
70
0
71
3
72
11
73
7
74
0
42
0.000000001
43
0.0000000001
44
0.0000000001
40
-0.0062511052214190635
40
-0.0062511052214190635
40
-0.0062511052214190635
40
-0.0062511052214190635
40
0
40
0
40
0
40
0.95730679083836345
40
0.95730679083836345
40
0.95730679083836345
40
0.95730679083836345
10
40.818475167688888
20
431.84726297917615
30
0
10
40.814757663084542
20
431.82676026097005
30
0
10
40.811040158480196
20
431.80625754276383
30
0
10
40.80732265387585
20
431.78575482455767
30
0
10
40.237673531759853
20
428.6440356687898
30
0
10
39.858560036272785
20
425.69282977195667
30
0
10
39.628311277768091
20
422.9298521474218
30
0
0
SPLINE
5
289
100
AcDbEntity
8
0
100
AcDbSpline
70
0
71
3
72
14
73
10
74
0
42
0.000000001
43
0.0000000001
44
0.0000000001
40
1.0734117470752866
40
1.0734117470752866
40
1.0734117470752866
40
1.0734117470752866
40
3.447510354614618
40
3.447510354614618
40
3.447510354614618
40
3.5927541737206172
40
3.5927541737206172
40
3.5927541737206172
40
3.6028979231372502
40
3.6028979231372502
40
3.6028979231372502
40
3.6028979231372502
10
39.551030413407204
20
421.93284840303301
30
0
10
39.068049429896888
20
415.19387486092978
30
0
10
39.469545640235665
20
409.6108543740288
30
0
10
40.119931155266983
20
405.14893503862675
30
0
10
40.159722278099757
20
404.87595112948105
30
0
10
40.201080598049046
20
404.60329896036535
30
0
10
40.244013533942102
20
404.33099662712505
30
0
10
40.247009406004466
20
404.31199529549701
30
0
10
40.25000527806683
20
404.29299396386898
30
0
10
40.253001150129187
20
404.27399263224089
30
0
0
LINE
5
290
100
AcDbEntity
8
0
100
AcDbLine
10
5.7428771317591334
20
417.79916653911607
30
0
11
5.6376084006788343
21
418.33388656561198
31
0
0
SPLINE
5
291
100
AcDbEntity
8
0
100
AcDbSpline
70
0
71
3
72
8
73
4
74
0
42
0.000000001
43
0.0000000001
44
0.0000000001
40
7.4428298804272393
40
7.4428298804272393
40
7.4428298804272393
40
7.4428298804272393
40
8.0345233776454474
40
8.0345233776454474
40
8.0345233776454474
40
8.0345233776454474
10
5.6376084006790128
20
418.33388656561198
30
0
10
5.688060332820406
20
416.45524485342543
30
0
10
5.7683240073149236
20
414.63949193335577
30
0
10
5.8763327060983546
20
412.88403875236634
30
0
0
LINE
5
292
100
AcDbEntity
8
0
100
AcDbLine
10
10.887176614459264
20
413.08174191779267
30
0
11
5.8763327060983546
21
412.88403875236634
31
0
0
LINE
5
293
100
AcDbEntity
8
0
100
AcDbLine
10
10.986249225209058
20
410.58244692559015
30
0
11
10.887176614459264
21
413.08174191779267
31
0
0
LINE
5
294
100
AcDbEntity
8
0
100
AcDbLine
10
6.0515943696069243
20
410.38774980407868
30
0
11
10.986249225209058
21
410.58244692559015
31
0
0
LINE
5
295
100
AcDbEntity
8
0
100
AcDbLine
10
17.380468697090162
20
382.96683862914313
30
0
11
12.680133586241951
21
381.13637417635164
31
0
0
LINE
5
296
100
AcDbEntity
8
0
100
AcDbLine
10
18.288138398306565
20
380.63609040679177
30
0
11
17.380468697090162
21
382.96683862914313
31
0
0
LINE
5
297
100
AcDbEntity
8
0
100
AcDbLine
10
13.728074833814381
20
378.86025228878026
30
0
11
18.288138398306565
21
380.63609040679177
31
0
0
SPLINE
5
298
100
AcDbEntity
8
0
100
AcDbSpline
70
0
71
3
72
8
73
4
74
0
42
0.000000001
43
0.0000000001
44
0.0000000001
40
13.167835444745482
40
13.167835444745482
40
13.167835444745482
40
13.167835444745482
40
13.963184125509621
40
13.963184125509621
40
13.963184125509621
40
13.963184125509621
10
13.728074833814352
20
378.86025228878032
30
0
10
14.378608204567108
20
377.52131107875465
30
0
10
15.077780830987335
20
376.21088620108901
30
0
10
15.829074264338779
20
374.93230065776618
30
0
0
LINE
5
299
100
AcDbEntity
8
0
100
AcDbLine
10
15.829074264338775
20
374.93230065776623
30
0
11
26.158693535965462
21
380.89610912486592
31
0
0
LINE
5
300
100
AcDbEntity
8
0
100
AcDbLine
10
27.42812965047094
20
492.94644973700599
30
0
11
27.939335359155141
21
494.85429541493431
31
0
0
LINE
5
301
100
AcDbEntity
8
0
100
AcDbLine
10
27.939335359155141
20
494.85429541493431
30
0
11
21.215237851868242
21
506.50077393260267
31
0
0
LINE
5
302
100
AcDbEntity
8
0
100
AcDbLine
10
21.215237851868242
20
506.50077393260267
30
0
11
18.914034327262289
21
507.11737955864044
31
0
0
LINE
5
303
100
AcDbEntity
8
0
100
AcDbLine
10
18.914034327262289
20
507.11737955864044
30
0
11
17.763934542753908
21
502.82514872908104
31
0
0
LINE
5
304
100
AcDbEntity
8
0
100
AcDbLine
10
19.298819010227071
20
502.41387767554647
30
0
11
17.763934542753908
21
502.82514872908104
31
0
0
LINE
5
305
100
AcDbEntity
8
0
100
AcDbLine
10
17.891786629122528
20
497.1627613413699
30
0
11
19.298819010227071
21
502.41387767554647
31
0
0
LINE
5
306
100
AcDbEntity
8
0
100
AcDbLine
10
23.486141261187083
20
495.66375853553484
30
0
11
17.891786629122528
21
497.1627613413699
31
0
0
LINE
5
307
100
AcDbEntity
8
0
100
AcDbLine
10
23.042415061006633
20
494.00774981181223
30
0
11
23.486141261187083
21
495.66375853553484
31
0
0
LINE
5
308
100
AcDbEntity
8
0
100
AcDbLine
10
15.913182127005411
20
495.91802201913129
30
0
11
23.042415061006633
21
494.00774981181223
31
0
0
LINE
5
309
100
AcDbEntity
8
0
100
AcDbLine
10
8.5240832352367164
20
459.98532242588976
30
0
11
12.237017687981421
21
460.29268161922903
31
0
0
SPLINE
5
310
100
AcDbEntity
8
0
100
AcDbSpline
70
0
71
3
72
14
73
10
74
0
42
0.000000001
43
0.0000000001
44
0.0000000001
40
-0.0061210951662724195
40
-0.0061210951662724195
40
-0.0061210951662724195
40
-0.0061210951662724195
40
0
40
0
40
0
40
0.24285123913242013
40
0.24285123913242013
40
0.24285123913242013
40
0.24873334003020572
40
0.24873334003020572
40
0.24873334003020572
40
0.24873334003020572
10
12.237017687981421
20
460.29268161922903
30
0
10
12.23829436930485
20
460.27231794960051
30
0
10
12.239571050628282
20
460.25195427997204
30
0
10
12.240847731951712
20
460.23159061034357
30
0
10
12.291499223174753
20
459.42367542076113
30
0
10
12.342205752595238
20
458.61576335519061
30
0
10
12.392967269424007
20
457.80785507156622
30
0
10
12.394196768475902
20
457.78828665575065
30
0
10
12.395426267527796
20
457.76871823993508
30
0
10
12.396655766579689
20
457.74914982411957
30
0
0
LINE
5
311
100
AcDbEntity
8
0
100
AcDbLine
10
12.396655766579691
20
457.74914982411963
30
0
11
8.1538692603581104
21
457.39792911645577
31
0
0
SPLINE
5
312
100
AcDbEntity
8
0
100
AcDbSpline
70
0
71
3
72
8
73
4
74
0
42
0.000000001
43
0.0000000001
44
0.0000000001
40
3.7036759465418267
40
3.7036759465418267
40
3.7036759465418267
40
3.7036759465418267
40
4.0388121126452292
40
4.0388121126452292
40
4.0388121126452292
40
4.0388121126452292
10
8.153869260358114
20
457.39792911645571
30
0
10
7.9862100057552707
20
456.19055239245199
30
0
10
7.8256866884753604
20
454.98293064900048
30
0
10
7.672609333754286
20
453.77607026266844
30
0
0
LINE
5
313
100
AcDbEntity
8
0
100
AcDbLine
10
10.566499456236372
20
452.93209433660434
30
0
11
7.672609333754286
21
453.77607026266844
31
0
0
LINE
5
314
100
AcDbEntity
8
0
100
AcDbLine
10
9.8670214737851261
20
450.53059970875432
30
0
11
10.566499456236372
21
452.93209433660434
31
0
0
LINE
5
315
100
AcDbEntity
8
0
100
AcDbLine
10
7.3642560516318483
20
451.26050778247077
30
0
11
9.8670214737851261
21
450.53059970875432
31
0
0
LINE
5
316
100
AcDbEntity
8
0
100
AcDbLine
10
5.5958280714301996
20
420.31994004570316
30
0
11
10.224543467740606
21
421.23526209338394
31
0
0
LINE
5
317
100
AcDbEntity
8
0
100
AcDbLine
10
10.224543467740606
20
421.23526209338394
30
0
11
10.707693905605629
21
418.78095216789319
31
0
0
LINE
5
318
100
AcDbEntity
8
0
100
AcDbLine
10
10.707693905605629
20
418.78095216789319
30
0
11
5.7428771317591334
21
417.79916653911607
31
0
0
SPLINE
5
319
100
AcDbEntity
8
0
100
AcDbSpline
70
0
71
3
72
8
73
4
74
0
42
0.000000001
43
0.0000000001
44
0.0000000001
40
0.0060003151055509404
40
0.0060003151055509404
40
0.0060003151055509404
40
0.0060003151055509404
40
0.88696900807831569
40
0.88696900807831569
40
0.88696900807831569
40
0.88696900807831569
10
15.913182127005394
20
495.91802201913117
30
0
10
15.153665553469672
20
493.08105360529737
30
0
10
14.420593655329689
20
490.16555398032938
30
0
10
13.719468043154601
20
487.18982184122103
30
0
0
SPLINE
5
320
100
AcDbEntity
8
0
100
AcDbSpline
70
0
71
3
72
8
73
4
74
0
42
0.000000001
43
0.0000000001
44
0.0000000001
40
0.98284963504911804
40
0.98284963504911804
40
0.98284963504911804
40
0.98284963504911804
40
3.4642096592135569
40
3.4642096592135569
40
3.4642096592135569
40
3.4642096592135569
10
13.491688390600704
20
486.21610957280063
30
0
10
11.53664895331125
20
477.79826479199812
30
0
10
9.83980202552973
20
468.91837190920171
30
0
10
8.5240832352367164
20
459.98532242588976
30
0
0
SPLINE
5
321
100
AcDbEntity
8
0
100
AcDbSpline
70
0
71
3
72
8
73
4
74
0
42
0.000000001
43
0.0000000001
44
0.0000000001
40
4.505378127138429
40
4.505378127138429
40
4.505378127138429
40
4.505378127138429
40
5.8511846382509596
40
5.8511846382509596
40
5.8511846382509596
40
5.8511846382509596
10
26.158693535965426
20
380.89610912486597
30
0
10
24.636981403009148
20
383.46984272233851
30
0
10
23.387243041156623
20
386.21386824749806
30
0
10
22.358519727462763
20
389.04032611691946
30
0
0
SPLINE
5
322
100
AcDbEntity
8
0
100
AcDbSpline
70
0
71
3
72
14
73
10
74
0
42
0.000000001
43
0.0000000001
44
0.0000000001
40
6.0003242826486893
40
6.0003242826486893
40
6.0003242826486893
40
6.0003242826486893
40
7.1666219544717418
40
7.1666219544717418
40
7.1666219544717418
40
12.452215904117882
40
12.452215904117882
40
12.452215904117882
40
16.852234597073544
40
16.852234597073544
40
16.852234597073544
40
16.852234597073544
10
22.024589680232054
20
389.98291110568408
30
0
10
21.174990213298273
20
392.4472631805495
30
0
10
20.487137117157459
20
394.96621160263231
30
0
10
19.927863949632542
20
397.48257303559774
30
0
10
17.39328821463776
20
408.88649691182542
30
0
10
17.221842159433606
20
421.37489919011983
30
0
10
17.677171848542656
20
431.68106063440337
30
0
10
18.056216154107943
20
440.26054029744944
30
0
10
18.97132157620544
20
449.30920351085956
30
0
10
20.308442522996785
20
458.38009037384052
30
0
0
SPLINE
5
323
100
AcDbEntity
8
0
100
AcDbSpline
70
0
71
3
72
8
73
4
74
0
42
0.000000001
43
0.0000000001
44
0.0000000001
40
17.012146449354663
40
17.012146449354663
40
17.012146449354663
40
17.012146449354663
40
22.582629613734532
40
22.582629613734532
40
22.582629613734532
40
22.582629613734532
10
20.455896059559564
20
459.36915890566189
30
0
10
22.187353514667375
20
470.8543220023721
30
0
10
24.588570072347174
20
482.34906912032966
30
0
10
27.42812965047094
20
492.94644973700599
30
0
0
SPLINE
5
324
100
AcDbEntity
8
0
100
AcDbSpline
70
0
71
3
72
8
73
4
74
0
42
0.000000001
43
0.0000000001
44
0.0000000001
40
8.3196779737994717
40
8.3196779737994717
40
8.3196779737994717
40
8.3196779737994717
40
9.4283796635530557
40
9.4283796635530557
40
9.4283796635530557
40
9.4283796635530557
10
6.0515943696069225
20
410.38774980407868
30
0
10
6.3032002210428715
20
407.20620214459217
30
0
10
6.6488381905780525
20
404.23200765425804
30
0
10
7.0748258426826993
20
401.44810987202169
30
0
0
SPLINE
5
325
100
AcDbEntity
8
0
100
AcDbSpline
70
0
71
3
72
11
73
7
74
0
42
0.000000001
43
0.0000000001
44
0.0000000001
40
9.5605837599719603
40
9.5605837599719603
40
9.5605837599719603
40
9.5605837599719603
40
12.105147664217501
40
12.105147664217501
40
12.105147664217501
40
12.722352025715335
40
12.722352025715335
40
12.722352025715335
40
12.722352025715335
10
7.230617245219026
20
400.46032347926428
30
0
10
8.251827104319359
20
394.17464402200414
30
0
10
9.6876779496237635
20
388.88062263581753
30
0
10
11.372760692469354
20
384.37206111332205
30
0
10
11.781490827996448
20
383.27847388744493
30
0
10
12.216750084659083
20
382.19939749626326
30
0
10
12.680133586241952
20
381.13637417635164
30
0
0
SPLINE
5
326
100
AcDbEntity
8
0
100
AcDbSpline
70
0
71
3
72
8
73
4
74
0
42
0.000000001
43
0.0000000001
44
0.0000000001
40
4.2717965735588077
40
4.2717965735588077
40
4.2717965735588077
40
4.2717965735588077
40
5.1055142471811887
40
5.1055142471811887
40
5.1055142471811887
40
5.1055142471811887
10
7.3642560516318252
20
451.26050778247071
30
0
10
7.0095842865690061
20
448.26204892944827
30
0
10
6.7026405393874189
20
445.2725897902655
30
0
10
6.4479804448761406
20
442.30765838610063
30
0
0
SPLINE
5
327
100
AcDbEntity
8
0
100
AcDbSpline
70
0
71
3
72
11
73
7
74
0
42
0.000000001
43
0.0000000001
44
0.0000000001
40
5.1990051016343912
40
5.1990051016343912
40
5.1990051016343912
40
5.1990051016343912
40
7.0517437653235229
40
7.0517437653235229
40
7.0517437653235229
40
7.2367364925439865
40
7.2367364925439865
40
7.2367364925439865
40
7.2367364925439865
10
6.3642885430215523
20
441.31116730799414
30
0
10
5.8245525383414734
20
434.73497295197092
30
0
10
5.5455393692410579
20
428.2885066622203
30
0
10
5.5772449334084371
20
422.14218099244192
30
0
10
5.5804106889320391
20
421.52847910919388
30
0
10
5.5866266432219103
20
420.92109184122069
30
0
10
5.5958280714301996
20
420.31994004570311
30
0
0
SPLINE
5
328
100
AcDbEntity
8
0
100
AcDbSpline
70
0
71
3
72
14
73
10
74
0
42
0.000000001
43
0.0000000001
44
0.0000000001
40
-0.0061643651199029086
40
-0.0061643651199029086
40
-0.0061643651199029086
40
-0.0061643651199029086
40
0
40
0
40
0
40
0.24021212434048428
40
0.24021212434048428
40
0.24021212434048428
40
0.24605370849848818
40
0.24605370849848818
40
0.24605370849848818
40
0.24605370849848818
10
27.475598732979964
20
413.72617369029621
30
0
10
27.471513587736158
20
413.74631139409388
30
0
10
27.467428442492363
20
413.7664490978915
30
0
10
27.46334329724856
20
413.78658680168917
30
0
10
27.304154996219228
20
414.57130476466688
30
0
10
27.145071964480621
20
415.35604659518975
30
0
10
26.986094068521108
20
416.14080727003278
30
0
10
26.982227948322915
20
416.159891552646
30
0
10
26.978361828124726
20
416.17897583525928
30
0
10
26.974495707926522
20
416.19806011787261
30
0
0
LINE
5
329
100
AcDbEntity
8
0
100
AcDbLine
10
26.974495707926526
20
416.19806011787267
30
0
11
22.131220247618412
21
415.35110340474722
31
0
0
LINE
5
330
100
AcDbEntity
8
0
100
AcDbLine
10
23.919755230210814
20
461.02960817017589
30
0
11
28.156176922128662
21
461.24115950214536
31
0
0
LINE
5
331
100
AcDbEntity
8
0
100
AcDbLine
10
28.156176922128662
20
461.24115950214536
30
0
11
28.046556824498531
21
463.74286552458159
31
0
0
LINE
5
332
100
AcDbEntity
8
0
100
AcDbLine
10
28.046556824498531
20
463.74286552458159
30
0
11
24.289370632477159
21
463.5552454528414
31
0
0
LINE
5
333
100
AcDbEntity
8
0
100
AcDbLine
10
30.781903849570263
20
493.96436867629518
30
0
11
38.544197107769065
21
491.66482549245256
31
0
0
LINE
5
334
100
AcDbEntity
8
0
100
AcDbLine
10
39.000532028344601
20
493.31048911136327
30
0
11
38.544197107769065
21
491.66482549245256
31
0
0
LINE
5
335
100
AcDbEntity
8
0
100
AcDbLine
10
39.000532028344601
20
493.31048911136327
30
0
11
32.771921765039174
21
495.15568585926695
31
0
0
SPLINE
5
336
100
AcDbEntity
8
0
100
AcDbSpline
70
0
71
3
72
8
73
4
74
0
42
0.000000001
43
0.0000000001
44
0.0000000001
40
1.6598722032534694
40
1.6598722032534694
40
1.6598722032534694
40
1.6598722032534694
40
1.6621124129695679
40
1.6621124129695679
40
1.6621124129695679
40
1.6621124129695679
10
36.367250675648556
20
507.95410507555027
30
0
10
35.167936304485842
20
503.68775727325561
30
0
10
33.969492331872672
20
499.42161396617848
30
0
10
32.771921765039039
20
495.1556858592665
30
0
0
LINE
5
337
100
AcDbEntity
8
0
100
AcDbLine
10
39.574745101247814
20
507.00389980780693
30
0
11
36.367250675648556
21
507.95410507555027
31
0
0
LINE
5
338
100
AcDbEntity
8
0
100
AcDbLine
10
46.478286338882384
20
494.56549387003361
30
0
11
39.574745101247814
21
507.00389980780693
31
0
0
LINE
5
339
100
AcDbEntity
8
0
100
AcDbLine
10
43.649571050320631
20
485.01693754470898
30
0
11
46.478286338882384
21
494.56549387003361
31
0
0
LINE
5
340
100
AcDbEntity
8
0
100
AcDbLine
10
37.186486958591885
20
478.88405931490161
30
0
11
43.649571050320631
21
485.01693754470898
31
0
0
LINE
5
341
100
AcDbEntity
8
0
100
AcDbLine
10
31.617205041242421
20
388.35465660481532
30
0
11
36.625490276757297
21
393.95115025924247
31
0
0
LINE
5
342
100
AcDbEntity
8
0
100
AcDbLine
10
31.617205041242421
20
388.35465660481532
30
0
11
27.745304103627767
21
389.50168920376211
31
0
0
LINE
5
343
100
AcDbEntity
8
0
100
AcDbLine
10
22.349565586733398
20
413.10230078354374
30
0
11
22.402735473270358
21
412.83906833612843
31
0
0
LINE
5
344
100
AcDbEntity
8
0
100
AcDbLine
10
22.402735473270358
20
412.83906833612843
30
0
11
27.475598732979964
21
413.72617369029621
31
0
0
SPLINE
5
345
100
AcDbEntity
8
0
100
AcDbSpline
70
0
71
3
72
8
73
4
74
0
42
0.000000001
43
0.0000000001
44
0.0000000001
40
4.8086582084572633
40
4.8086582084572633
40
4.8086582084572633
40
4.8086582084572633
40
5.8381097982566015
40
5.8381097982566015
40
5.8381097982566015
40
5.8381097982566015
10
36.625490276757297
20
393.95115025924247
30
0
10
35.597009964256713
20
396.70242514615461
30
0
10
34.749864398464616
20
399.59732761716066
30
0
10
34.064566628154616
20
402.57238866183775
30
0
0
SPLINE
5
346
100
AcDbEntity
8
0
100
AcDbSpline
70
0
71
3
72
20
73
16
74
0
42
0.000000001
43
0.0000000001
44
0.0000000001
40
5.9503467499816889
40
5.9503467499816889
40
5.9503467499816889
40
5.9503467499816889
40
6.0814895583732191
40
6.0814895583732191
40
6.0814895583732191
40
7.0416339103589429
40
7.0416339103589429
40
7.0416339103589429
40
10.392383476711027
40
10.392383476711027
40
10.392383476711027
40
15.412736714174311
40
15.412736714174311
40
15.412736714174311
40
15.415038605106142
40
15.415038605106142
40
15.415038605106142
40
15.415038605106142
10
33.846167113857788
20
403.54824155514677
30
0
10
33.76333265902143
20
403.92936790988438
30
0
10
33.683090264702969
20
404.31168281705027
30
0
10
33.605399644401203
20
404.69505506348889
30
0
10
33.036092877232704
20
407.50435705379732
30
0
10
32.595936932268636
20
410.38709442838899
30
0
10
32.266427211690086
20
413.27937491031457
30
0
10
31.116483603352428
20
423.37303602559143
30
0
10
31.334524904928216
20
433.5534185320214
30
0
10
31.816548396450294
20
441.29111819006715
30
0
10
32.53715052231707
20
452.85861006748655
30
0
10
34.294725633889726
20
465.84437363680075
30
0
10
37.182515680165395
20
478.86615181265404
30
0
10
37.183839439640884
20
478.87212098006989
30
0
10
37.185163199116381
20
478.87809014748575
30
0
10
37.186486958591878
20
478.88405931490161
30
0
0
SPLINE
5
347
100
AcDbEntity
8
0
100
AcDbSpline
70
0
71
3
72
8
73
4
74
0
42
0.000000001
43
0.0000000001
44
0.0000000001
40
0.0060882340566629067
40
0.0060882340566629067
40
0.0060882340566629067
40
0.0060882340566629067
40
0.90628032723999963
40
0.90628032723999963
40
0.90628032723999963
40
0.90628032723999963
10
30.781903849570263
20
493.96436867629518
30
0
10
29.971906730463655
20
491.0758873926834
30
0
10
29.217488035006525
20
488.16836670866951
30
0
10
28.517664783267918
20
485.25439541060393
30
0
0
SPLINE
5
348
100
AcDbEntity
8
0
100
AcDbSpline
70
0
71
3
72
8
73
4
74
0
42
0.000000001
43
0.0000000001
44
0.0000000001
40
1.0064329863850978
40
1.0064329863850978
40
1.0064329863850978
40
1.0064329863850978
40
3.1484020576941392
40
3.1484020576941392
40
3.1484020576941392
40
3.1484020576941392
10
28.286110118667267
20
484.28157421581659
30
0
10
26.649787537820615
20
477.34485798807697
30
0
10
25.321955297257229
20
470.37954943920232
30
0
10
24.289370632477162
20
463.55524545284135
30
0
0
SPLINE
5
349
100
AcDbEntity
8
0
100
AcDbSpline
70
0
71
3
72
8
73
4
74
0
42
0.000000001
43
0.0000000001
44
0.0000000001
40
3.413356083204039
40
3.413356083204039
40
3.413356083204039
40
3.413356083204039
40
4.3645925668536112
40
4.3645925668536112
40
4.3645925668536112
40
4.3645925668536112
10
23.919755230210814
20
461.02960817017589
30
0
10
23.493644577965661
20
458.01560499837279
30
0
10
23.125757403863801
20
455.0335032442506
30
0
10
22.81550488870813
20
452.09807384946862
30
0
0
SPLINE
5
350
100
AcDbEntity
8
0
100
AcDbSpline
70
0
71
3
72
11
73
7
74
0
42
0.000000001
43
0.0000000001
44
0.0000000001
40
4.4722306167352635
40
4.4722306167352635
40
4.4722306167352635
40
4.4722306167352635
40
5.8384182050373417
40
5.8384182050373417
40
5.8384182050373417
40
8.4973452275223256
40
8.4973452275223256
40
8.4973452275223256
40
8.4973452275223256
10
22.712397207303923
20
451.10340432859459
30
0
10
22.285527862055101
20
446.90291526241054
30
0
10
21.97740617276559
20
442.80214665530536
30
0
10
21.786287733841331
20
438.84485814247319
30
0
10
21.414325148789338
20
431.14302009212713
30
0
10
21.442462303411745
20
423.13351549051947
30
0
10
22.13122024761843
20
415.35110340474716
30
0
0
SPLINE
5
351
100
AcDbEntity
8
0
100
AcDbSpline
70
0
71
3
72
11
73
7
74
0
42
0.000000001
43
0.0000000001
44
0.0000000001
40
8.7542316534920168
40
8.7542316534920168
40
8.7542316534920168
40
8.7542316534920168
40
9.0531952495198933
40
9.0531952495198933
40
9.0531952495198933
40
9.8199887386398856
40
9.8199887386398856
40
9.8199887386398856
40
9.8199887386398856
10
22.349565586733398
20
413.10230078354374
30
0
10
22.441617477318871
20
412.23275797974736
30
0
10
22.542322950123541
20
411.36673797825034
30
0
10
22.652033123184996
20
410.50499950198281
30
0
10
22.933424278835535
20
408.29476157291083
30
0
10
23.262607704212623
20
406.19479715407999
30
0
10
23.635239584996192
20
404.19695357335468
30
0
0
SPLINE
5
352
100
AcDbEntity
8
0
100
AcDbSpline
70
0
71
3
72
8
73
4
74
0
42
0.000000001
43
0.0000000001
44
0.0000000001
40
9.9467027274422026
40
9.9467027274422026
40
9.9467027274422026
40
9.9467027274422026
40
11.990430347636186
40
11.990430347636186
40
11.990430347636186
40
11.990430347636186
10
23.82351371799173
20
403.21484135401789
30
0
10
24.854643101945801
20
397.97937091414008
30
0
10
26.189321282339144
20
393.45977341229792
30
0
10
27.745304103627753
20
389.50168920376206
30
0
0
LINE
5
353
100
AcDbEntity
8
0
100
AcDbLine
10
52.066566471718197
20
94.861305432931786
30
0
11
28.33213443275779
21
94.861305432931744
31
0
0
LINE
5
354
100
AcDbEntity
8
0
100
AcDbLine
10
52.066566471718197
20
104.86130543293179
30
0
11
52.066566471718204
21
125.70692524504705
31
0
0
SPLINE
5
355
100
AcDbEntity
8
0
100
AcDbSpline
70
0
71
3
72
17
73
13
74
0
42
0.000000001
43
0.0000000001
44
0.0000000001
40
-25.29871530771894
40
-25.29871530771894
40
-25.29871530771894
40
-25.29871530771894
40
-25.282221594733873
40
-25.282221594733873
40
-25.282221594733873
40
-25.038805150489523
40
-25.038805150489523
40
-25.038805150489523
40
-24.479277425761133
40
-24.479277425761133
40
-24.479277425761133
40
-23.413810805382195
40
-23.413810805382195
40
-23.413810805382195
40
-23.413810805382195
10
52.066566471718204
20
125.70692524504705
30
0
10
52.043409082699057
20
125.70322297425285
30
0
10
52.020251693679917
20
125.69952070345865
30
0
10
51.997094304660777
20
125.69581843266445
30
0
10
51.652688279997804
20
125.64075676895955
30
0
10
51.311733973643889
20
125.56258248422908
30
0
10
50.973864176465248
20
125.46283944659777
30
0
10
50.197215821692495
20
125.23356394839324
30
0
10
49.45779511031909
20
124.89640452379376
30
0
10
48.758743981661951
20
124.49242459898494
30
0
10
47.427593647689662
20
123.72315610089905
30
0
10
46.036633819731648
20
122.59252832970419
30
0
10
44.553824865724849
20
121.04473143901161
30
0
0
SPLINE
5
356
100
AcDbEntity
8
0
100
AcDbSpline
70
0
71
3
72
14
73
10
74
0
42
0.000000001
43
0.0000000001
44
0.0000000001
40
-23.251728735556707
40
-23.251728735556707
40
-23.251728735556707
40
-23.251728735556707
40
-20.92974196953254
40
-20.92974196953254
40
-20.92974196953254
40
-19.418998429172547
40
-19.418998429172547
40
-19.418998429172547
40
-19.408502413640775
40
-19.408502413640775
40
-19.408502413640775
40
-19.408502413640775
10
43.873251436401937
20
120.31210289276217
30
0
10
40.617516804416439
20
116.70268448742669
30
0
10
37.33161451823301
20
111.58322190442014
30
0
10
34.352381013128095
20
106.34114304317612
30
0
10
32.41399549550318
20
102.93047726975755
30
0
10
30.395475474119618
20
99.089755985874021
30
0
10
28.374251990705286
20
94.9476178784372
30
0
10
28.360212804722785
20
94.918847063268714
30
0
10
28.346173618740281
20
94.890076248100229
30
0
10
28.33213443275779
20
94.861305432931744
30
0
0
LINE
5
357
100
AcDbEntity
8
0
100
AcDbLine
10
52.066566471718197
20
94.861305432931786
30
0
11
52.066566471718197
21
103.86130543293179
31
0
0
LINE
5
358
100
AcDbEntity
8
0
100
AcDbLine
10
77.99266162109376
20
67.585698966323534
30
0
11
77.99266162109376
21
70.159468287246369
31
0
0
LINE
5
359
100
AcDbEntity
8
0
100
AcDbLine
10
77.99266162109376
20
70.159468287246369
30
0
11
91.298687905846791
21
70.159468287246384
31
0
0
LINE
5
360
100
AcDbEntity
8
0
100
AcDbLine
10
70.555661621093719
20
3.940002750339497
30
0
11
82.885724989397175
21
3.9400027503394885
31
0
0
LINE
5
361
100
AcDbEntity
8
0
100
AcDbLine
10
70.555661621093719
20
3.940002750339497
30
0
11
70.555661621093719
21
6.913906633860913
31
0
0
LINE
5
362
100
AcDbEntity
8
0
100
AcDbLine
10
60.555661621093719
20
6.9139066338609068
30
0
11
24.67566162109371
21
6.9139066338608846
31
0
0
LINE
5
363
100
AcDbEntity
8
0
100
AcDbLine
10
24.67566162109371
20
3.9400027503394792
30
0
11
24.67566162109371
21
6.9139066338608846
31
0
0
LINE
5
364
100
AcDbEntity
8
0
100
AcDbLine
10
24.67566162109371
20
3.9400027503394792
30
0
11
12.345598252790243
21
3.9400027503394615
31
0
0
LINE
5
365
100
AcDbEntity
8
0
100
AcDbLine
10
17.238661621093737
20
70.159468287246355
30
0
11
3.932635336340641
21
70.159468287246341
31
0
0
LINE
5
366
100
AcDbEntity
8
0
100
AcDbLine
10
17.238661621093737
20
67.58569896632352
30
0
11
17.238661621093737
21
70.159468287246355
31
0
0
LINE
5
367
100
AcDbEntity
8
0
100
AcDbLine
10
27.23866162109374
20
67.58569896632352
30
0
11
77.99266162109376
21
67.585698966323534
31
0
0
SPLINE
5
368
100
AcDbEntity
8
0
100
AcDbSpline
70
0
71
3
72
11
73
7
74
0
42
0.000000001
43
0.0000000001
44
0.0000000001
40
0.044554058317057693
40
0.044554058317057693
40
0.044554058317057693
40
0.044554058317057693
40
0.050159898476858346
40
0.050159898476858346
40
0.050159898476858346
40
0.95689937480256715
40
0.95689937480256715
40
0.95689937480256715
40
0.95689937480256715
10
12.345598252790245
20
3.9400027503394681
30
0
10
12.344302639650538
20
3.95861380712484
30
0
10
12.343007026510831
20
3.9772248639102088
30
0
10
12.341711413371122
20
3.995835920695578
30
0
10
12.132170644572284
20
7.0058201725094165
30
0
10
11.900215746207907
20
9.9708349427966247
30
0
10
11.644727207622934
20
12.912559455301375
30
0
0
SPLINE
5
369
100
AcDbEntity
8
0
100
AcDbSpline
70
0
71
3
72
14
73
10
74
0
42
0.000000001
43
0.0000000001
44
0.0000000001
40
1.0593384118915044
40
1.0593384118915044
40
1.0593384118915044
40
1.0593384118915044
40
3.4735958405534069
40
3.4735958405534069
40
3.4735958405534069
40
6.8484452095039776
40
6.8484452095039776
40
6.8484452095039776
40
6.8552553095365161
40
6.8552553095365161
40
6.8552553095365161
40
6.8552553095365161
10
11.557232911200192
20
13.908724317107904
30
0
10
10.862780680153731
20
21.727997196014975
30
0
10
10.000595263527035
20
29.399522086732969
30
0
10
8.949545109600324
20
37.332509599028143
30
0
10
7.4802920540389284
20
48.421957708259725
30
0
10
5.8527753573967924
20
58.559888032870077
30
0
10
3.9441894972716156
20
70.089669514489614
30
0
10
3.9403381102946238
20
70.11293577207519
30
0
10
3.9364867233176328
20
70.13620202966078
30
0
10
3.9326353363406401
20
70.159468287246355
30
0
0
LINE
5
370
100
AcDbEntity
8
0
100
AcDbLine
10
17.238661621093737
20
67.58569896632352
30
0
11
26.238661621093733
21
67.58569896632352
31
0
0
SPLINE
5
371
100
AcDbEntity
8
0
100
AcDbSpline
70
0
71
3
72
11
73
7
74
0
42
0.000000001
43
0.0000000001
44
0.0000000001
40
0.044554058317056333
40
0.044554058317056333
40
0.044554058317056333
40
0.044554058317056333
40
0.050159898476858346
40
0.050159898476858346
40
0.050159898476858346
40
0.95689937480256781
40
0.95689937480256781
40
0.95689937480256781
40
0.95689937480256781
10
82.885724989397175
20
3.9400027503394885
30
0
10
82.887020602536893
20
3.958613807124864
30
0
10
82.888316215676596
20
3.9772248639102377
30
0
10
82.8896118288163
20
3.9958359206956109
30
0
10
83.099152597615131
20
7.0058201725094431
30
0
10
83.331107495979509
20
9.9708349427966461
30
0
10
83.586596034564479
20
12.912559455301395
30
0
0
SPLINE
5
372
100
AcDbEntity
8
0
100
AcDbSpline
70
0
71
3
72
14
73
10
74
0
42
0.000000001
43
0.0000000001
44
0.0000000001
40
1.0593384118915057
40
1.0593384118915057
40
1.0593384118915057
40
1.0593384118915057
40
3.4735958405534069
40
3.4735958405534069
40
3.4735958405534069
40
6.8484452095039776
40
6.8484452095039776
40
6.8484452095039776
40
6.8552553095365152
40
6.8552553095365152
40
6.8552553095365152
40
6.8552553095365152
10
83.674090330987255
20
13.908724317107925
30
0
10
84.368542562033696
20
21.727997196014989
30
0
10
85.230727978660369
20
29.399522086732979
30
0
10
86.281778132587093
20
37.332509599028164
30
0
10
87.751031188148488
20
48.421957708259754
30
0
10
89.378547884790649
20
58.559888032870113
30
0
10
91.28713374491582
20
70.089669514489657
30
0
10
91.290985131892796
20
70.112935772075232
30
0
10
91.294836518869786
20
70.136202029660808
30
0
10
91.298687905846791
20
70.159468287246384
30
0
0
LINE
5
373
100
AcDbEntity
8
0
100
AcDbLine
10
70.555661621093719
20
6.913906633860913
30
0
11
61.555661621093719
21
6.9139066338609076
31
0
0
SPLINE
5
374
100
AcDbEntity
8
0
100
AcDbSpline
70
0
71
3
72
20
73
16
74
0
42
0.000000001
43
0.0000000001
44
0.0000000001
40
0
40
0
40
0
40
0
40
0.19532223669346371
40
0.19532223669346371
40
0.19532223669346371
40
0.39064447338692776
40
0.39064447338692776
40
0.39064447338692776
40
0.58596671008039147
40
0.58596671008039147
40
0.58596671008039147
40
0.7312845105910174
40
0.7312845105910174
40
0.7312845105910174
40
0.87660231110164255
40
0.87660231110164255
40
0.87660231110164255
40
0.87660231110164255
10
70.586398493970606
20
59.01616524885835
30
0
10
71.229659726814432
20
59.01616524885835
30
0
10
71.866771031667767
20
58.890522026081094
30
0
10
72.461871323604768
20
58.646307660786462
30
0
10
73.056971615541755
20
58.402093295491824
30
0
10
73.59868192827102
20
58.043977432558449
30
0
10
74.056511012646652
20
57.592117340074587
30
0
10
74.51434009702227
20
57.140257247590739
30
0
10
74.879533761878633
20
56.603292983090213
30
0
10
75.131536350880623
20
56.011448654895673
30
0
10
75.319023769500674
20
55.571122363973174
30
0
10
75.441532824894537
20
55.105878511520572
30
0
10
75.495218450219554
20
54.630319232090727
30
0
10
75.548904075544584
20
54.154759952660896
30
0
10
75.533198673940106
20
53.673913146225736
30
0
10
75.448595174837052
20
53.202870661350012
30
0
0
SPLINE
5
375
100
AcDbEntity
8
0
100
AcDbSpline
70
0
71
3
72
17
73
13
74
0
42
0.000000001
43
0.0000000001
44
0.0000000001
40
0
40
0
40
0
40
0
40
0.19532223669346355
40
0.19532223669346355
40
0.19532223669346355
40
0.39064447338692776
40
0.39064447338692776
40
0.39064447338692776
40
0.55845468782488217
40
0.55845468782488217
40
0.55845468782488217
40
0.72626490226283691
40
0.72626490226283691
40
0.72626490226283691
40
0.72626490226283691
10
70.661232194227765
20
22.178951015922106
30
0
10
70.58277064231342
20
21.540492874341194
30
0
10
70.38035415335149
20
20.92346402639475
30
0
10
70.065376144545183
20
20.362595175728075
30
0
10
69.750398135738891
20
19.801726325061402
30
0
10
69.328881329969107
20
19.307741895493532
30
0
10
68.824551644284128
20
18.908446789316883
30
0
10
68.391259080493555
20
18.565394208485102
30
0
10
67.90345458598955
20
18.297471924525134
30
0
10
67.381492514022924
20
18.115859385090538
30
0
10
66.859530442056297
20
17.934246845655938
30
0
10
66.310773069177998
20
17.841505696146346
30
0
10
65.758118096295703
20
17.841505696146346
30
0
0
LINE
5
376
100
AcDbEntity
8
0
100
AcDbLine
10
55.758118096295711
20
17.841505696146346
30
0
11
29.473205145891765
21
17.841505696146339
31
0
0
SPLINE
5
377
100
AcDbEntity
8
0
100
AcDbSpline
70
0
71
3
72
17
73
13
74
0
42
0.000000001
43
0.0000000001
44
0.0000000001
40
0
40
0
40
0
40
0
40
0.19532223669346355
40
0.19532223669346355
40
0.19532223669346355
40
0.39064447338692776
40
0.39064447338692776
40
0.39064447338692776
40
0.55845468782488217
40
0.55845468782488217
40
0.55845468782488217
40
0.72626490226283691
40
0.72626490226283691
40
0.72626490226283691
40
0.72626490226283691
10
24.570091047959743
20
22.178951015922106
30
0
10
24.64855259987408
20
21.54049287434119
30
0
10
24.850969088835942
20
20.923464026394747
30
0
10
25.165947097642274
20
20.362595175728075
30
0
10
25.480925106448609
20
19.801726325061395
30
0
10
25.902441912218318
20
19.307741895493532
30
0
10
26.406771597903301
20
18.908446789316883
30
0
10
26.840064161693881
20
18.565394208485102
30
0
10
27.327868656197886
20
18.297471924525134
30
0
10
27.849830728164516
20
18.115859385090538
30
0
10
28.371792800131143
20
17.934246845655938
30
0
10
28.920550173009438
20
17.841505696146346
30
0
10
29.473205145891725
20
17.841505696146346
30
0
0
SPLINE
5
378
100
AcDbEntity
8
0
100
AcDbSpline
70
0
71
3
72
20
73
16
74
0
42
0.000000001
43
0.0000000001
44
0.0000000001
40
0
40
0
40
0
40
0
40
0.19532223669346371
40
0.19532223669346371
40
0.19532223669346371
40
0.39064447338692776
40
0.39064447338692776
40
0.39064447338692776
40
0.58596671008039147
40
0.58596671008039147
40
0.58596671008039147
40
0.7312845105910174
40
0.7312845105910174
40
0.7312845105910174
40
0.87660231110164255
40
0.87660231110164255
40
0.87660231110164255
40
0.87660231110164255
10
24.644924748216823
20
59.01616524885835
30
0
10
24.001663515372993
20
59.01616524885835
30
0
10
23.364552210519662
20
58.890522026081094
30
0
10
22.769451918582661
20
58.646307660786462
30
0
10
22.174351626645667
20
58.402093295491824
30
0
10
21.632641313916402
20
58.043977432558449
30
0
10
21.174812229540777
20
57.592117340074587
30
0
10
20.716983145165155
20
57.140257247590739
30
0
10
20.351789480308792
20
56.603292983090213
30
0
10
20.099786891306806
20
56.011448654895673
30
0
10
19.912299472686762
20
55.571122363973174
30
0
10
19.789790417292899
20
55.105878511520572
30
0
10
19.736104791967875
20
54.630319232090727
30
0
10
19.682419166642852
20
54.154759952660896
30
0
10
19.698124568247326
20
53.673913146225736
30
0
10
19.782728067350373
20
53.202870661350012
30
0
0
LINE
5
379
100
AcDbEntity
8
0
100
AcDbLine
10
70.586398493970606
20
59.01616524885835
30
0
11
24.644924748216823
21
59.01616524885835
31
0
0
LINE
5
380
100
AcDbEntity
8
0
100
AcDbLine
10
65.758118096295718
20
17.841505696146349
30
0
11
56.758118096295711
21
17.841505696146346
31
0
0
SPLINE
5
381
100
AcDbEntity
8
0
100
AcDbSpline
70
0
71
3
72
8
73
4
74
0
42
0.000000001
43
0.0000000001
44
0.0000000001
40
1.6927221360356217
40
1.6927221360356217
40
1.6927221360356217
40
1.6927221360356217
40
2.5865384113676906
40
2.5865384113676906
40
2.5865384113676906
40
2.5865384113676906
10
70.661232194227765
20
22.178951015922461
30
0
10
71.026754728438164
20
25.153284714454074
30
0
10
71.422626047551461
20
28.122253442933676
30
0
10
71.847662465884369
20
31.100263471751525
30
0
0
SPLINE
5
382
100
AcDbEntity
8
0
100
AcDbSpline
70
0
71
3
72
11
73
7
74
0
42
0.000000001
43
0.0000000001
44
0.0000000001
40
2.6855313805894734
40
2.6855313805894734
40
2.6855313805894734
40
2.6855313805894734
40
3.2601714148455136
40
3.2601714148455136
40
3.2601714148455136
40
4.798769224961136
40
4.798769224961136
40
4.798769224961136
40
4.798769224961136
10
71.989956466239832
20
32.090087738234303
30
0
10
72.267359021532684
20
34.006070040152842
30
0
10
72.556762154402762
20
35.926448850154408
30
0
10
72.857851322405523
20
37.85505236652569
30
0
10
73.664384081084734
20
43.021235941894261
30
0
10
74.539043448205334
20
48.138806999949765
30
0
10
75.448595174879699
20
53.202870661587333
30
0
0
SPLINE
5
383
100
AcDbEntity
8
0
100
AcDbSpline
70
0
71
3
72
8
73
4
74
0
42
0.000000001
43
0.0000000001
44
0.0000000001
40
1.6927221360356217
40
1.6927221360356217
40
1.6927221360356217
40
1.6927221360356217
40
2.5865384113676906
40
2.5865384113676906
40
2.5865384113676906
40
2.5865384113676906
10
24.570091047959671
20
22.178951015922461
30
0
10
24.204568513749262
20
25.153284714454074
30
0
10
23.808697194635982
20
28.122253442933676
30
0
10
23.383660776303074
20
31.100263471751525
30
0
0
SPLINE
5
384
100
AcDbEntity
8
0
100
AcDbSpline
70
0
71
3
72
11
73
7
74
0
42
0.000000001
43
0.0000000001
44
0.0000000001
40
2.6855313805894734
40
2.6855313805894734
40
2.6855313805894734
40
2.6855313805894734
40
3.2601714148455136
40
3.2601714148455136
40
3.2601714148455136
40
4.798769224961136
40
4.798769224961136
40
4.798769224961136
40
4.798769224961136
10
23.241366775947583
20
32.090087738234303
30
0
10
22.96396422065472
20
34.006070040152842
30
0
10
22.674561087784664
20
35.926448850154408
30
0
10
22.373471919781899
20
37.85505236652569
30
0
10
21.566939161102695
20
43.021235941894261
30
0
10
20.692279793982102
20
48.138806999949765
30
0
10
19.782728067307737
20
53.202870661587333
30
0
0
SPLINE
5
385
100
AcDbEntity
8
0
100
AcDbSpline
70
0
71
3
72
14
73
10
74
0
42
0.000000001
43
0.0000000001
44
0.0000000001
40
-0.77240952456092526
40
-0.77240952456092526
40
-0.77240952456092526
40
-0.77240952456092526
40
-0.55571435491125754
40
-0.55571435491125754
40
-0.55571435491125754
40
-0.31715911679357511
40
-0.31715911679357511
40
-0.31715911679357511
40
0
40
0
40
0
40
0
10
12.591414495232364
20
256.73890704291193
30
0
10
11.96238567804787
20
257.0327350829665
30
0
10
11.333356860863313
20
257.32656312302089
30
0
10
10.704328043678784
20
257.6203911630754
30
0
10
10.011843206527422
20
257.94386038564357
30
0
10
9.4725481490068137
20
258.19577254838305
30
0
10
8.7520333489820885
20
258.53228055532099
30
0
10
7.794109140409887
20
258.97966784870232
30
0
10
6.8377362334219836
20
259.42625864784935
30
0
10
5.879833540688062
20
259.87349386709462
30
0
0
LINE
5
386
100
AcDbEntity
8
0
100
AcDbLine
10
5.879833540688062
20
259.87349386709462
30
0
11
3.5362738548508066
21
260.96771515799895
31
0
0
SPLINE
5
387
100
AcDbEntity
8
0
100
AcDbSpline
70
0
71
3
72
11
73
7
74
0
42
0.000000001
43
0.0000000001
44
0.0000000001
40
7.9535269686501557
40
7.9535269686501557
40
7.9535269686501557
40
7.9535269686501557
40
8.1207537856831173
40
8.1207537856831173
40
8.1207537856831173
40
8.1614919762674383
40
8.1614919762674383
40
8.1614919762674383
40
8.1614919762674383
10
7.1670887745958947
20
360.48938726977104
30
0
10
7.3017089156420276
20
361.2321231757993
30
0
10
7.4393306463529543
20
361.97605944431007
30
0
10
7.5799819534774473
20
362.72139137665471
30
0
10
7.6142454525937664
20
362.90295869037095
30
0
10
7.6486784735865889
20
363.0845430755196
30
0
10
7.6832798954985195
20
363.26614361562343
30
0
0
SPLINE
5
388
100
AcDbEntity
8
0
100
AcDbSpline
70
0
71
3
72
11
73
7
74
0
42
0.000000001
43
0.0000000001
44
0.0000000001
40
0.0018952012576746728
40
0.0018952012576746728
40
0.0018952012576746728
40
0.0018952012576746728
40
0.79039639444645926
40
0.79039639444645926
40
0.79039639444645926
40
0.86689784598207631
40
0.86689784598207631
40
0.86689784598207631
40
0.86689784598207631
10
7.6832798954985044
20
363.26614361562343
30
0
10
9.567386488459146
20
365.09650091606085
30
0
10
11.449540163169718
20
366.92726590981715
30
0
10
13.331062561353155
20
368.75962644355934
30
0
10
13.513610407593353
20
368.93740453926159
30
0
10
13.696141094826483
20
369.11518673063887
30
0
10
13.878655604138622
20
369.2929738742406
30
0
0
SPLINE
5
389
100
AcDbEntity
8
0
100
AcDbSpline
70
0
71
3
72
11
73
7
74
0
42
0.000000001
43
0.0000000001
44
0.0000000001
40
-8.6875479433611567
40
-8.6875479433611567
40
-8.6875479433611567
40
-8.6875479433611567
40
-8.4837162396693007
40
-8.4837162396693007
40
-8.4837162396693007
40
-8.4692396716597642
40
-8.4692396716597642
40
-8.4692396716597642
40
-8.4692396716597642
10
13.878655604138604
20
369.29297387424066
30
0
10
13.687408194110805
20
368.39568926606267
30
0
10
13.500010918512162
20
367.49878565864424
30
0
10
13.316604544639572
20
366.60235161566624
30
0
10
13.303581002374759
20
366.53869653978296
30
0
10
13.290557460109952
20
366.47504146389969
30
0
10
13.27753391784514
20
366.41138638801641
30
0
0
SPLINE
5
390
100
AcDbEntity
8
0
100
AcDbSpline
70
0
71
3
72
11
73
7
74
0
42
0.000000001
43
0.0000000001
44
0.0000000001
40
-0.74146193187089837
40
-0.74146193187089837
40
-0.74146193187089837
40
-0.74146193187089837
40
-0.72195520727065665
40
-0.72195520727065665
40
-0.72195520727065665
40
-0.020167110539836455
40
-0.020167110539836455
40
-0.020167110539836455
40
-0.020167110539836455
10
13.277533917845162
20
366.41138638801647
30
0
10
13.324099527221565
20
366.4566989178752
30
0
10
13.370665136597976
20
366.50201144773411
30
0
10
13.41723074597439
20
366.54732397759301
30
0
10
15.092524649813384
20
368.17753575956533
30
0
10
16.766425119667677
20
369.80817888970398
30
0
10
18.439755911549199
20
371.43998037780335
30
0
0
LINE
5
391
100
AcDbEntity
8
0
100
AcDbLine
10
11.213441579886538
20
310.44694970491491
30
0
11
7.2165223858998075
21
310.64108483686266
31
0
0
SPLINE
5
392
100
AcDbEntity
8
0
100
AcDbSpline
70
0
71
3
72
14
73
10
74
0
42
0.000000001
43
0.0000000001
44
0.0000000001
40
-4.2429949914422842
40
-4.2429949914422842
40
-4.2429949914422842
40
-4.2429949914422842
40
-4.2384454711010973
40
-4.2384454711010973
40
-4.2384454711010973
40
-4.0622775343550304
40
-4.0622775343550304
40
-4.0622775343550304
40
-4.057978092779531
40
-4.057978092779531
40
-4.057978092779531
40
-4.057978092779531
10
7.2165223858998058
20
310.64108483686266
30
0
10
7.2161294821023789
20
310.62049059304394
30
0
10
7.2157365783049521
20
310.59989634922516
30
0
10
7.2153436745075243
20
310.57930210540638
30
0
10
7.2001270871268366
20
309.78171726998573
30
0
10
7.187530296164832
20
308.98744898765068
30
0
10
7.1773964814747409
20
308.19665836521483
30
0
10
7.1771492003475235
20
308.17736182166351
30
0
10
7.1769019192203061
20
308.15806527811219
30
0
10
7.1766546380930905
20
308.13876873456087
30
0
0
LINE
5
393
100
AcDbEntity
8
0
100
AcDbLine
10
7.1766546380930896
20
308.13876873456081
30
0
11
11.174434538074067
21
307.94460132691523
31
0
0
SPLINE
5
394
100
AcDbEntity
8
0
100
AcDbSpline
70
0
71
3
72
11
73
7
74
0
42
0.000000001
43
0.0000000001
44
0.0000000001
40
0.056911980467271417
40
0.056911980467271417
40
0.056911980467271417
40
0.056911980467271417
40
0.28369270461868829
40
0.28369270461868829
40
0.28369270461868829
40
0.40201338659571112
40
0.40201338659571112
40
0.40201338659571112
40
0.40201338659571112
10
12.451305127018502
20
260.02367385820651
30
0
10
12.473269326608492
20
259.32170497816162
30
0
10
12.501169325914802
20
258.62166286070374
30
0
10
12.534898304862939
20
257.91798606755168
30
0
10
12.553737034986078
20
257.52495972600508
30
0
10
12.572575765109219
20
257.13193338445853
30
0
10
12.59141449523236
20
256.73890704291193
30
0
0
SPLINE
5
395
100
AcDbEntity
8
0
100
AcDbSpline
70
0
71
3
72
8
73
4
74
0
42
0.000000001
43
0.0000000001
44
0.0000000001
40
0.12115022369384135
40
0.12115022369384135
40
0.12115022369384135
40
0.12115022369384135
40
0.97179555433709019
40
0.97179555433709019
40
0.97179555433709019
40
0.97179555433709019
10
3.5362738548508266
20
260.96771515799901
30
0
10
3.4395916550991594
20
263.83969035607839
30
0
10
3.3162436033692839
20
266.84047046341806
30
0
10
3.1845608870323727
20
269.96081243418462
30
0
0
SPLINE
5
396
100
AcDbEntity
8
0
100
AcDbSpline
70
0
71
3
72
14
73
10
74
0
42
0.000000001
43
0.0000000001
44
0.0000000001
40
1.0622180647841697
40
1.0622180647841697
40
1.0622180647841697
40
1.0622180647841697
40
2.2718948227849505
40
2.2718948227849505
40
2.2718948227849505
40
4.4889597612583385
40
4.4889597612583385
40
4.4889597612583385
40
6.3949569826396004
40
6.3949569826396004
40
6.3949569826396004
40
6.3949569826396004
10
3.142307261424917
20
270.95991934991196
30
0
10
2.9528200407453271
20
275.4332608316214
30
0
10
2.7504183623115237
20
280.14640312841789
30
0
10
2.5878195115061438
20
285.07276485879351
30
0
10
2.2898124471387633
20
294.10167613343947
30
0
10
2.1254582001963871
20
303.84658854602463
30
0
10
2.4187347064565605
20
314.14148662759476
30
0
10
2.6708631741196194
20
322.99196330284258
30
0
10
3.2385772444934395
20
331.47462695738028
30
0
10
4.1627160438896516
20
339.87764938131886
30
0
0
SPLINE
5
397
100
AcDbEntity
8
0
100
AcDbSpline
70
0
71
3
72
8
73
4
74
0
42
0.000000001
43
0.0000000001
44
0.0000000001
40
6.4701240722410107
40
6.4701240722410107
40
6.4701240722410107
40
6.4701240722410107
40
7.9535269686501557
40
7.9535269686501557
40
7.9535269686501557
40
7.9535269686501557
10
4.273717767262676
20
340.87146911346315
30
0
10
5.0148872233511295
20
347.40684823048952
30
0
10
5.9729267274379927
20
353.90087069901057
30
0
10
7.1670887745958947
20
360.48938726977104
30
0
0
SPLINE
5
398
100
AcDbEntity
8
0
100
AcDbSpline
70
0
71
3
72
8
73
4
74
0
42
0.000000001
43
0.0000000001
44
0.0000000001
40
-8.9156048696297798
40
-8.9156048696297798
40
-8.9156048696297798
40
-8.9156048696297798
40
-8.2400533023179179
40
-8.2400533023179179
40
-8.2400533023179179
40
-8.2400533023179179
10
18.439755911549213
20
371.43998037780335
30
0
10
17.785287116099727
20
368.49722779323588
30
0
10
17.171477276057843
20
365.55897780151525
30
0
10
16.60310941323814
20
362.629660261205
30
0
0
SPLINE
5
399
100
AcDbEntity
8
0
100
AcDbSpline
70
0
71
3
72
14
73
10
74
0
42
0.000000001
43
0.0000000001
44
0.0000000001
40
-8.164538503494903
40
-8.164538503494903
40
-8.164538503494903
40
-8.164538503494903
40
-8.1207537856831173
40
-8.1207537856831173
40
-8.1207537856831173
40
-4.4889597612583385
40
-4.4889597612583385
40
-4.4889597612583385
40
-4.2343109998305897
40
-4.2343109998305897
40
-4.2343109998305897
40
-4.2343109998305897
10
16.41421889890583
20
361.64766255173799
30
0
10
16.378043435987358
20
361.4579368709974
30
0
10
16.342061109979898
20
361.26825079349607
30
0
10
16.306273223133882
20
361.07860552533049
30
0
10
13.336630775596475
20
345.34203407749806
30
0
10
11.763494745223868
20
330.33780218172802
30
0
10
11.294872080083083
20
313.88772018280383
30
0
10
11.262015043231091
20
312.73433817492594
30
0
10
11.235026905032504
20
311.58734272388722
30
0
10
11.213441579886538
20
310.44694970491491
30
0
0
SPLINE
5
400
100
AcDbEntity
8
0
100
AcDbSpline
70
0
71
3
72
8
73
4
74
0
42
0.000000001
43
0.0000000001
44
0.0000000001
40
-4.0472491961075745
40
-4.0472491961075745
40
-4.0472491961075745
40
-4.0472491961075745
40
-3.360057140225293
40
-3.360057140225293
40
-3.360057140225293
40
-3.360057140225293
10
11.17443453807407
20
307.94460132691529
30
0
10
11.13692823109127
20
304.89381553179936
30
0
10
11.136304122287331
20
301.89244213194331
30
0
10
11.163311438952144
20
298.94478110430049
30
0
0
SPLINE
5
401
100
AcDbEntity
8
0
100
AcDbSpline
70
0
71
3
72
11
73
7
74
0
42
0.000000001
43
0.0000000001
44
0.0000000001
40
-3.2821895220804764
40
-3.2821895220804764
40
-3.2821895220804764
40
-3.2821895220804764
40
-2.2718948227849505
40
-2.2718948227849505
40
-2.2718948227849505
40
0
40
0
40
0
40
0
10
11.173543143579071
20
297.94483363873422
30
0
10
11.222280317587929
20
293.62922404868095
30
0
10
11.328475036555121
20
289.43076278406511
30
0
10
11.462731327277165
20
285.36311378532281
30
0
10
11.764639695886217
20
276.21600219241049
30
0
10
12.210001700665995
20
267.73565513271615
30
0
10
12.451305127018502
20
260.02367385820656
30
0
0
LINE
5
402
100
AcDbEntity
8
0
100
AcDbLine
10
21.976126089348782
20
255.98486172121298
30
0
11
19.608657399370436
21
255.71898474361075
31
0
0
LINE
5
403
100
AcDbEntity
8
0
100
AcDbLine
10
19.608657399370436
20
255.71898474361075
30
0
11
19.112304347057187
21
260.13366705078903
31
0
0
LINE
5
404
100
AcDbEntity
8
0
100
AcDbLine
10
20.691381750599675
20
260.31100427566179
30
0
11
19.112304347057187
21
260.13366705078903
31
0
0
LINE
5
405
100
AcDbEntity
8
0
100
AcDbLine
10
20.084139173680061
20
265.71196443496359
30
0
11
20.691381750599675
21
260.31100427566179
31
0
0
LINE
5
406
100
AcDbEntity
8
0
100
AcDbLine
10
25.839568441551819
20
266.35832404471171
30
0
11
20.084139173680061
21
265.71196443496359
31
0
0
LINE
5
407
100
AcDbEntity
8
0
100
AcDbLine
10
25.648063125357584
20
268.06161795454614
30
0
11
25.839568441551819
21
266.35832404471171
31
0
0
LINE
5
408
100
AcDbEntity
8
0
100
AcDbLine
10
18.313562798584691
20
267.23792183245592
30
0
11
25.648063125357584
21
268.06161795454614
31
0
0
LINE
5
409
100
AcDbEntity
8
0
100
AcDbLine
10
19.997620077023498
20
303.00327957733742
30
0
11
16.37221400614451
21
303.86158328488915
31
0
0
SPLINE
5
410
100
AcDbEntity
8
0
100
AcDbSpline
70
0
71
3
72
14
73
10
74
0
42
0.000000001
43
0.0000000001
44
0.0000000001
40
-0.0058839384319205601
40
-0.0058839384319205601
40
-0.0058839384319205601
40
-0.0058839384319205601
40
0
40
0
40
0
40
0.24285123943737738
40
0.24285123943737738
40
0.24285123943737738
40
0.24897367399959125
40
0.24897367399959125
40
0.24897367399959125
40
0.24897367399959125
10
20.535233922091788
20
305.49380619339422
30
0
10
20.531095277122759
20
305.47464002100833
30
0
10
20.526956632153734
20
305.45547384862243
30
0
10
20.522817987184709
20
305.43630767623648
30
0
10
20.352001842742091
20
304.6452536730086
30
0
10
20.181239505300155
20
303.85418772361822
30
0
10
20.010531121997055
20
303.06311046477737
30
0
10
20.006227440339195
20
303.0431668356307
30
0
10
20.001923758681343
20
303.02322320648403
30
0
10
19.997620077023488
20
303.00327957733737
30
0
0
LINE
5
411
100
AcDbEntity
8
0
100
AcDbLine
10
16.392459506332443
20
306.47459526932789
30
0
11
20.535233922091788
21
305.49380619339422
31
0
0
SPLINE
5
412
100
AcDbEntity
8
0
100
AcDbSpline
70
0
71
3
72
8
73
4
74
0
42
0.000000001
43
0.0000000001
44
0.0000000001
40
3.7036770762766213
40
3.7036770762766213
40
3.7036770762766213
40
3.7036770762766213
40
4.0388104059553793
40
4.0388104059553793
40
4.0388104059553793
40
4.0388104059553793
10
16.392459506332436
20
306.47459526932784
30
0
10
16.406946252755411
20
307.69313987866207
30
0
10
16.428525379759535
20
308.91086105375655
30
0
10
16.457353176144174
20
310.12671769831172
30
0
0
LINE
5
413
100
AcDbEntity
8
0
100
AcDbLine
10
19.444804800726295
20
310.52884534709227
30
0
11
16.457353176144178
21
310.12671769831172
31
0
0
LINE
5
414
100
AcDbEntity
8
0
100
AcDbLine
10
19.111718912566865
20
313.00726034668344
30
0
11
19.444804800726295
21
310.52884534709227
31
0
0
LINE
5
415
100
AcDbEntity
8
0
100
AcDbLine
10
16.528041668308362
20
312.65948298122998
30
0
11
19.111718912566865
21
313.00726034668344
31
0
0
LINE
5
416
100
AcDbEntity
8
0
100
AcDbLine
10
23.839135768898743
20
341.91290373997282
30
0
11
19.398987582134151
21
343.50895049156145
31
0
0
LINE
5
417
100
AcDbEntity
8
0
100
AcDbLine
10
24.68331674336509
20
344.26691853337582
30
0
11
23.839135768898743
21
341.91290373997282
31
0
0
LINE
5
418
100
AcDbEntity
8
0
100
AcDbLine
10
19.920756042159205
20
345.97885904001487
30
0
11
24.68331674336509
21
344.26691853337582
31
0
0
LINE
5
419
100
AcDbEntity
8
0
100
AcDbLine
10
19.736828237612361
20
345.46598690464833
30
0
11
19.920756042159205
21
345.97885904001487
31
0
0
SPLINE
5
420
100
AcDbEntity
8
0
100
AcDbSpline
70
0
71
3
72
8
73
4
74
0
42
0.000000001
43
0.0000000001
44
0.0000000001
40
7.4428304776180898
40
7.4428304776180898
40
7.4428304776180898
40
7.4428304776180898
40
8.0345218600764152
40
8.0345218600764152
40
8.0345218600764152
40
8.0345218600764152
10
19.736828237612389
20
345.46598690464833
30
0
10
20.067201721574619
20
347.31552278981928
30
0
10
20.417662960148085
20
349.09844028162297
30
0
10
20.786554982875153
20
350.81760731882957
30
0
0
LINE
5
421
100
AcDbEntity
8
0
100
AcDbLine
10
25.711692236662419
20
349.87387591056188
30
0
11
20.786554982875153
21
350.81760731882957
31
0
0
LINE
5
422
100
AcDbEntity
8
0
100
AcDbLine
10
26.182814359640144
20
352.32971843679888
30
0
11
25.711692236662419
21
349.87387591056188
31
0
0
LINE
5
423
100
AcDbEntity
8
0
100
AcDbLine
10
21.332564004869951
20
353.25910037319989
30
0
11
26.182814359640144
21
352.32971843679888
31
0
0
LINE
5
424
100
AcDbEntity
8
0
100
AcDbLine
10
36.628441797690606
20
378.67342047614864
30
0
11
32.254109273782603
21
381.18480106679897
31
0
0
LINE
5
425
100
AcDbEntity
8
0
100
AcDbLine
10
37.873936795157668
20
380.84189103234087
30
0
11
36.628441797690606
21
378.67342047614864
31
0
0
LINE
5
426
100
AcDbEntity
8
0
100
AcDbLine
10
33.630148852186494
20
383.27832370246983
30
0
11
37.873936795157668
21
380.84189103234087
31
0
0
SPLINE
5
427
100
AcDbEntity
8
0
100
AcDbSpline
70
0
71
3
72
8
73
4
74
0
42
0.000000001
43
0.0000000001
44
0.0000000001
40
13.167840247210247
40
13.167840247210247
40
13.167840247210247
40
13.167840247210247
40
13.963184565832497
40
13.963184565832497
40
13.963184565832497
40
13.963184565832497
10
33.630148852186458
20
383.27832370246972
30
0
10
34.473292172113894
20
384.50474010802691
30
0
10
35.360271257360395
20
385.69570432551245
30
0
10
36.294032445258438
20
386.84741165399231
30
0
0
LINE
5
428
100
AcDbEntity
8
0
100
AcDbLine
10
36.294032445258438
20
386.84741165399237
30
0
11
45.617393948269807
21
379.40948541992867
31
0
0
LINE
5
429
100
AcDbEntity
8
0
100
AcDbLine
10
30.143055355751041
20
268.4557694141298
30
0
11
30.363678487666128
21
266.4934947137321
31
0
0
LINE
5
430
100
AcDbEntity
8
0
100
AcDbLine
10
30.363678487666128
20
266.4934947137321
30
0
11
21.976126089348782
21
255.98486172121298
31
0
0
SPLINE
5
431
100
AcDbEntity
8
0
100
AcDbSpline
70
0
71
3
72
8
73
4
74
0
42
0.000000001
43
0.0000000001
44
0.0000000001
40
8.3196801749889566
40
8.3196801749889566
40
8.3196801749889566
40
8.3196801749889566
40
9.4286926626778662
40
9.4286926626778662
40
9.4286926626778662
40
9.4286926626778662
10
21.332564004869937
20
353.25910037319977
30
0
10
22.056568867108357
20
356.36742364279394
30
0
10
22.842627500929787
20
359.25660874713316
30
0
10
23.679748260023075
20
361.94557555954202
30
0
0
SPLINE
5
432
100
AcDbEntity
8
0
100
AcDbSpline
70
0
71
3
72
11
73
7
74
0
42
0.000000001
43
0.0000000001
44
0.0000000001
40
9.560936045093765
40
9.560936045093765
40
9.560936045093765
40
9.560936045093765
40
12.105147664217501
40
12.105147664217501
40
12.105147664217501
40
12.722351745856241
40
12.722351745856241
40
12.722351745856241
40
12.722351745856241
10
23.9813733667817
20
362.89899844871206
30
0
10
25.929410445739297
20
368.9588937399925
30
0
10
28.139289457145917
20
373.97691341489514
30
0
10
30.478297503561677
20
378.18149561062182
30
0
10
31.045720689274056
20
379.20149100043875
30
0
10
31.637208954221776
20
380.20318039721991
30
0
10
32.254109273782603
20
381.18480106679897
30
0
0
SPLINE
5
433
100
AcDbEntity
8
0
100
AcDbSpline
70
0
71
3
72
8
73
4
74
0
42
0.000000001
43
0.0000000001
44
0.0000000001
40
4.5053820484368616
40
4.5053820484368616
40
4.5053820484368616
40
4.5053820484368616
40
5.8514775458969464
40
5.8514775458969464
40
5.8514775458969464
40
5.8514775458969464
10
45.617393948269822
20
379.40948541992867
30
0
10
43.72807207645333
20
377.09204113153464
30
0
10
42.082353514235109
20
374.56555465570432
30
0
10
40.642944757616448
20
371.92454803351075
30
0
0
SPLINE
5
434
100
AcDbEntity
8
0
100
AcDbSpline
70
0
71
3
72
14
73
10
74
0
42
0.000000001
43
0.0000000001
44
0.0000000001
40
6.0006521325641948
40
6.0006521325641948
40
6.0006521325641948
40
6.0006521325641948
40
7.1666219544717418
40
7.1666219544717418
40
7.1666219544717418
40
12.452215904117882
40
12.452215904117882
40
12.452215904117882
40
16.855479480554067
40
16.855479480554067
40
16.855479480554067
40
16.855479480554067
10
40.171948402054255
20
371.04242663988748
30
0
10
38.964362930461583
20
368.73384191111404
30
0
10
37.908466594956963
20
366.34719424290017
30
0
10
36.980023029353013
20
363.94391178102444
30
0
10
32.771217132784606
20
353.04938919355607
30
0
10
30.737126453482464
20
340.72993867503192
30
0
10
29.648600248486954
20
330.4740806469726
30
0
10
28.741776136126411
20
321.93018036224856
30
0
10
28.295629890095924
20
312.84162692884456
30
0
10
28.264025675478841
20
303.66829657959454
30
0
0
SPLINE
5
435
100
AcDbEntity
8
0
100
AcDbSpline
70
0
71
3
72
8
73
4
74
0
42
0.000000001
43
0.0000000001
44
0.0000000001
40
17.01543133998025
40
17.01543133998025
40
17.01543133998025
40
17.01543133998025
40
22.582629613734532
40
22.582629613734532
40
22.582629613734532
40
22.582629613734532
10
28.262220362987396
20
302.66829865648833
30
0
10
28.260263183457347
20
291.06312014439828
30
0
10
28.918289765347179
20
279.3491263849308
30
0
10
30.143055355751041
20
268.4557694141298
30
0
0
SPLINE
5
436
100
AcDbEntity
8
0
100
AcDbSpline
70
0
71
3
72
8
73
4
74
0
42
0.000000001
43
0.0000000001
44
0.0000000001
40
0.0060010648622825487
40
0.0060010648622825487
40
0.0060010648622825487
40
0.0060010648622825487
40
0.88718870097274727
40
0.88718870097274727
40
0.88718870097274727
40
0.88718870097274727
10
18.313562798584702
20
267.23792183245587
30
0
10
17.986052181551027
20
270.15647326375279
30
0
10
17.696433541744181
20
273.14874195268476
30
0
10
17.447416750569342
20
276.19580355463046
30
0
0
SPLINE
5
437
100
AcDbEntity
8
0
100
AcDbSpline
70
0
71
3
72
8
73
4
74
0
42
0.000000001
43
0.0000000001
44
0.0000000001
40
0.98309296931734469
40
0.98309296931734469
40
0.98309296931734469
40
0.98309296931734469
40
3.4642077797780533
40
3.4642077797780533
40
3.4642077797780533
40
3.4642077797780533
10
17.367557636976379
20
277.19260928944158
30
0
10
16.691388421966298
20
285.80501480720551
30
0
10
16.339443855310428
20
294.83548328994243
30
0
10
16.37221400614451
20
303.86158328488915
30
0
0
SPLINE
5
438
100
AcDbEntity
8
0
100
AcDbSpline
70
0
71
3
72
8
73
4
74
0
42
0.000000001
43
0.0000000001
44
0.0000000001
40
4.2717976671385829
40
4.2717976671385829
40
4.2717976671385829
40
4.2717976671385829
40
5.1057383419908682
40
5.1057383419908682
40
5.1057383419908682
40
5.1057383419908682
10
16.528041668308351
20
312.6594829812301
30
0
10
16.625054609345916
20
315.67729502626014
30
0
10
16.767941207156735
20
318.67907456183542
30
0
10
16.958889369460934
20
321.64877861719737
30
0
0
SPLINE
5
439
100
AcDbEntity
8
0
100
AcDbSpline
70
0
71
3
72
11
73
7
74
0
42
0.000000001
43
0.0000000001
44
0.0000000001
40
5.1992546042483569
40
5.1992546042483569
40
5.1992546042483569
40
5.1992546042483569
40
7.0517437653235229
40
7.0517437653235229
40
7.0517437653235229
40
7.23673499473795
40
7.23673499473795
40
7.23673499473795
40
7.23673499473795
10
17.024943073776114
20
322.6465940860956
30
0
10
17.473114538196238
20
329.22697166372706
30
0
10
18.159655296836824
20
335.6401963183007
30
0
10
19.108547634561049
20
341.71041643996932
30
0
10
19.203305179716232
20
342.31659601842438
30
0
10
19.300135889403251
20
342.91607806963293
30
0
10
19.398987582134151
20
343.50895049156145
30
0
0
LINE
5
440
100
AcDbEntity
8
0
100
AcDbLine
10
92.13031362940427
20
332.45808757930325
30
0
11
88.986008803166754
21
332.45808757930325
31
0
0
LINE
5
441
100
AcDbEntity
8
0
100
AcDbLine
10
88.986008803166754
20
332.45808757930325
30
0
11
88.986008803166655
21
351.00496812719376
31
0
0
LINE
5
442
100
AcDbEntity
8
0
100
AcDbLine
10
82.010313629404266
20
347.70405796986779
30
0
11
88.986008803166655
21
351.00496812719376
31
0
0
LINE
5
443
100
AcDbEntity
8
0
100
AcDbLine
10
82.010313629404266
20
337.70405796986779
30
0
11
82.010313629404266
21
281.85258265513232
31
0
0
LINE
5
444
100
AcDbEntity
8
0
100
AcDbLine
10
82.010313629404266
20
281.85258265513232
30
0
11
88.986008803166641
21
278.55167249780629
31
0
0
LINE
5
445
100
AcDbEntity
8
0
100
AcDbLine
10
88.986008803166712
20
297.0985530456968
30
0
11
88.986008803166641
21
278.55167249780629
31
0
0
LINE
5
446
100
AcDbEntity
8
0
100
AcDbLine
10
92.13031362940427
20
297.0985530456968
30
0
11
88.986008803166712
21
297.0985530456968
31
0
0
LINE
5
447
100
AcDbEntity
8
0
100
AcDbLine
10
92.13031362940427
20
307.0985530456968
30
0
11
92.13031362940427
21
332.45808757930325
31
0
0
LINE
5
448
100
AcDbEntity
8
0
100
AcDbLine
10
82.010313629404266
20
347.70405796986779
30
0
11
82.010313629404266
21
338.70405796986779
31
0
0
LINE
5
449
100
AcDbEntity
8
0
100
AcDbLine
10
92.13031362940427
20
297.0985530456968
30
0
11
92.13031362940427
21
306.0985530456968
31
0
0
ENDSEC
0
SECTION
2
OBJECTS
0
DICTIONARY
5
C
100
AcDbDictionary
3
ACAD_GROUP
350
D
3
ACAD_MLINESTYLE
350
17
0
DICTIONARY
5
D
100
AcDbDictionary
0
DICTIONARY
5
1A
330
C
100
AcDbDictionary
0
DICTIONARY
5
17
100
AcDbDictionary
0
ENDSEC
0
EOF
