0
SECTION
2
HEADER
9
$INSUNITS
70
4
9
$ACADVER
1
AC1014
9
$HANDSEED
5
FFFF
0
ENDSEC
0
SECTION
2
TABLES
0
TABLE
2
VPORT
5
8
100
AcDbSymbolTable
0
ENDTAB
0
TABLE
2
LTYPE
5
5
100
AcDbSymbolTable
0
LTYPE
5
14
100
AcDbSymbolTableRecord
100
AcDbLinetypeTableRecord
2
BYBLOCK
70
0
0
LTYPE
5
15
100
AcDbSymbolTableRecord
100
AcDbLinetypeTableRecord
2
BYLAYER
70
0
0
ENDTAB
0
TABLE
2
LAYER
5
2
100
AcDbSymbolTable
70
2
0
LAYER
5
50
100
AcDbSymbolTableRecord
100
AcDbLayerTableRecord
2
0
70
0
6
CONTINUOUS
0
ENDTAB
0
TABLE
2
STYLE
5
3
100
AcDbSymbolTable
70
1
0
STYLE
5
11
100
AcDbSymbolTableRecord
100
AcDbTextStyleTableRecord
2
STANDARD
70
0
0
ENDTAB
0
TABLE
2
VIEW
5
6
100
AcDbSymbolTable
70
0
0
ENDTAB
0
TABLE
2
UCS
5
7
100
AcDbSymbolTable
70
0
0
ENDTAB
0
TABLE
2
APPID
5
9
100
AcDbSymbolTable
70
2
0
APPID
5
12
100
AcDbSymbolTableRecord
100
AcDbRegAppTableRecord
2
ACAD
70
0
0
ENDTAB
0
TABLE
2
DIMSTYLE
5
A
100
AcDbSymbolTable
70
1
0
ENDTAB
0
TABLE
2
BLOCK_RECORD
5
1
100
AcDbSymbolTable
70
1
0
BLOCK_RECORD
5
1F
100
AcDbSymbolTableRecord
100
AcDbBlockTableRecord
2
*MODEL_SPACE
0
BLOCK_RECORD
5
1B
100
AcDbSymbolTableRecord
100
AcDbBlockTableRecord
2
*PAPER_SPACE
0
ENDTAB
0
ENDSEC
0
SECTION
2
BLOCKS
0
BLOCK
5
20
100
AcDbEntity
100
AcDbBlockBegin
2
*MODEL_SPACE
0
ENDBLK
5
21
100
AcDbEntity
100
AcDbBlockEnd
0
BLOCK
5
1C
100
AcDbEntity
100
AcDbBlockBegin
2
*PAPER_SPACE
0
ENDBLK
5
1D
100
AcDbEntity
100
AcDbBlockEnd
0
ENDSEC
0
SECTION
2
ENTITIES
0
CIRCLE
5
100
100
AcDbEntity
8
0
100
AcDbCircle
10
38.009193080144392
20
70.588534199056738
30
0
40
1
210
0
220
0
230
1
0
CIRCLE
5
101
100
AcDbEntity
8
0
100
AcDbCircle
10
38.009193080144392
20
4.1423116644581359
30
0
40
1
210
0
220
-0
230
1
0
LWPOLYLINE
5
102
100
AcDbEntity
8
0
100
AcDbPolyline
90
8
70
1
43
0.0
10
26.097137170117115
20
21.302565884838344
10
26.097137170117037
20
53.428279978676521
42
-0.37378771392157545
10
38.427723334281495
20
67.617872248182493
42
0.93235604216719636
10
38.009193080144392
20
73.588534199056753
42
0.35497688761709867
10
2.5548392590510804
20
44.788534476916375
10
2.5548392590510671
20
29.94231138659849
42
0.35497688761709856
10
38.009193080144378
20
1.1423116644581373
42
0.93235604216719781
10
38.427723334281517
20
7.1129736153324536
42
-0.37378771392157556
0
CIRCLE
5
103
100
AcDbEntity
8
0
100
AcDbCircle
10
34.087388001776311
20
37.984867085006137
30
0
40
1
210
-0
220
0
230
1
0
CIRCLE
5
104
100
AcDbEntity
8
0
100
AcDbCircle
10
45.725799749318028
20
32.98486708500598
30
0
40
1
210
-0
220
0
230
1
0
CIRCLE
5
105
100
AcDbEntity
8
0
100
AcDbCircle
10
55.587388001775942
20
12.58486708500584
30
0
40
1
210
-0
220
0
230
1
0
CIRCLE
5
106
100
AcDbEntity
8
0
100
AcDbCircle
10
45.725799749318163
20
42.98486708500598
30
0
40
1
210
-0
220
0
230
1
0
CIRCLE
5
107
100
AcDbEntity
8
0
100
AcDbCircle
10
55.587388001776645
20
63.384867085005851
30
0
40
1
210
-0
220
0
230
1
0
LWPOLYLINE
5
108
100
AcDbEntity
8
0
100
AcDbPolyline
90
8
70
1
43
0.0
10
30.587388001776397
20
44.659522188921898
10
30.587388001776191
20
31.310211981090468
10
53.566600174107542
20
10.367567701623583
42
0.85423235911730178
10
58.193933801938833
20
14.070100733848092
10
49.225799749317972
20
29.808938975479862
10
49.225799749318178
20
46.160795194532007
10
58.193933801939473
20
61.899633436163526
42
0.85423235911729933
10
53.566600174108331
20
65.602166468388162
0
CIRCLE
5
109
100
AcDbEntity
8
0
100
AcDbCircle
10
83.539583667456242
20
72.537599119365112
30
0
40
1
210
0
220
0
230
1
0
ARC
5
110
100
AcDbEntity
8
0
100
AcDbCircle
10
83.539583667456242
20
72.537599119365112
30
0
40
3.000000000000024
210
0
220
0
230
1
100
AcDbArc
50
-26.258094071497638
51
133.97781780075587
0
LINE
5
111
100
AcDbEntity
8
0
100
AcDbLine
10
81.456444194655276
20
74.696425174622647
30
0
11
57.189583667456262
21
51.280339880463174
31
0
0
LINE
5
112
100
AcDbEntity
8
0
100
AcDbLine
10
57.189583667456262
20
51.280339880463174
30
0
11
57.189583667455835
21
42.994858358267066
31
0
0
SPLINE
5
113
100
AcDbEntity
8
0
100
AcDbSpline
70
0
71
3
72
10
73
6
74
0
42
0.000000001
43
0.0000000001
44
0.0000000001
40
-67.078622247752278
40
-67.078622247752278
40
-67.078622247752278
40
-67.078622247752278
40
-66.952483952149123
40
-66.952483952149123
40
-66.686937865988156
40
-66.686937865988156
40
-66.686937865988156
40
-66.686937865988156
10
57.189583667455821
20
42.994858358267095
30
0
10
60.721664193403917
20
42.717977550776581
30
0
10
63.771837657102338
20
42.474238081274635
30
0
10
68.721630402943148
20
42.077367557716755
30
0
10
72.764709612168744
20
41.74949527213883
30
0
10
77.189583667445334
20
41.390498594385392
30
0
0
LINE
5
114
100
AcDbEntity
8
0
100
AcDbLine
10
77.189583667445334
20
41.390498594385392
30
0
11
77.189583667456262
21
52.884699644345744
31
0
0
LINE
5
115
100
AcDbEntity
8
0
100
AcDbLine
10
77.189583667456262
20
52.884699644345744
30
0
11
86.230014421228859
21
71.210352963162478
31
0
0
CIRCLE
5
116
100
AcDbEntity
8
0
100
AcDbCircle
10
83.084722419165161
20
7.2653496347330293
30
0
40
0.99999999999999978
210
0
220
0
230
1
0
ARC
5
117
100
AcDbEntity
8
0
100
AcDbCircle
10
83.084722419165161
20
7.2653496347330293
30
0
40
3.0000000000000222
210
0
220
0
230
1
100
AcDbArc
50
-133.97781780075599
51
26.258094071497705
0
LINE
5
118
100
AcDbEntity
8
0
100
AcDbLine
10
85.775153172937763
20
8.5925957909356594
30
0
11
76.734722419165166
21
26.918249109752395
31
0
0
LINE
5
119
100
AcDbEntity
8
0
100
AcDbLine
10
76.734722419165166
20
26.918249109752395
30
0
11
76.734722419164882
21
38.412450159713643
31
0
0
SPLINE
5
120
100
AcDbEntity
8
0
100
AcDbSpline
70
0
71
3
72
10
73
6
74
0
42
0.000000001
43
0.0000000001
44
0.0000000001
40
66.686937865988156
40
66.686937865988156
40
66.686937865988156
40
66.686937865988156
40
66.952483952149123
40
66.952483952149123
40
67.078622247752278
40
67.078622247752278
40
67.078622247752278
40
67.078622247752278
10
76.734722419154238
20
38.412450159712741
30
0
10
72.309848363877649
20
38.053453481959309
30
0
10
68.266769154652053
20
37.725581196381377
30
0
10
63.316976408811243
20
37.328710672823497
30
0
10
60.266802945112836
20
37.084971203321544
30
0
10
56.734722419164726
20
36.808090395831044
30
0
0
LINE
5
121
100
AcDbEntity
8
0
100
AcDbLine
10
56.734722419164726
20
36.808090395831044
30
0
11
56.734722419165173
21
28.522608873634965
31
0
0
LINE
5
122
100
AcDbEntity
8
0
100
AcDbLine
10
56.734722419165173
20
28.522608873634965
30
0
11
81.001582946364209
21
5.1065235794755148
31
0
0
CIRCLE
5
123
100
AcDbEntity
8
0
100
AcDbCircle
10
111.28611981321143
20
72.992460367656179
30
0
40
1
210
0
220
0
230
1
0
ARC
5
124
100
AcDbEntity
8
0
100
AcDbCircle
10
111.28611981321143
20
72.992460367656179
30
0
40
3.000000000000024
210
0
220
0
230
1
100
AcDbArc
50
-26.258094071497638
51
133.97781780075607
0
LINE
5
125
100
AcDbEntity
8
0
100
AcDbLine
10
109.20298034041048
20
75.151286422913685
30
0
11
84.936119813211448
21
51.735201128754234
31
0
0
LINE
5
126
100
AcDbEntity
8
0
100
AcDbLine
10
84.936119813211448
20
51.735201128754234
30
0
11
84.936119813211022
21
43.449719606558126
31
0
0
SPLINE
5
127
100
AcDbEntity
8
0
100
AcDbSpline
70
0
71
3
72
10
73
6
74
0
42
0.000000001
43
0.0000000001
44
0.0000000001
40
-67.078622247752278
40
-67.078622247752278
40
-67.078622247752278
40
-67.078622247752278
40
-66.952483952149123
40
-66.952483952149123
40
-66.686937865988156
40
-66.686937865988156
40
-66.686937865988156
40
-66.686937865988156
10
84.936119813211022
20
43.449719606558155
30
0
10
88.468200339159111
20
43.172838799067662
30
0
10
91.518373802857525
20
42.929099329565702
30
0
10
96.468166548698349
20
42.532228806007822
30
0
10
100.51124575792394
20
42.204356520429897
30
0
10
104.93611981320052
20
41.845359842676459
30
0
0
LINE
5
128
100
AcDbEntity
8
0
100
AcDbLine
10
104.93611981320052
20
41.845359842676459
30
0
11
104.93611981321145
21
53.339560892636804
31
0
0
LINE
5
129
100
AcDbEntity
8
0
100
AcDbLine
10
104.93611981321145
20
53.339560892636804
30
0
11
113.97655056698405
21
71.665214211453545
31
0
0
CIRCLE
5
130
100
AcDbEntity
8
0
100
AcDbCircle
10
111.2861198132114
20
8.1750721313151598
30
0
40
0.99999999999999978
210
0
220
0
230
1
0
ARC
5
131
100
AcDbEntity
8
0
100
AcDbCircle
10
111.2861198132114
20
8.1750721313151598
30
0
40
3.0000000000000222
210
0
220
0
230
1
100
AcDbArc
50
-133.97781780075599
51
26.258094071497705
0
LINE
5
132
100
AcDbEntity
8
0
100
AcDbLine
10
113.976550566984
20
9.5023182875177898
30
0
11
104.93611981321141
21
27.827971606334529
31
0
0
LINE
5
133
100
AcDbEntity
8
0
100
AcDbLine
10
104.93611981321141
20
27.827971606334529
30
0
11
104.93611981321112
21
39.322172656295777
31
0
0
SPLINE
5
134
100
AcDbEntity
8
0
100
AcDbSpline
70
0
71
3
72
10
73
6
74
0
42
0.000000001
43
0.0000000001
44
0.0000000001
40
66.686937865988156
40
66.686937865988156
40
66.686937865988156
40
66.686937865988156
40
66.952483952149123
40
66.952483952149123
40
67.078622247752278
40
67.078622247752278
40
67.078622247752278
40
67.078622247752278
10
104.93611981320046
20
39.322172656294875
30
0
10
100.51124575792389
20
38.963175978541436
30
0
10
96.468166548698306
20
38.635303692963504
30
0
10
91.518373802857482
20
38.238433169405631
30
0
10
88.468200339159068
20
37.994693699903678
30
0
10
84.936119813210965
20
37.717812892413178
30
0
0
LINE
5
135
100
AcDbEntity
8
0
100
AcDbLine
10
84.936119813210965
20
37.717812892413171
30
0
11
84.936119813211405
21
29.432331370217099
31
0
0
LINE
5
136
100
AcDbEntity
8
0
100
AcDbLine
10
84.936119813211405
20
29.432331370217099
30
0
11
109.20298034041045
21
6.0162460760576453
31
0
0
CIRCLE
5
137
100
AcDbEntity
8
0
100
AcDbCircle
10
112.7958258046187
20
40.77924949220764
30
0
40
1
210
-0
220
0
230
1
0
CIRCLE
5
138
100
AcDbEntity
8
0
100
AcDbCircle
10
124.43423755216043
20
35.779249492207484
30
0
40
1
210
-0
220
0
230
1
0
CIRCLE
5
139
100
AcDbEntity
8
0
100
AcDbCircle
10
134.29582580461835
20
15.379249492207343
30
0
40
1
210
-0
220
0
230
1
0
CIRCLE
5
140
100
AcDbEntity
8
0
100
AcDbCircle
10
124.43423755216057
20
45.779249492207484
30
0
40
1
210
-0
220
0
230
1
0
CIRCLE
5
141
100
AcDbEntity
8
0
100
AcDbCircle
10
134.29582580461903
20
66.179249492207347
30
0
40
1
210
-0
220
0
230
1
0
LWPOLYLINE
5
142
100
AcDbEntity
8
0
100
AcDbPolyline
90
8
70
1
43
0.0
10
109.2958258046188
20
47.453904596123394
10
109.29582580461857
20
34.104594388291972
10
132.27503797694993
20
13.161950108825087
42
0.85423235911730255
10
136.90237160478122
20
16.864483141049597
10
127.93423755216037
20
32.603321382681365
10
127.93423755216057
20
48.95517760173351
10
136.90237160478188
20
64.694015843365037
42
0.85423235911730122
10
132.27503797695073
20
68.396548875589659
0
ENDSEC
0
SECTION
2
OBJECTS
0
DICTIONARY
5
C
100
AcDbDictionary
3
ACAD_GROUP
350
D
3
ACAD_MLINESTYLE
350
17
0
DICTIONARY
5
D
100
AcDbDictionary
0
DICTIONARY
5
1A
330
C
100
AcDbDictionary
0
DICTIONARY
5
17
100
AcDbDictionary
0
ENDSEC
0
EOF
